<?xml version="1.0" encoding="UTF-8"?>
<svg version="1.1" xmlns="http://www.w3.org/2000/svg" width="753" height="495">
<path d="M0 0 C0.99872334 -0.00205263 1.99744668 -0.00410527 3.02643436 -0.0062201 C6.39378212 -0.01190245 9.76108913 -0.01043133 13.12844086 -0.00901413 C15.55870057 -0.01159704 17.98895985 -0.01460999 20.41921854 -0.01801753 C26.41110101 -0.02525088 32.40296971 -0.02779056 38.3948552 -0.02834659 C45.57068935 -0.02926024 52.74651526 -0.03592774 59.92234586 -0.04269341 C77.26397716 -0.05875363 94.60560757 -0.0646562 111.94724496 -0.06944216 C120.14800339 -0.07177754 128.34876111 -0.07538007 136.54951898 -0.07913754 C164.61297297 -0.09197151 192.67642657 -0.10269206 220.73988342 -0.10614014 C222.50148909 -0.10636177 224.26309476 -0.10658355 226.02470043 -0.10680549 C227.79058586 -0.10702613 229.55647128 -0.10724661 231.3223567 -0.10746694 C234.86509927 -0.10790949 238.40784184 -0.10835661 241.95058441 -0.10880661 C243.26817559 -0.1089707 243.26817559 -0.1089707 244.61238477 -0.1091381 C273.1115981 -0.11277091 301.61078603 -0.1287002 330.10998962 -0.15199697 C360.23085939 -0.17657447 390.35171464 -0.19031195 420.47259474 -0.19150805 C423.77679666 -0.19167951 427.08099858 -0.19189494 430.3852005 -0.19214249 C431.60560952 -0.19222614 431.60560952 -0.19222614 432.85067328 -0.19231148 C445.9609996 -0.19346357 459.0712999 -0.20449871 472.18161742 -0.21902954 C485.34914164 -0.23337189 498.51663238 -0.23664431 511.68416226 -0.22858956 C519.51274737 -0.22412301 527.34122469 -0.22803475 535.16979571 -0.24382807 C541.00609155 -0.25468289 546.84230568 -0.24996963 552.67860383 -0.2390562 C555.04663142 -0.23708482 557.41466965 -0.24024332 559.78268224 -0.24890056 C562.98870972 -0.25988444 566.1941811 -0.25258267 569.40019226 -0.24050903 C570.33058742 -0.24810423 571.26098258 -0.25569942 572.21957153 -0.26352477 C576.97974804 -0.22452836 580.39803795 -0.09503174 584.20009613 3.13142776 C584.20009613 3.79142776 584.20009613 4.45142776 584.20009613 5.13142776 C585.06634613 5.26677933 585.06634613 5.26677933 585.95009613 5.40486526 C591.42634019 7.17323574 595.7851781 13.05425879 598.63759613 17.88142776 C602.16375283 25.21583369 602.68084939 33.60174343 600.14150238 41.36970901 C596.74032712 48.62370611 592.31900255 55.60727736 584.93447113 59.24861526 C581.43303672 60.49912755 578.14038831 61.13938881 574.45009613 61.63142776 C570.97857224 62.16550836 569.11191565 63.24267997 566.20009613 65.13142776 C563.42514281 65.9942025 560.9294449 66.25698696 558.03200269 66.25907826 C557.20228184 66.26209423 556.372561 66.2651102 555.5176971 66.26821756 C554.60959765 66.26644809 553.7014982 66.26467862 552.76588058 66.26285553 C551.79453548 66.26490816 550.82319038 66.2669608 549.82241058 66.26907563 C546.54214494 66.27476517 543.26192103 66.27328598 539.98165131 66.27186966 C537.61626472 66.27445217 535.25087858 66.27746501 532.88549304 66.28087306 C527.05009275 66.28811052 521.21470095 66.29064633 515.37929722 66.29120212 C508.39141252 66.29211533 501.40353629 66.29878161 494.41565523 66.30554894 C477.5257142 66.32161525 460.63577406 66.32751281 443.74582676 66.33229769 C435.75758348 66.33463287 427.76934092 66.33823543 419.7810982 66.34199307 C392.44244904 66.35482875 365.10380028 66.36554823 337.76514816 66.36899567 C336.04872808 66.3692173 334.332308 66.36943908 332.61588793 66.36966102 C330.89529795 66.36988166 329.17470798 66.37010214 327.45411801 66.37032247 C324.00225655 66.37076502 320.55039509 66.37121214 317.09853363 66.37166214 C315.8147405 66.37182623 315.8147405 66.37182623 314.50501215 66.37199363 C286.74761193 66.37562504 258.99023782 66.39154818 231.2328476 66.4148525 C201.89357664 66.43943994 172.55432059 66.45316799 143.21503901 66.45436358 C139.99530331 66.45453504 136.77556761 66.45475047 133.55583191 66.45499802 C132.76302892 66.45505379 131.97022593 66.45510955 131.15339861 66.45516701 C118.3867179 66.45631837 105.62006396 66.46734749 92.8533923 66.48188507 C80.02511676 66.4962404 67.19687557 66.49949251 54.3685942 66.49144509 C46.74504809 66.48698437 39.12161278 66.4908671 31.4980812 66.5066836 C25.80903811 66.51756324 20.12009449 66.51280656 14.4310554 66.50191173 C12.12687409 66.49994503 9.82268178 66.50307774 7.51851597 66.51175609 C4.39137574 66.52279069 1.26480044 66.51540101 -1.86232376 66.50336456 C-2.76105855 66.51095976 -3.65979333 66.51855495 -4.5857625 66.5263803 C-10.33144391 66.47849747 -14.52441158 65.4259759 -19.79990387 63.13142776 C-20.69838043 62.77822464 -21.59685699 62.42502151 -22.52256012 62.06111526 C-30.33556638 58.53939291 -34.77360464 53.86336354 -38.15146637 45.97517776 C-41.53222754 36.13187314 -41.15451189 29.01727016 -37.11240387 19.50642776 C-35.02821397 15.73503652 -32.25699235 12.70295663 -28.79990387 10.13142776 C-28.13990387 10.13142776 -27.47990387 10.13142776 -26.79990387 10.13142776 C-26.56916168 9.52685745 -26.33841949 8.92228714 -26.10068512 8.29939651 C-24.44229664 5.53541572 -22.87889935 4.81814675 -19.98740387 3.44392776 C-18.7092984 2.81937698 -18.7092984 2.81937698 -17.40537262 2.18220901 C-11.66230968 -0.1339588 -6.10195758 -0.011605 0 0 Z " fill="#FEFEFE" transform="translate(94.7999038696289,92.86857223510742)"/>
<path d="M0 0 C0.85261032 -0.00301597 1.70522064 -0.00603194 2.58366764 -0.0091393 C3.52252551 -0.00736983 4.46138339 -0.00560036 5.42869151 -0.00377727 C6.4284839 -0.0058299 7.4282763 -0.00788253 8.45836544 -0.00999737 C11.84139307 -0.01569587 15.22438036 -0.01420662 18.60741198 -0.0127914 C21.04419518 -0.01537339 23.48097795 -0.01838608 25.91776013 -0.0217948 C31.93354134 -0.02903726 37.94930883 -0.03156836 43.96509305 -0.03212385 C51.16791986 -0.0330365 58.37073844 -0.03970105 65.57356171 -0.04647068 C82.98315875 -0.06254241 100.39275493 -0.06843504 117.80235806 -0.07321942 C126.03453565 -0.07555394 134.26671254 -0.0791564 142.49888958 -0.0829148 C170.66641754 -0.0957506 198.83394511 -0.10647036 227.00147593 -0.1099174 C228.77015783 -0.11013904 230.53883972 -0.11036082 232.30752162 -0.11058275 C234.08052431 -0.1108034 235.853527 -0.11102388 237.62652969 -0.1112442 C241.18360317 -0.11168676 244.74067664 -0.11213387 248.29775012 -0.11258388 C249.17969969 -0.11269327 250.06164927 -0.11280266 250.97032459 -0.11291536 C279.57990759 -0.11654755 308.18946528 -0.13247353 336.79903859 -0.15577424 C367.03160732 -0.18035187 397.26416157 -0.19408925 427.49674058 -0.19528532 C430.81333101 -0.19545678 434.12992144 -0.19567221 437.44651186 -0.19591975 C438.67150984 -0.19600341 438.67150984 -0.19600341 439.92125525 -0.19608875 C453.08190243 -0.19724092 466.2425237 -0.20827692 479.40316212 -0.22280681 C492.62245994 -0.2371495 505.84172441 -0.24042141 519.06102787 -0.23236683 C526.92070757 -0.22790021 534.7802799 -0.23181226 542.63994556 -0.24760534 C548.4994721 -0.25846007 554.35891725 -0.25374695 560.21844609 -0.24283347 C562.59595466 -0.24086205 564.97347383 -0.24402074 567.35096745 -0.25267783 C570.56980946 -0.26366142 573.78809756 -0.25636013 577.00692332 -0.2442863 C578.40818664 -0.25567909 578.40818664 -0.25567909 579.8377583 -0.26730204 C584.60518311 -0.22840014 588.03714001 -0.10652889 591.84364855 3.1276505 C591.84364855 3.7876505 591.84364855 4.4476505 591.84364855 5.1276505 C592.56552355 5.3545255 593.28739855 5.5814005 594.03114855 5.8151505 C599.60424033 8.41592666 602.63868052 13.04390811 605.84364855 18.1276505 C606.50364855 19.1176505 607.16364855 20.1076505 607.84364855 21.1276505 C609.24229335 30.16784415 609.74098373 41.61116422 604.84364855 49.5651505 C602.89833605 52.00655675 602.89833605 52.00655675 600.84364855 54.1276505 C600.20685168 54.79667394 599.5700548 55.46569737 598.91396105 56.15499425 C591.38080883 63.30997618 584.02718619 66.88987323 573.63357604 66.75964952 C572.14184397 66.77099972 572.14184397 66.77099972 570.61997589 66.78257921 C567.29068538 66.80181484 563.96253776 66.78549808 560.63324511 66.76929784 C558.22101511 66.77577585 555.80879014 66.78442995 553.39657491 66.79507214 C548.15353725 66.8131353 542.91072917 66.81566702 537.66768229 66.80442739 C529.87090886 66.78775838 522.07435995 66.79967942 514.27759767 66.81713524 C500.35108483 66.84732838 486.42467995 66.84876962 472.49814521 66.83778221 C460.3089306 66.82819263 448.11975741 66.82748074 435.93054163 66.83566785 C434.29528685 66.83673365 432.66003206 66.83779919 431.02477727 66.83886448 C428.56056366 66.84048556 426.09635006 66.84211786 423.63213648 66.8437775 C400.72229554 66.85903395 377.81246851 66.86453773 354.90262663 66.84918046 C354.03905015 66.84860169 353.17547366 66.84802292 352.28572819 66.84742662 C345.27296194 66.84266194 338.2601959 66.83760396 331.24742986 66.83252889 C303.89606675 66.81293902 276.54485128 66.82213548 249.19350207 66.85494542 C218.45929867 66.89173521 187.72518172 66.90881824 156.99095625 66.89553314 C153.71337177 66.89417567 150.43578728 66.8928756 147.15820277 66.89160657 C146.35118732 66.89127861 145.54417186 66.89095064 144.7127014 66.89061274 C132.5340837 66.88603692 120.35553987 66.89666658 108.17693675 66.91485715 C94.32479907 66.93549217 80.47284567 66.93489136 66.62071844 66.90622475 C58.8712406 66.89079752 51.12218205 66.89182633 43.37272663 66.91675179 C37.5829984 66.93350694 31.79368736 66.91882014 26.0040128 66.89198027 C23.66424876 66.88597712 21.3244322 66.89007199 18.9847103 66.9053435 C-4.93598451 67.05008216 -4.93598451 67.05008216 -13.15635145 60.1276505 C-14.33763522 57.98216289 -14.33763522 57.98216289 -15.15635145 56.1276505 C-15.73385145 55.8389005 -16.31135145 55.5501505 -16.90635145 55.2526505 C-22.52916621 52.44124312 -26.18545513 47.54107264 -28.4493202 41.7995255 C-31.12569243 31.68550003 -29.33100654 23.87384111 -24.1758827 14.96749425 C-20.78024756 10.19258758 -17.08599176 6.81459747 -12.03135145 3.8776505 C-11.18314832 3.37749425 -10.3349452 2.877338 -9.46103895 2.3620255 C-6.20000257 0.61543653 -3.64425186 0.00255155 0 0 Z " fill="#FEFEFE" transform="translate(88.15635144710541,214.87234950065613)"/>
<path d="M0 0 C1.02370481 -0.0078664 2.04740961 -0.01573279 3.10213578 -0.02383757 C6.54883536 -0.04416697 9.99445282 -0.02873978 13.44116592 -0.01358414 C15.93060375 -0.02077428 18.4200361 -0.03013879 20.9094584 -0.04149652 C26.33046051 -0.0611311 31.75113059 -0.06514222 37.17215347 -0.05544281 C45.23345622 -0.04105768 53.29453378 -0.05516073 61.3558163 -0.07481698 C76.59077772 -0.11089728 91.82563151 -0.11316404 107.06062481 -0.10519084 C118.82528375 -0.09923604 130.58990849 -0.10244774 142.35456467 -0.11216354 C144.04407782 -0.1135228 145.73359097 -0.11487998 147.42310412 -0.11623509 C149.96897593 -0.11828752 152.51484773 -0.12034606 155.06071952 -0.12242669 C178.73611 -0.14156623 202.41148742 -0.15061785 226.08688354 -0.1385498 C227.42608252 -0.13786948 227.42608252 -0.13786948 228.79233602 -0.13717541 C236.04276563 -0.13343533 243.29319511 -0.12943539 250.54362457 -0.12541394 C278.82092098 -0.10995636 307.09804075 -0.1262336 335.37530899 -0.16794205 C367.13822534 -0.2147251 398.90103402 -0.23830714 430.66398644 -0.22717881 C434.05055124 -0.22606739 437.43711605 -0.22503146 440.82368088 -0.22404099 C441.65755054 -0.22378044 442.49142019 -0.2235199 443.35055863 -0.22325147 C455.9419177 -0.21978156 468.53317321 -0.23441321 481.1245079 -0.25814438 C495.44487575 -0.28509521 509.76500722 -0.28752573 524.08537361 -0.2572833 C532.0997009 -0.24108017 540.11347115 -0.24418118 548.12775818 -0.2751065 C554.11125098 -0.29602652 560.09405885 -0.28037181 566.0775378 -0.25043634 C568.49878385 -0.24399954 570.92009604 -0.24940674 573.34128091 -0.26778385 C595.24079349 -0.42232015 595.24079349 -0.42232015 602.23548913 5.82303977 C602.77050664 6.42091811 603.30552414 7.01879646 603.8567543 7.63479233 C604.38434522 8.20004568 604.91193614 8.76529904 605.45551467 9.34768128 C609.94098131 14.53034328 612.55626562 22.26339739 613.0208168 29.02151108 C612.40108333 37.24035734 609.39926484 46.02397551 603.70441055 52.06838608 C598.2476209 56.69454391 591.95452351 60.75216614 584.66242266 60.76819617 C583.80131577 60.77249326 582.94020888 60.77679035 582.05300784 60.78121766 C580.63044803 60.78070731 580.63044803 60.78070731 579.17914963 60.78018665 C578.16933619 60.78373727 577.15952276 60.78728789 576.11910892 60.7909461 C572.70194045 60.80169685 569.28480152 60.80526525 565.86761856 60.80887985 C563.40623735 60.81503905 560.94485715 60.82161483 558.48347807 60.82857364 C552.40666472 60.84453775 546.32985859 60.85572855 540.25303244 60.86485225 C535.19888123 60.8725945 530.14473908 60.88266731 525.09059525 60.89424706 C523.9976202 60.89674917 523.9976202 60.89674917 522.88256485 60.89930183 C521.39655467 60.90271066 519.91054449 60.90612218 518.42453433 60.90953636 C498.32904116 60.95522625 478.23352873 60.98569416 458.1380043 61.01369858 C457.31528301 61.01485357 456.49256171 61.01600856 455.64490947 61.01719854 C423.07960686 61.06289908 390.51429625 61.1025325 357.9489722 61.12922349 C349.87982128 61.13584703 341.81067056 61.14272047 333.74151993 61.14968491 C332.40407654 61.15082969 332.40407654 61.15082969 331.0396141 61.15199759 C302.13239587 61.17693957 273.22532155 61.23041921 244.31817815 61.29970317 C214.60490668 61.37078958 184.89171262 61.41588223 155.17835513 61.42720426 C150.9817128 61.42880916 146.78507063 61.43069675 142.5884285 61.43274879 C141.76248566 61.43314168 140.93654283 61.43353456 140.08557143 61.43393935 C126.79213158 61.4409979 113.49889394 61.47520968 100.20553153 61.5194098 C86.8427008 61.5632194 73.48009061 61.5776892 60.11719471 61.56231654 C52.1785347 61.55405783 44.24064415 61.56805092 36.30210911 61.61403588 C30.37317956 61.64591444 24.44479841 61.63595187 18.51582474 61.60977077 C16.11800552 61.60569364 13.72011707 61.61516289 11.32241827 61.63953657 C-10.34699293 61.8466047 -10.34699293 61.8466047 -18.34288454 54.63759941 C-20.66754544 52.05153644 -22.55592432 49.74594223 -24.1432457 46.63479233 C-24.51062851 46.0031517 -24.87801132 45.37151108 -25.25652695 44.72072983 C-29.2076693 37.25293499 -29.45794012 29.48054656 -27.2604332 21.38088608 C-24.75367438 14.74876591 -21.5927592 10.11940203 -16.1432457 5.63479233 C-14.9119901 4.36750373 -14.9119901 4.36750373 -13.65586066 3.07461333 C-9.46565255 -0.38468752 -5.23422088 -0.06131973 0 0 Z " fill="#FEFEFE" transform="translate(87.14324569702148,337.36520767211914)"/>
<path d="M0 0 C1.00022132 -0.00115384 2.00044264 -0.00230769 3.0309737 -0.0034965 C6.4033723 -0.00615642 9.77572374 -0.00164607 13.14811993 0.00279331 C15.58194273 0.00235748 18.01576549 0.00148236 20.449588 0.00020415 C25.75182238 -0.00156953 31.05404247 -0.00022481 36.3562746 0.00384235 C44.24051885 0.00987331 52.12475602 0.01017853 60.00900215 0.00930037 C73.27106305 0.00798588 86.53311897 0.0113301 99.79517841 0.01731777 C112.9286918 0.02323222 126.06220311 0.0270832 139.19571781 0.02817059 C140.42003964 0.0282737 140.42003964 0.0282737 141.66909525 0.02837889 C145.81413691 0.02871721 149.95917857 0.0290186 154.10422023 0.02930576 C183.47324025 0.03140688 212.84225756 0.03814622 242.21127605 0.04760838 C270.74513007 0.05679085 299.27898335 0.06387542 327.81283855 0.06811619 C329.13185051 0.06831348 329.13185051 0.06831348 330.47750916 0.06851475 C339.30811361 0.06983326 348.13871807 0.07110907 356.96932253 0.07235361 C374.9587211 0.07488991 392.94811962 0.07771116 410.93751812 0.08070469 C412.17823791 0.08091062 412.17823791 0.08091062 413.44402274 0.08112072 C468.69139282 0.09032336 523.93876136 0.10618957 579.18612957 0.12304783 C579.51612957 1.44304783 579.84612957 2.76304783 580.18612957 4.12304783 C578.94844967 4.12440436 577.71076977 4.12576089 576.43558443 4.12715852 C521.90301357 4.18705832 467.37044596 4.2494186 412.83789349 4.32437229 C412.01261563 4.32550591 411.18733777 4.32663954 410.33705149 4.32780751 C392.40260408 4.35245754 374.46815731 4.37755035 356.53371116 4.40309944 C347.73897705 4.41562556 338.9442428 4.42805382 330.14950848 4.44043064 C329.27431521 4.44166397 328.39912195 4.44289729 327.49740768 4.44416799 C299.11729107 4.48411543 270.7371713 4.51759718 242.35704273 4.54773474 C213.19877183 4.57873271 184.04051639 4.61623611 154.88226468 4.66195395 C150.7661929 4.66840458 146.650121 4.67478066 142.53404903 4.68111134 C141.72392739 4.68235964 140.91380575 4.68360794 140.07913496 4.68489408 C127.02546573 4.70481637 113.97179821 4.71785755 100.91811837 4.7283411 C87.80261044 4.73902059 74.68712819 4.75691222 61.57164018 4.78221487 C53.77442819 4.79703688 45.97725553 4.80627995 38.18002933 4.80761466 C32.36507999 4.80921806 26.55018229 4.82115475 20.73525377 4.83718224 C18.37715915 4.84205065 16.01905469 4.8435192 13.66095607 4.84132664 C10.46593816 4.83884261 7.27118347 4.84852015 4.07619572 4.8613348 C3.15181137 4.85768512 2.22742702 4.85403544 1.27503103 4.85027516 C-4.2839954 4.88888703 -9.20035393 5.16291045 -13.81387043 8.62304783 C-15.81387043 10.12304783 -15.81387043 10.12304783 -18.64199543 10.92773533 C-22.28044773 12.29887622 -23.94837445 13.90707805 -26.56387043 16.74804783 C-27.94642439 18.23876078 -29.35595353 19.7059526 -30.81387043 21.12304783 C-31.47387043 21.12304783 -32.13387043 21.12304783 -32.81387043 21.12304783 C-32.81387043 30.03304783 -32.81387043 38.94304783 -32.81387043 48.12304783 C-32.15387043 48.12304783 -31.49387043 48.12304783 -30.81387043 48.12304783 C-29.49387043 51.09304783 -28.17387043 54.06304783 -26.81387043 57.12304783 C-21.36887043 56.62804783 -21.36887043 56.62804783 -15.81387043 56.12304783 C-15.15387043 57.77304783 -14.49387043 59.42304783 -13.81387043 61.12304783 C40.94839471 61.15727259 95.71066085 61.18911537 150.47293377 61.20773411 C151.28298063 61.20801022 152.09302749 61.20828634 152.92762122 61.20857082 C170.53063857 61.21455614 188.13365603 61.22009658 205.73667367 61.22517849 C214.36875144 61.22767324 223.00082918 61.23026633 231.63290691 61.23291111 C232.49191843 61.23317263 233.35092994 61.23343415 234.2359721 61.23370359 C262.09655774 61.24223161 289.95713529 61.25725819 317.81771602 61.27564227 C346.43971925 61.29449455 375.061718 61.30681572 403.68372733 61.31087781 C407.72314046 61.31145415 411.76255356 61.31210542 415.80196667 61.31280231 C416.99452942 61.31300458 416.99452942 61.31300458 418.21118435 61.31321094 C431.02722074 61.31557759 443.84324331 61.32486237 456.65927406 61.3367119 C469.53277024 61.34846772 482.40625265 61.35298848 495.27975401 61.35005058 C502.93520368 61.34852539 510.59060314 61.35262082 518.24604377 61.36464291 C523.95189252 61.37299398 529.65769915 61.37098774 535.36354896 61.36484562 C537.67989151 61.3639957 539.99623821 61.36657473 542.31257251 61.37281419 C545.44645019 61.38076924 548.58007683 61.37655765 551.71395016 61.36914349 C552.62594073 61.37439751 553.53793131 61.37965154 554.47755796 61.38506478 C555.31076202 61.38057019 556.14396608 61.37607561 557.00241876 61.37144482 C557.71930571 61.37175678 558.43619265 61.37206874 559.17480345 61.37239016 C561.58399911 61.07372429 563.133367 60.41403976 565.18612957 59.12304783 C565.84612957 58.13304783 566.50612957 57.14304783 567.18612957 56.12304783 C569.94394207 55.82226658 569.94394207 55.82226658 573.31112957 55.81054783 C579.23487813 55.52190449 582.33841906 54.36775225 586.69784832 50.40039158 C588.18612957 49.12304783 588.18612957 49.12304783 590.18612957 49.12304783 C590.45425457 47.84429783 590.72237957 46.56554783 590.99862957 45.24804783 C591.75803056 41.62628927 591.8869076 41.32252915 595.18612957 39.12304783 C596.12712475 35.77293072 596.71284139 32.41538181 597.34237957 28.99414158 C597.62081707 28.04668064 597.89925457 27.0992197 598.18612957 26.12304783 C599.17612957 25.79304783 600.16612957 25.46304783 601.18612957 25.12304783 C602.14519353 36.13452296 600.08523142 43.75524249 593.32284832 52.54492283 C587.85316537 58.55170891 582.35017347 60.56784198 574.43612957 61.62304783 C570.96460568 62.15712843 569.09794908 63.23430004 566.18612957 65.12304783 C563.41117625 65.98582256 560.91547834 66.24860703 558.01803613 66.25069833 C557.18831528 66.2537143 556.35859444 66.25673027 555.50373054 66.25983763 C554.59563109 66.25806816 553.68753164 66.25629869 552.75191402 66.25447559 C551.78056892 66.25652823 550.80922382 66.25858086 549.80844402 66.2606957 C546.52817838 66.26638523 543.24795447 66.26490604 539.96768475 66.26348972 C537.60229816 66.26607224 535.23691202 66.26908507 532.87152648 66.27249312 C527.03612619 66.27973058 521.20073439 66.2822664 515.36533066 66.28282218 C508.37744596 66.2837354 501.38956973 66.29040167 494.40168867 66.297169 C477.51174764 66.31323531 460.6218075 66.31913288 443.7318602 66.32391775 C435.74361692 66.32625294 427.75537436 66.32985549 419.76713164 66.33361313 C392.42848248 66.34644882 365.08983372 66.35716829 337.7511816 66.36061573 C336.03476152 66.36083736 334.31834144 66.36105915 332.60192136 66.36128108 C330.88133139 66.36150172 329.16074142 66.36172221 327.44015145 66.36194253 C323.98828999 66.36238509 320.53642853 66.3628322 317.08456707 66.3632822 C315.80077394 66.36344629 315.80077394 66.36344629 314.49104559 66.36361369 C286.73364537 66.36724511 258.97627126 66.38316825 231.21888104 66.40647257 C201.87961007 66.43106001 172.54035403 66.44478805 143.20107245 66.44598365 C139.98133675 66.44615511 136.76160105 66.44637054 133.54186535 66.44661808 C132.74906236 66.44667385 131.95625937 66.44672962 131.13943204 66.44678708 C118.37275134 66.44793843 105.6060974 66.45896755 92.83942574 66.47350514 C80.01115019 66.48786046 67.18290901 66.49111257 54.35462764 66.48306516 C46.73108153 66.47860443 39.10764622 66.48248716 31.48411464 66.49830366 C25.79507155 66.50918331 20.10612793 66.50442663 14.41708884 66.49353179 C12.11290753 66.49156509 9.80871522 66.4946978 7.50454941 66.50337616 C4.37740918 66.51441076 1.25083388 66.50702107 -1.87629032 66.49498463 C-2.77502511 66.50257982 -3.67375989 66.51017501 -4.59972906 66.51800036 C-10.34541047 66.47011754 -14.53837814 65.41759596 -19.81387043 63.12304783 C-20.71234699 62.7698447 -21.61082355 62.41664158 -22.53652668 62.05273533 C-30.34953294 58.53101297 -34.7875712 53.85498361 -38.16543293 45.96679783 C-41.5461941 36.12349321 -41.16847845 29.00889022 -37.12637043 19.49804783 C-35.04218053 15.72665659 -32.27095891 12.6945767 -28.81387043 10.12304783 C-28.15387043 10.12304783 -27.49387043 10.12304783 -26.81387043 10.12304783 C-26.58312824 9.51847752 -26.35238605 8.9139072 -26.11465168 8.29101658 C-24.4562632 5.52703579 -22.89286591 4.80976682 -20.00137043 3.43554783 C-18.72326496 2.81099705 -18.72326496 2.81099705 -17.41933918 2.17382908 C-11.6699987 -0.14487045 -6.10832711 -0.01722069 0 0 Z " fill="#D3EAEA" transform="translate(94.81387042999268,92.87695217132568)"/>
<path d="M0 0 C1.02370481 -0.0078664 2.04740961 -0.01573279 3.10213578 -0.02383757 C6.54883536 -0.04416697 9.99445282 -0.02873978 13.44116592 -0.01358414 C15.93060375 -0.02077428 18.4200361 -0.03013879 20.9094584 -0.04149652 C26.33046051 -0.0611311 31.75113059 -0.06514222 37.17215347 -0.05544281 C45.23345622 -0.04105768 53.29453378 -0.05516073 61.3558163 -0.07481698 C76.59077772 -0.11089728 91.82563151 -0.11316404 107.06062481 -0.10519084 C118.82528375 -0.09923604 130.58990849 -0.10244774 142.35456467 -0.11216354 C144.04407782 -0.1135228 145.73359097 -0.11487998 147.42310412 -0.11623509 C149.96897593 -0.11828752 152.51484773 -0.12034606 155.06071952 -0.12242669 C178.73611 -0.14156623 202.41148742 -0.15061785 226.08688354 -0.1385498 C227.42608252 -0.13786948 227.42608252 -0.13786948 228.79233602 -0.13717541 C236.04276563 -0.13343533 243.29319511 -0.12943539 250.54362457 -0.12541394 C278.82092098 -0.10995636 307.09804075 -0.1262336 335.37530899 -0.16794205 C367.13822534 -0.2147251 398.90103402 -0.23830714 430.66398644 -0.22717881 C434.05055124 -0.22606739 437.43711605 -0.22503146 440.82368088 -0.22404099 C441.65755054 -0.22378044 442.49142019 -0.2235199 443.35055863 -0.22325147 C455.9419177 -0.21978156 468.53317321 -0.23441321 481.1245079 -0.25814438 C495.44487575 -0.28509521 509.76500722 -0.28752573 524.08537361 -0.2572833 C532.0997009 -0.24108017 540.11347115 -0.24418118 548.12775818 -0.2751065 C554.11125098 -0.29602652 560.09405885 -0.28037181 566.0775378 -0.25043634 C568.49878385 -0.24399954 570.92009604 -0.24940674 573.34128091 -0.26778385 C595.24079349 -0.42232015 595.24079349 -0.42232015 602.23548913 5.82303977 C602.77050664 6.42091811 603.30552414 7.01879646 603.8567543 7.63479233 C604.38434522 8.20004568 604.91193614 8.76529904 605.45551467 9.34768128 C609.94098131 14.53034328 612.55626562 22.26339739 613.0208168 29.02151108 C612.40108333 37.24035734 609.39926484 46.02397551 603.70441055 52.06838608 C598.2476209 56.69454391 591.95452351 60.75216614 584.66242266 60.76819617 C583.80131577 60.77249326 582.94020888 60.77679035 582.05300784 60.78121766 C580.63044803 60.78070731 580.63044803 60.78070731 579.17914963 60.78018665 C578.16933619 60.78373727 577.15952276 60.78728789 576.11910892 60.7909461 C572.70194045 60.80169685 569.28480152 60.80526525 565.86761856 60.80887985 C563.40623735 60.81503905 560.94485715 60.82161483 558.48347807 60.82857364 C552.40666472 60.84453775 546.32985859 60.85572855 540.25303244 60.86485225 C535.19888123 60.8725945 530.14473908 60.88266731 525.09059525 60.89424706 C523.9976202 60.89674917 523.9976202 60.89674917 522.88256485 60.89930183 C521.39655467 60.90271066 519.91054449 60.90612218 518.42453433 60.90953636 C498.32904116 60.95522625 478.23352873 60.98569416 458.1380043 61.01369858 C457.31528301 61.01485357 456.49256171 61.01600856 455.64490947 61.01719854 C423.07960686 61.06289908 390.51429625 61.1025325 357.9489722 61.12922349 C349.87982128 61.13584703 341.81067056 61.14272047 333.74151993 61.14968491 C332.40407654 61.15082969 332.40407654 61.15082969 331.0396141 61.15199759 C302.13239587 61.17693957 273.22532155 61.23041921 244.31817815 61.29970317 C214.60490668 61.37078958 184.89171262 61.41588223 155.17835513 61.42720426 C150.9817128 61.42880916 146.78507063 61.43069675 142.5884285 61.43274879 C141.76248566 61.43314168 140.93654283 61.43353456 140.08557143 61.43393935 C126.79213158 61.4409979 113.49889394 61.47520968 100.20553153 61.5194098 C86.8427008 61.5632194 73.48009061 61.5776892 60.11719471 61.56231654 C52.1785347 61.55405783 44.24064415 61.56805092 36.30210911 61.61403588 C30.37317956 61.64591444 24.44479841 61.63595187 18.51582474 61.60977077 C16.11800552 61.60569364 13.72011707 61.61516289 11.32241827 61.63953657 C-10.34473978 61.84658317 -10.34473978 61.84658317 -18.31236696 54.6742205 C-22.65267233 49.83952508 -22.65267233 49.83952508 -24.1432457 46.63479233 C-23.8132457 45.64479233 -23.4832457 44.65479233 -23.1432457 43.63479233 C-22.1532457 43.96479233 -21.1632457 44.29479233 -20.1432457 44.63479233 C-20.1432457 45.62479233 -20.1432457 46.61479233 -20.1432457 47.63479233 C-19.1532457 47.96479233 -18.1632457 48.29479233 -17.1432457 48.63479233 C-16.4832457 49.62479233 -15.8232457 50.61479233 -15.1432457 51.63479233 C-13.48507786 52.32232533 -11.81865233 52.99040516 -10.1432457 53.63479233 C-9.8132457 54.29479233 -9.4832457 54.95479233 -9.1432457 55.63479233 C48.00243393 55.70324122 105.14811759 55.76692686 162.29382706 55.80416489 C163.13911735 55.80471711 163.98440765 55.80526934 164.85531281 55.80583831 C183.22415975 55.81780893 201.59300713 55.82888981 219.96185516 55.83905365 C228.96946487 55.84404315 237.97707445 55.84922934 246.98468399 55.85451889 C247.88106657 55.85504193 248.77744915 55.85556496 249.70099484 55.85610385 C278.77413799 55.87316017 307.84725012 55.90321354 336.92037446 55.93998121 C366.78783243 55.97768499 396.65527321 56.00232792 426.52275458 56.01045229 C430.73785017 56.01160497 434.95294571 56.01290752 439.16804123 56.0143013 C440.41247212 56.01470584 440.41247212 56.01470584 441.68204304 56.01511855 C455.0559977 56.01985203 468.42989937 56.03842203 481.80383239 56.06212046 C495.23744039 56.08563102 508.67099566 56.09467391 522.10462353 56.08879784 C530.09339689 56.08574722 538.08197778 56.0939401 546.07071652 56.1179825 C552.02467708 56.13468268 557.97850317 56.13067336 563.9324787 56.11838791 C566.34976658 56.11668785 568.76707034 56.12184783 571.18432662 56.13432506 C574.45459111 56.15023242 577.72389291 56.14181544 580.99414062 56.12698364 C581.94623984 56.1374917 582.89833905 56.14799975 583.87928975 56.15882623 C589.02894604 56.1865493 589.02894604 56.1865493 593.34426141 53.62746787 C594.09294539 52.64109348 594.09294539 52.64109348 594.8567543 51.63479233 C595.5373793 51.51104233 596.2180043 51.38729233 596.9192543 51.25979233 C599.21375688 50.76548437 599.21375688 50.76548437 600.4192543 47.75979233 C601.1308168 46.21291733 601.1308168 46.21291733 601.8567543 44.63479233 C602.3930043 44.18104233 602.9292543 43.72729233 603.4817543 43.25979233 C607.0828048 39.00400538 606.21743709 30.01320912 605.8567543 24.63479233 C605.5267543 23.64479233 605.1967543 22.65479233 604.8567543 21.63479233 C604.81721196 19.30179408 604.81273698 16.96771044 604.8567543 14.63479233 C603.8667543 14.30479233 602.8767543 13.97479233 601.8567543 13.63479233 C601.5267543 12.97479233 601.1967543 12.31479233 600.8567543 11.63479233 C600.1967543 11.63479233 599.5367543 11.63479233 598.8567543 11.63479233 C598.8567543 10.97479233 598.8567543 10.31479233 598.8567543 9.63479233 C598.1967543 9.30479233 597.5367543 8.97479233 596.8567543 8.63479233 C595.8667543 7.97479233 594.8767543 7.31479233 593.8567543 6.63479233 C593.8567543 5.97479233 593.8567543 5.31479233 593.8567543 4.63479233 C536.52389855 4.49784464 479.19102625 4.37047979 421.8580513 4.29604721 C420.58522163 4.29439053 420.58522163 4.29439053 419.28667824 4.29270037 C400.84530883 4.26875708 382.40393768 4.24659563 363.96256394 4.22626969 C354.91891152 4.216291 345.87525956 4.20591857 336.83160782 4.1953392 C335.93165602 4.19429313 335.03170423 4.19324706 334.10448117 4.19216929 C304.9347113 4.15807882 275.7650654 4.09798865 246.59537064 4.02441456 C216.61957224 3.94894458 186.64384246 3.89970666 156.66795066 3.88347241 C152.4340183 3.88116717 148.20008617 3.87856208 143.9661541 3.87577438 C142.71620697 3.87496531 142.71620697 3.87496531 141.44100838 3.87413989 C128.02744884 3.86468631 114.61410145 3.82758252 101.20062843 3.78013606 C87.7153371 3.73302572 74.23025608 3.71505149 60.74488535 3.72678131 C52.732917 3.73286579 44.72171845 3.7166479 36.70988912 3.66841198 C30.72618488 3.6348483 24.74330569 3.64311785 18.75952557 3.66760117 C16.33940567 3.67098419 13.91922102 3.66081007 11.49922874 3.63572687 C-4.59666875 3.11889138 -4.59666875 3.11889138 -18.37468165 10.38150454 C-21.29050388 14.09648826 -22.4885352 18.00437607 -23.1432457 22.63479233 C-25.1432457 20.63479233 -25.1432457 20.63479233 -25.2682457 17.50979233 C-24.34263057 12.1568374 -20.0665673 9.03189592 -16.1432457 5.63479233 C-15.31499653 4.78179605 -14.48674736 3.92879978 -13.63339972 3.04995513 C-9.457872 -0.3903048 -5.21041809 -0.06104088 0 0 Z " fill="#DBEEEE" transform="translate(87.14324569702148,337.36520767211914)"/>
<path d="M0 0 C0.85389145 -0.00224729 1.70778289 -0.00449459 2.58754984 -0.00680998 C3.99798051 -0.00286946 3.99798051 -0.00286946 5.43690473 0.00115067 C6.43819511 -0.00000318 7.43948549 -0.00115702 8.471118 -0.00234583 C11.85919641 -0.00501331 15.24722823 -0.00048922 18.63530427 0.00394398 C21.07565057 0.0035083 23.51599682 0.00263347 25.95634282 0.00135481 C31.2790274 -0.00042087 36.60169777 0.00093025 41.92438012 0.00499302 C49.83906555 0.01101751 57.75374392 0.01132981 65.66843123 0.01045103 C78.98091488 0.00913575 92.29339358 0.01248378 105.60587579 0.01846844 C118.79128177 0.02438081 131.97668569 0.02823345 145.16209298 0.02932125 C146.39078008 0.02942436 146.39078008 0.02942436 147.64428913 0.02952956 C151.8040288 0.02986788 155.96376846 0.03016927 160.12350813 0.03045643 C189.60455849 0.03255813 219.08560615 0.03929907 248.56665498 0.04875904 C277.21118608 0.05794 305.85571645 0.06502532 334.50024873 0.06926686 C335.3828412 0.06939838 336.26543366 0.06952991 337.17477135 0.06966542 C346.03794184 0.07098391 354.90111234 0.07225973 363.76428284 0.07350428 C381.8203806 0.07604065 399.87647831 0.0788619 417.932576 0.08185536 C419.17792413 0.08206129 419.17792413 0.08206129 420.4484308 0.08227139 C475.91158674 0.09147562 531.37474114 0.107342 586.83789521 0.1241985 C587.16789521 1.7741985 587.49789521 3.4241985 587.83789521 5.1241985 C586.58963547 5.12229989 585.34137572 5.12040129 584.05528992 5.11844516 C529.05674568 5.03512085 474.05819541 4.95797912 419.05960542 4.9124828 C418.22727887 4.91179251 417.39495233 4.91110223 416.53740377 4.91039102 C398.4497918 4.89542735 380.36217914 4.88157632 362.27456545 4.86887185 C353.4047247 4.86263503 344.53488413 4.85615228 335.66504365 4.84954029 C334.34104244 4.8485596 334.34104244 4.8485596 332.99029372 4.8475591 C304.36763664 4.82624287 275.74502884 4.78867926 247.12240163 4.74271239 C217.71505432 4.69557094 188.30773429 4.66477628 158.90034982 4.65462355 C154.74914138 4.65318272 150.59793304 4.65155453 146.44672471 4.64981228 C145.22116862 4.64930661 145.22116862 4.64930661 143.97085382 4.64879072 C130.80556211 4.64287639 117.64035462 4.61967068 104.47509729 4.59003833 C91.24756644 4.56063339 78.02011928 4.54935072 64.79255687 4.55669161 C56.92857942 4.56050172 49.06490774 4.55029207 41.20098537 4.52021078 C35.33638003 4.49930506 29.47198756 4.50436386 23.60735841 4.51970402 C21.22906256 4.52182587 18.85074133 4.51540324 16.47249584 4.49978258 C13.2498322 4.47983869 10.02868647 4.49045517 6.80604821 4.50895935 C5.87364214 4.49582428 4.94123607 4.48268922 3.98057526 4.46915612 C-2.20537647 4.54992017 -4.80203236 5.72622104 -9.16210479 10.1241985 C-11.68433158 11.66214167 -14.22220039 13.15853884 -16.78710479 14.6241985 C-19.93185309 17.93445987 -20.4127529 21.05848698 -21.29101104 25.4679485 C-22.31076278 28.5775054 -23.71593402 30.00318335 -26.16210479 32.1241985 C-26.34305757 29.04800122 -26.12081532 27.00518768 -25.09960479 24.0616985 C-23.91855452 21.28056547 -23.91855452 21.28056547 -24.72460479 19.0616985 C-25.16210479 17.1241985 -25.16210479 17.1241985 -24.03710479 14.6866985 C-18.53928924 7.17301725 -9.70836283 -0.00205468 0 0 Z " fill="#D4EAEA" transform="translate(88.16210478544235,214.8758015036583)"/>
<path d="M0 0 C0.61875 0.86625 0.61875 0.86625 1.25 1.75 C2.97129751 4.07019284 2.97129751 4.07019284 5.1875 6.125 C7 8 7 8 7 10 C8.98 10.66 10.96 11.32 13 12 C13 13.32 13 14.64 13 16 C15.64 16 18.28 16 21 16 C21.33 17.65 21.66 19.3 22 21 C77.57793901 21.08557545 133.15588448 21.16518066 188.73387146 21.2117157 C189.55619179 21.21240598 190.37851211 21.21309627 191.22575123 21.21380747 C209.09616285 21.22877134 226.96657518 21.24262235 244.83698854 21.25532665 C253.60039161 21.26156343 262.36379448 21.26804619 271.12719727 21.2746582 C271.99927009 21.275312 272.8713429 21.27596579 273.76984217 21.2766394 C302.04599713 21.29795343 330.3221022 21.3355154 358.59822692 21.3814861 C387.65097385 21.42863373 416.70369316 21.45942365 445.7564777 21.46957495 C449.8581743 21.47101577 453.95987082 21.47264395 458.06156731 21.47438622 C458.86885523 21.47472333 459.67614315 21.47506045 460.50789434 21.47540778 C473.51305776 21.48132078 486.51813587 21.50452291 499.52326448 21.53416017 C512.59174339 21.56357393 525.66013757 21.57484555 538.72864843 21.56750689 C546.4968804 21.56369845 554.2648027 21.57389154 562.03297886 21.60398772 C567.82808709 21.62490948 573.62298014 21.61982585 579.41811251 21.60449447 C581.76681676 21.60237432 584.11554679 21.60878246 586.46419997 21.62441591 C589.64935901 21.64439078 592.83298675 21.63372419 596.01812077 21.61523914 C596.93666941 21.62837421 597.85521805 21.64150928 598.8016015 21.65504238 C605.1626456 21.57123405 608.11290882 20.05538315 613 16 C614.65910004 15.31471955 616.32332564 14.64108137 618 14 C618.33 13.34 618.66 12.68 619 12 C619.9590625 11.814375 619.9590625 11.814375 620.9375 11.625 C623.19851273 11.19060573 623.19851273 11.19060573 624.25 8.9375 C624.4975 8.298125 624.745 7.65875 625 7 C625.66 7 626.32 7 627 7 C627.66 5.35 628.32 3.7 629 2 C629.66 2 630.32 2 631 2 C627.59538615 12.21384155 619.72266167 18.9373627 610.4993004 23.94586197 C606.28737628 25.72233886 602.30740988 25.6885995 597.78992748 25.63199902 C596.29819541 25.64334922 596.29819541 25.64334922 594.77632734 25.65492871 C591.44703683 25.67416434 588.11888921 25.65784758 584.78959656 25.64164734 C582.37736656 25.64812535 579.96514158 25.65677945 577.55292636 25.66742164 C572.30988869 25.6854848 567.06708062 25.68801652 561.82403374 25.67677689 C554.02726031 25.66010788 546.2307114 25.67202892 538.43394912 25.68948474 C524.50743628 25.71967788 510.5810314 25.72111912 496.65449666 25.71013172 C484.46528205 25.70054213 472.27610885 25.69983024 460.08689308 25.70801735 C458.45163829 25.70908315 456.8163835 25.71014869 455.18112871 25.71121398 C452.71691511 25.71283506 450.25270151 25.71446736 447.78848793 25.716127 C424.87864699 25.73138345 401.96881996 25.73688723 379.05897808 25.72152996 C378.19540159 25.72095119 377.33182511 25.72037242 376.44207964 25.71977612 C369.42931338 25.71501144 362.41654734 25.70995346 355.40378131 25.70487839 C328.05241819 25.68528852 300.70120273 25.69448498 273.34985352 25.72729492 C242.61565012 25.76408471 211.88153317 25.78116774 181.14730769 25.76788265 C177.86972322 25.76652517 174.59213873 25.7652251 171.31455421 25.76395607 C170.50753876 25.76362811 169.70052331 25.76330014 168.86905285 25.76296224 C156.69043515 25.75838642 144.51189132 25.76901608 132.33328819 25.78720665 C118.48115052 25.80784167 104.62919711 25.80724086 90.77706989 25.77857425 C83.02759205 25.76314702 75.2785335 25.76417583 67.52907808 25.78910129 C61.73934985 25.80585644 55.9500388 25.79116964 50.16036425 25.76432977 C47.82060021 25.75832662 45.48078365 25.76242149 43.14106175 25.777693 C19.22036694 25.92243166 19.22036694 25.92243166 11 19 C9.82945842 16.86378974 9.82945842 16.86378974 9 15 C7.68422198 14.29932146 6.34916873 13.63400786 5 13 C3.296875 11.2734375 3.296875 11.2734375 1.75 9.375 C1.22921875 8.74335938 0.7084375 8.11171875 0.171875 7.4609375 C-0.21484375 6.97882813 -0.6015625 6.49671875 -1 6 C-0.34 6 0.32 6 1 6 C0.67 4.02 0.34 2.04 0 0 Z " fill="#DAEDED" transform="translate(64,256)"/>
<path d="M0 0 C0.66 0 1.32 0 2 0 C2.60724662 8.60940766 2.72058848 16.10332248 -3 23 C-10.83596014 29.54167223 -18.07713773 34.10094616 -28.40234375 34.4609375 C-31.18188165 34.83723455 -31.18188165 34.83723455 -33.55593741 37.00292945 C-38.10803448 39.64250372 -41.5373586 39.55215741 -46.7026577 39.49219131 C-47.67870726 39.49680669 -48.65475682 39.50142207 -49.66038364 39.50617731 C-52.94479055 39.51680049 -56.22841973 39.49879109 -59.51278687 39.48101807 C-61.88560248 39.48276174 -64.25841734 39.48626289 -66.63122809 39.49137473 C-71.79712296 39.49846489 -76.96285166 39.4931008 -82.12871933 39.4768219 C-89.81015209 39.45268308 -97.49146862 39.45147854 -105.17293239 39.45498985 C-118.09427015 39.46024599 -131.01552611 39.44687785 -143.93684006 39.42292023 C-156.73180928 39.39925763 -169.52674444 39.38385756 -182.32173538 39.37950897 C-183.117086 39.37923401 -183.91243661 39.37895906 -184.73188876 39.37867576 C-188.77102075 39.37732244 -192.81015278 39.3761169 -196.84928484 39.37496826 C-225.46351127 39.3665651 -254.07769318 39.33961143 -282.69189453 39.30175781 C-310.49137129 39.26502442 -338.29083587 39.23668784 -366.09033203 39.21972656 C-366.94713097 39.21920046 -367.8039299 39.21867435 -368.68669244 39.21813231 C-377.29096619 39.21285826 -385.89524003 39.207755 -394.49951396 39.20277687 C-412.0276409 39.19263183 -429.55576704 39.18134682 -447.08389282 39.16937256 C-448.29278318 39.16854882 -448.29278318 39.16854882 -449.52609556 39.16770844 C-503.35074906 39.13090155 -557.17537723 39.06743711 -611 39 C-611 38.34 -611 37.68 -611 37 C-611.99 37 -612.98 37 -614 37 C-614 36.34 -614 35.68 -614 35 C-616.31 34.67 -618.62 34.34 -621 34 C-620.67 33.34 -620.34 32.68 -620 32 C-617.4375 31.375 -617.4375 31.375 -615 31 C-614.34 32.65 -613.68 34.3 -613 36 C-558.23773486 36.03422476 -503.47546872 36.06606754 -448.7131958 36.08468628 C-447.90314894 36.08496239 -447.09310208 36.08523851 -446.25850835 36.08552299 C-428.655491 36.09150832 -411.05247354 36.09704875 -393.4494559 36.10213066 C-384.81737813 36.10462541 -376.18530039 36.10721851 -367.55322266 36.10986328 C-366.69421114 36.1101248 -365.83519963 36.11038632 -364.95015747 36.11065576 C-337.08957183 36.11918378 -309.22899428 36.13421036 -281.36841355 36.15259444 C-252.74641032 36.17144672 -224.12441157 36.18376789 -195.50240224 36.18782998 C-191.46298911 36.18840632 -187.42357601 36.18905759 -183.3841629 36.18975449 C-182.19160015 36.18995676 -182.19160015 36.18995676 -180.97494522 36.19016311 C-168.15890883 36.19252976 -155.34288626 36.20181455 -142.52685551 36.21366407 C-129.65335933 36.22541989 -116.77987692 36.22994065 -103.90637556 36.22700275 C-96.25092589 36.22547756 -88.59552643 36.229573 -80.9400858 36.24159509 C-75.23423705 36.24994615 -69.52843042 36.24793992 -63.82258061 36.24179779 C-61.50623806 36.24094787 -59.18989136 36.2435269 -56.87355706 36.24976636 C-53.73967938 36.25772141 -50.60605274 36.25350983 -47.47217941 36.24609566 C-46.56018884 36.25134968 -45.64819826 36.25660371 -44.70857161 36.26201695 C-43.87536755 36.25752237 -43.04216349 36.25302778 -42.18371081 36.24839699 C-41.46682386 36.24870895 -40.74993692 36.24902092 -40.01132612 36.24934233 C-37.60213046 35.95067646 -36.05276257 35.29099193 -34 34 C-33.34 33.01 -32.68 32.02 -32 31 C-29.2421875 30.69921875 -29.2421875 30.69921875 -25.875 30.6875 C-19.95125144 30.39885666 -16.84771051 29.24470442 -12.48828125 25.27734375 C-11 24 -11 24 -9 24 C-8.731875 22.72125 -8.46375 21.4425 -8.1875 20.125 C-7.42809901 16.50324145 -7.29922197 16.19948132 -4 14 C-3.0123898 10.93064562 -3.0123898 10.93064562 -2.375 7.4375 C-1.07977992 1.07977992 -1.07977992 1.07977992 0 0 Z " fill="#DDEFEF" transform="translate(694,118)"/>
<path d="M0 0 C0.84651334 -0.00275974 1.69302667 -0.00551949 2.56519192 -0.00836286 C3.49208256 -0.00630754 4.4189732 -0.00425222 5.37395144 -0.00213462 C6.36506703 -0.00388766 7.35618263 -0.0056407 8.37733203 -0.00744686 C11.72481355 -0.01212815 15.07225204 -0.00963589 18.41973543 -0.00721294 C20.83334546 -0.00907983 23.24695518 -0.01138005 25.66056442 -0.01407826 C30.92183895 -0.01893319 36.18310079 -0.02064851 41.44437647 -0.01962215 C49.26794894 -0.01809965 57.0915112 -0.02225354 64.91508169 -0.02749677 C79.69899614 -0.03717765 94.48290712 -0.03998127 109.26682436 -0.04055383 C120.68021699 -0.04101297 132.09360826 -0.04306919 143.50700045 -0.04625446 C146.78957462 -0.04715196 150.0721488 -0.04804178 153.35472298 -0.04892933 C154.17072117 -0.04915038 154.98671935 -0.04937143 155.82744476 -0.04959918 C178.78550769 -0.05575493 201.74357014 -0.05969958 224.70163393 -0.0592559 C225.56754224 -0.05924032 226.43345056 -0.05922474 227.32559852 -0.05920869 C231.71462469 -0.05912558 236.10365086 -0.05902654 240.49267703 -0.05892398 C241.80025037 -0.05889406 241.80025037 -0.05889406 243.13423932 -0.05886354 C244.89706028 -0.05882311 246.65988123 -0.05878131 248.42270219 -0.05873815 C275.86039858 -0.05812515 303.29808262 -0.0656359 330.73577547 -0.07931072 C361.54345838 -0.0946587 392.35113318 -0.10327774 423.15882015 -0.10234749 C426.44139433 -0.10227286 429.72396851 -0.10222415 433.00654268 -0.10219318 C433.81483002 -0.10218152 434.62311736 -0.10216987 435.45589825 -0.10215786 C448.4837149 -0.10212704 461.51152085 -0.10852265 474.53933431 -0.11712544 C487.62294327 -0.12558665 500.70653653 -0.12660391 513.79014671 -0.12001612 C521.5700346 -0.11631039 529.34987491 -0.1181832 537.1297578 -0.12795846 C542.9280719 -0.1346305 548.72634836 -0.13093306 554.52466208 -0.12308524 C556.87856881 -0.12153741 559.23248063 -0.12341403 561.58638138 -0.12894531 C564.77087137 -0.13593641 567.95511064 -0.13076641 571.13959169 -0.12238914 C572.06648233 -0.12735732 572.99337297 -0.1323255 573.9483512 -0.13744423 C574.79486454 -0.13269342 575.64137787 -0.1279426 576.51354313 -0.12304783 C577.60624879 -0.12318016 577.60624879 -0.12318016 578.72102931 -0.12331517 C581.07448094 0.16548736 582.70668344 0.96318676 584.75677156 2.12649983 C583.51909167 2.12785636 582.28141177 2.12921289 581.00622642 2.13061053 C526.47365557 2.19051032 471.94108795 2.2528706 417.40853548 2.32782429 C416.58325762 2.32895792 415.75797977 2.33009154 414.90769349 2.33125952 C396.97324608 2.35590955 379.03879931 2.38100236 361.10435315 2.40655144 C352.30961904 2.41907757 343.51488479 2.43150582 334.72015047 2.44388264 C333.84495721 2.44511597 332.96976394 2.44634929 332.06804967 2.44761999 C303.68793307 2.48756743 275.3078133 2.52104918 246.92768472 2.55118674 C217.76941383 2.58218471 188.61115839 2.61968811 159.45290668 2.66540595 C155.33683489 2.67185659 151.220763 2.67823266 147.10469103 2.68456334 C146.29456938 2.68581164 145.48444774 2.68705995 144.64977696 2.68834608 C131.59610773 2.70826838 118.54244021 2.72130956 105.48876036 2.73179311 C92.37325244 2.7424726 79.25777019 2.76036422 66.14228217 2.78566687 C58.34507019 2.80048888 50.54789752 2.80973195 42.75067132 2.81106667 C36.93572199 2.81267006 31.12082428 2.82460676 25.30589576 2.84063424 C22.94780115 2.84550265 20.58969668 2.84697121 18.23159806 2.84477864 C15.03658016 2.84229462 11.84182546 2.85197215 8.64683771 2.8647868 C7.72245336 2.86113712 6.79806902 2.85748744 5.84567302 2.85372716 C0.2866466 2.89233903 -4.62971194 3.16636246 -9.24322844 6.62649983 C-11.24322844 8.12649983 -11.24322844 8.12649983 -14.07135344 8.93118733 C-17.70980574 10.30232822 -19.37773245 11.91053006 -21.99322844 14.75149983 C-23.3757824 16.24221278 -24.78531154 17.70940461 -26.24322844 19.12649983 C-26.90322844 19.12649983 -27.56322844 19.12649983 -28.24322844 19.12649983 C-28.24322844 27.04649983 -28.24322844 34.96649983 -28.24322844 43.12649983 C-30.71674865 40.65297962 -30.56995478 39.60520959 -30.80572844 36.18899983 C-31.02029009 33.21578836 -31.29342201 30.97591909 -32.24322844 28.12649983 C-32.14259044 22.08821999 -31.07907543 19.17661618 -26.89947844 14.84915608 C-25.21910879 13.17523439 -25.21910879 13.17523439 -23.89947844 11.31009358 C-18.44896922 3.97408845 -9.0820094 0.00363418 0 0 Z " fill="#E4F2F2" transform="translate(90.24322843551636,94.87350016832352)"/>
<path d="M0 0 C1.42553127 0.00394052 1.42553127 0.00394052 2.87986115 0.00796065 C4.38593287 0.00622988 4.38593287 0.00622988 5.92243028 0.00446415 C9.33193189 0.00178914 12.74138753 0.00632687 16.1508868 0.01075396 C18.60188139 0.01031844 21.05287593 0.00944388 23.50387022 0.00816479 C28.85601738 0.00638711 34.20815042 0.00774459 39.56029537 0.011803 C47.51882324 0.01782108 55.47734407 0.01814039 63.43587379 0.01726101 C76.82131912 0.01594494 90.20675952 0.01929674 103.59220341 0.02527842 C116.85183068 0.03118873 130.1114559 0.03504301 143.37108448 0.03613123 C144.60621635 0.03623434 144.60621635 0.03623434 145.86630038 0.03633953 C150.0477781 0.03667785 154.22925582 0.03697924 158.41073354 0.03726641 C188.05372853 0.03936868 217.69672084 0.04611121 247.33971432 0.05556902 C276.14342511 0.06474848 304.94713517 0.07183453 333.75084713 0.07607684 C334.63818482 0.07620836 335.5255225 0.07633989 336.43974921 0.0764754 C345.35048914 0.07779388 354.26122907 0.0790697 363.17196901 0.08031426 C381.32533187 0.0828507 399.47869467 0.08567195 417.63205746 0.08866534 C418.88414215 0.08887127 418.88414215 0.08887127 420.16152149 0.08908137 C475.93438051 0.09828719 531.70723801 0.11415373 587.48009518 0.13100848 C587.15009518 0.79100848 586.82009518 1.45100848 586.48009518 2.13100848 C585.2339514 2.12910987 583.98780763 2.12721127 582.70390192 2.12525514 C527.79855727 2.04193078 472.89320659 1.96478906 417.98781613 1.91929278 C417.15689932 1.91860249 416.32598251 1.91791221 415.46988641 1.917201 C397.41290764 1.90223733 379.35592818 1.8883863 361.29894768 1.87568183 C352.44412821 1.86944501 343.58930891 1.86296226 334.73448971 1.85635027 C333.85331707 1.85569648 332.97214444 1.85504268 332.0642696 1.85436908 C303.49011429 1.83305287 274.91600834 1.79548928 246.34188294 1.74952237 C216.98435389 1.70238086 187.62685216 1.67158625 158.26928589 1.66143353 C154.12510475 1.6599927 149.9809237 1.65836451 145.83674267 1.65662226 C144.6132613 1.65611659 144.6132613 1.65611659 143.36506314 1.6556007 C130.22208736 1.64968638 117.07919594 1.6264807 103.9362546 1.59684831 C90.73112786 1.56744328 77.52608497 1.55616072 64.32092662 1.56350159 C56.47027968 1.56731168 48.61993903 1.55710219 40.76934725 1.52702076 C34.91466524 1.50611489 29.06019644 1.51117392 23.20549057 1.526514 C20.83123237 1.52863583 18.45694874 1.52221334 16.08274098 1.50659256 C12.8655223 1.48664837 9.64982407 1.49726532 6.43263081 1.51576933 C5.03642821 1.49606673 5.03642821 1.49606673 3.61201951 1.4759661 C-2.5693404 1.55680484 -5.16245056 2.73736225 -9.51990482 7.13100848 C-12.04213162 8.66895164 -14.58000043 10.16534882 -17.14490482 11.63100848 C-20.28965312 14.94126985 -20.77055294 18.06529696 -21.64881107 22.47475848 C-22.66856282 25.58431538 -24.07373405 27.00999333 -26.51990482 29.13100848 C-27.02563021 20.53367685 -22.63732786 13.77259084 -17.53552982 7.25600848 C-14.54045927 4.09841472 -11.51813985 2.78545056 -7.51990482 1.13100848 C-5.57014954 -0.8187468 -2.5956399 0.00683283 0 0 Z " fill="#E7F3F3" transform="translate(88.51990482211113,217.8689915239811)"/>
<path d="M0 0 C2.47699635 -0.00392716 4.95398904 -0.01181196 7.43096185 -0.0233025 C12.80625465 -0.03920567 18.18040301 -0.02729995 23.55551529 0.00944138 C31.54777093 0.06391965 39.53946316 0.06644886 47.53187064 0.05856348 C60.97824404 0.04675718 74.42421845 0.07673875 87.87047577 0.13072014 C101.17964403 0.18401395 114.48864603 0.21862175 127.79792023 0.22839546 C129.04023598 0.22932345 129.04023598 0.22932345 130.30764901 0.23027018 C134.51388822 0.23331527 138.72012756 0.23602769 142.92636707 0.23861206 C172.70202132 0.25750465 202.47745863 0.31810961 232.25299072 0.40333557 C261.17550505 0.48602427 290.09795996 0.5497626 319.02056885 0.58790588 C319.91243597 0.58908962 320.80430309 0.59027335 321.72319649 0.59149296 C330.67987377 0.60335987 339.6365515 0.61484216 348.59322964 0.62604269 C366.83823862 0.64886726 385.08324373 0.67425852 403.32824707 0.70120239 C404.16708197 0.702438 405.00591686 0.70367361 405.870171 0.70494666 C461.86505603 0.78772168 517.85981798 0.93051235 573.85455322 1.08229065 C573.85455322 1.41229065 573.85455322 1.74229065 573.85455322 2.08229065 C572.59723251 2.08060942 571.3399118 2.07892818 570.04449046 2.077196 C514.63487354 2.00376135 459.22525353 1.94271076 403.81558228 1.94487 C402.55734777 1.94491375 402.55734777 1.94491375 401.27369438 1.94495838 C383.04398682 1.94566655 364.81428024 1.94859793 346.58457343 1.95381963 C337.64478162 1.95636679 328.70498974 1.95842267 319.76519775 1.96022034 C318.8755791 1.96040759 317.98596044 1.96059484 317.06938365 1.96078777 C288.23214421 1.96662731 259.39504558 1.9400225 230.55784178 1.89659979 C200.92484367 1.8521501 171.2920085 1.84041807 141.65898729 1.86987685 C137.47392571 1.87402203 133.28886386 1.87779305 129.10380173 1.88133621 C127.86827654 1.88239959 127.86827654 1.88239959 126.60779125 1.88348446 C113.34651547 1.89393565 100.0855158 1.8698782 86.82429672 1.83292765 C73.49352484 1.79651933 60.16314517 1.79643838 46.83237143 1.83344667 C38.91116547 1.85433291 30.99112481 1.84735779 23.07002395 1.80047714 C17.15568215 1.76854152 11.2422659 1.78874396 5.327951 1.8292339 C2.9347839 1.83747363 0.54148666 1.82876923 -1.8515393 1.801504 C-14.4148598 1.06371924 -14.4148598 1.06371924 -25.72386861 5.39128327 C-28.4662868 8.05012534 -28.4662868 8.05012534 -30.50271666 10.9384023 C-31.0448176 11.64588545 -31.58691854 12.35336861 -32.14544678 13.08229065 C-33.13544678 13.08229065 -34.12544678 13.08229065 -35.14544678 13.08229065 C-35.11064209 13.74615784 -35.0758374 14.41002502 -35.03997803 15.0940094 C-34.87998391 20.3128652 -34.78395241 23.81577856 -38.14544678 28.08229065 C-38.80544678 29.07229065 -39.46544678 30.06229065 -40.14544678 31.08229065 C-40.31621619 26.04459301 -40.22980134 22.71418968 -38.14544678 18.08229065 C-38.02169678 16.84479065 -37.89794678 15.60729065 -37.77044678 14.33229065 C-36.37281578 9.07246963 -32.64131903 5.93519115 -28.23816633 3.00889027 C-19.91981906 -1.54037655 -9.16164333 -0.10787745 0 0 Z " fill="#F0F7F7" transform="translate(102.14544677734375,339.91770935058594)"/>
<path d="M0 0 C0.33 0 0.66 0 1 0 C1.08745946 3.3956697 1.14054444 6.79104773 1.1875 10.1875 C1.22520508 11.62706055 1.22520508 11.62706055 1.26367188 13.09570312 C1.3568739 22.07416443 1.3568739 22.07416443 -2 26 C-2.66 26.33 -3.32 26.66 -4 27 C-5.13350534 29.01669827 -5.13350534 29.01669827 -6 31 C-7.32 31 -8.64 31 -10 31 C-10.185625 31.598125 -10.37125 32.19625 -10.5625 32.8125 C-12.67648065 36.02942707 -15.48241327 36.60509492 -19 38 C-19.53779138 38.51703485 -20.07558277 39.03406971 -20.62967086 39.56677228 C-24.41044808 41.85283231 -28.21609072 41.40627105 -32.55026627 41.36914349 C-33.53413838 41.37260502 -34.51801049 41.37606655 -35.53169692 41.37963298 C-38.85463531 41.38762364 -42.17714451 41.3740735 -45.50006104 41.36076355 C-47.89589851 41.36207082 -50.29173557 41.36469579 -52.68757033 41.36853105 C-57.90993632 41.37385491 -63.13220997 41.3698118 -68.35456085 41.35761642 C-76.12002726 41.33953259 -83.8854289 41.33860703 -91.65091253 41.34124239 C-104.71281308 41.34518697 -117.77466816 41.33514897 -130.83655548 41.31719017 C-143.77273025 41.29944973 -156.70888609 41.28789448 -169.64507294 41.28463173 C-170.8507822 41.2843224 -170.8507822 41.2843224 -172.08084922 41.28400682 C-176.16283942 41.28299185 -180.24482963 41.28208769 -184.32681987 41.2812262 C-213.25272354 41.27492203 -242.17860246 41.25470177 -271.10449219 41.22631836 C-299.20865751 41.19877306 -327.31281607 41.1775183 -355.41699219 41.16479492 C-356.71603167 41.16420305 -356.71603167 41.16420305 -358.04131438 41.16359923 C-366.73816781 41.15964373 -375.43502129 41.15581628 -384.13187481 41.15208265 C-401.84896427 41.14447365 -419.56605328 41.1360099 -437.28314209 41.12702942 C-438.09777651 41.12661755 -438.91241092 41.12620568 -439.75173123 41.12578133 C-494.16783121 41.09817117 -548.58391711 41.05057231 -603 41 C-603 40.67 -603 40.34 -603 40 C-411.27 39.67 -219.54 39.34 -22 39 C-21.67 38.01 -21.34 37.02 -21 36 C-19.2578125 35.19140625 -19.2578125 35.19140625 -17.125 34.5625 C-13.52517802 33.35614255 -12.10789963 32.21732049 -10 29 C-9.01 29 -8.02 29 -7 29 C-7.103125 28.29875 -7.20625 27.5975 -7.3125 26.875 C-7 24 -7 24 -4.52734375 21.37109375 C-1.23261821 17.58131188 -1.25828532 14.04684247 -1.25 9.1875 C-1.07466015 1.07466015 -1.07466015 1.07466015 0 0 Z " fill="#EDF6F6" transform="translate(693,237)"/>
<path d="M0 0 C3.777948 5.66692199 2.15790293 13.51574358 1 20 C0.34 20.33 -0.32 20.66 -1 21 C-0.67 14.07 -0.34 7.14 0 0 Z M-6 24 C-5.34 24 -4.68 24 -4 24 C-4.625 26.875 -4.625 26.875 -6 30 C-9 31.1875 -9 31.1875 -12 32 C-12.66 32.99 -13.32 33.98 -14 35 C-15.82775081 35.37401349 -15.82775081 35.37401349 -18.09561455 35.37259549 C-19.39243191 35.38270831 -19.39243191 35.38270831 -20.7154476 35.39302543 C-21.67280084 35.38514439 -22.63015408 35.37726335 -23.61651802 35.36914349 C-24.63184992 35.37260502 -25.64718182 35.37606655 -26.69328135 35.37963298 C-30.13527472 35.38764731 -33.57685686 35.37405415 -37.01882935 35.36076355 C-39.49543668 35.36207034 -41.97204362 35.36469442 -44.44864833 35.36853105 C-49.85370013 35.37386122 -55.25862606 35.36979807 -60.66365814 35.35761642 C-68.70078783 35.33955281 -76.73785486 35.33860513 -84.77500114 35.34124239 C-98.29302426 35.34518946 -111.81100348 35.33513957 -125.32901382 35.31719017 C-138.71899762 35.29945623 -152.10896314 35.2878958 -165.49895859 35.28463173 C-166.74646447 35.2843224 -166.74646447 35.2843224 -168.01917249 35.28400682 C-172.24258151 35.28299186 -176.46599054 35.2820877 -180.68939959 35.2812262 C-210.62579057 35.27492023 -240.56215765 35.25469496 -270.49853516 35.22631836 C-299.58642449 35.19877781 -328.67430728 35.17752073 -357.76220703 35.16479492 C-358.65837753 35.16440034 -359.55454802 35.16400576 -360.4778752 35.16359923 C-369.47735586 35.15964377 -378.47683658 35.15581631 -387.47631734 35.15208265 C-405.81029223 35.14447343 -424.1442667 35.13600968 -442.47824097 35.12702942 C-443.32125974 35.12661755 -444.16427851 35.12620568 -445.03284331 35.12578133 C-501.3552389 35.09816617 -557.67762092 35.05056678 -614 35 C-614 34.67 -614 34.34 -614 34 C-612.73616903 33.99940291 -611.47233805 33.99880582 -610.17020917 33.99819064 C-554.49178031 33.97162365 -498.8133559 33.94012709 -443.13494873 33.88336182 C-442.29247791 33.88250431 -441.45000709 33.8816468 -440.58200685 33.8807633 C-422.2744248 33.86209923 -403.9668438 33.84254689 -385.65926369 33.82207905 C-376.6816968 33.81204755 -367.70412971 33.80221242 -358.7265625 33.79248047 C-357.83316961 33.79150866 -356.93977671 33.79053686 -356.01931131 33.7895356 C-327.04318997 33.75810832 -298.06707797 33.73965637 -269.09094254 33.72790753 C-239.32309734 33.71576934 -209.55529114 33.69059206 -179.78747193 33.64892386 C-175.58643114 33.64304946 -171.38539017 33.63732468 -167.18434906 33.63169098 C-165.94406762 33.63002079 -165.94406762 33.63002079 -164.67872998 33.62831686 C-151.34942556 33.6107526 -138.02015104 33.60700174 -124.6908366 33.60837079 C-111.3020125 33.60945282 -97.91326527 33.59609123 -84.52447036 33.56783572 C-76.56237975 33.55147569 -68.60046284 33.54634039 -60.63836162 33.55702825 C-54.70422027 33.56377743 -48.77024794 33.54985141 -42.83614001 33.52766338 C-40.42693915 33.52193743 -38.01771095 33.52305976 -35.60851803 33.53148755 C-32.34911456 33.54191826 -29.09071433 33.5280658 -25.83137894 33.50780869 C-24.88248842 33.51671239 -23.9335979 33.5256161 -22.95595312 33.53478962 C-17.84436213 33.55382474 -17.84436213 33.55382474 -13.55350757 31.03466821 C-13.04085007 30.3632277 -12.52819257 29.69178719 -12 29 C-11.113125 28.649375 -10.22625 28.29875 -9.3125 27.9375 C-8.549375 27.628125 -7.78625 27.31875 -7 27 C-6.67 26.01 -6.34 25.02 -6 24 Z " fill="#F5FAFA" transform="translate(692,359)"/>
<path d="M0 0 C1.25 1.6875 1.25 1.6875 1.25 3.6875 C285.875 4.1825 285.875 4.1825 576.25 4.6875 C576.25 5.0175 576.25 5.3475 576.25 5.6875 C521.66429212 5.70461146 467.07858398 5.72053296 412.49287415 5.72984314 C411.6855087 5.7299812 410.87814326 5.73011925 410.0463122 5.73026149 C392.50179321 5.73325412 374.95727418 5.73602434 357.41275511 5.73856533 C348.80943114 5.73981271 340.20610717 5.74110926 331.6027832 5.74243164 C330.74663062 5.7425624 329.89047803 5.74269316 329.00838143 5.74282788 C301.23781287 5.7470923 273.46724635 5.7546059 245.69667902 5.76379722 C217.1684393 5.7732222 188.6402007 5.77938367 160.11195945 5.78141499 C156.08628018 5.78170316 152.06060091 5.7820288 148.03492165 5.78237724 C147.24257869 5.78244467 146.45023573 5.78251209 145.63388238 5.78258156 C132.85856602 5.78376513 120.08325312 5.78840819 107.30793816 5.79433203 C94.47702931 5.8002083 81.64612391 5.80247074 68.81521376 5.80100138 C61.18400826 5.80023847 53.55281534 5.80228928 45.9216121 5.80829754 C40.23558666 5.81247007 34.54957181 5.81147161 28.86354611 5.80839889 C26.55395181 5.80797362 24.24435647 5.80926583 21.93476423 5.81238318 C18.81245367 5.81635487 15.69020628 5.81425847 12.56789684 5.81054783 C11.65648795 5.81317484 10.74507905 5.81580186 9.8060517 5.81850848 C8.97796177 5.81626118 8.14987183 5.81401389 7.29668826 5.8116985 C6.58214102 5.81185448 5.86759378 5.81201046 5.13139359 5.81217116 C3.25 5.6875 3.25 5.6875 0.25 4.6875 C0.25 4.0275 0.25 3.3675 0.25 2.6875 C-2.06 2.3575 -4.37 2.0275 -6.75 1.6875 C-5.75 -0.3125 -5.75 -0.3125 -3.875 -1.125 C-1.75 -1.3125 -1.75 -1.3125 0 0 Z " fill="#EAF4F4" transform="translate(79.75,150.3125)"/>
<path d="M0 0 C0.66 0.33 1.32 0.66 2 1 C-0.59331917 3.2882228 -2.5351452 4.86394494 -5.8828125 5.84375 C-9.49997218 7.18545334 -11.15430194 8.80553486 -13.75 11.625 C-15.13255396 13.11571295 -16.5420831 14.58290478 -18 16 C-18.66 16 -19.32 16 -20 16 C-20 23.92 -20 31.84 -20 40 C-22.47352021 37.52647979 -22.32672635 36.47870976 -22.5625 33.0625 C-22.77706165 30.08928853 -23.05019358 27.84941926 -24 25 C-23.89951865 18.97111908 -22.84546681 16.04831213 -18.66015625 11.734375 C-16.96066487 10.04033083 -16.96066487 10.04033083 -15.62109375 8.078125 C-12.70728788 4.06022744 -10.62544068 2.57325319 -5.6875 1.625 C-4.82511719 1.51414062 -3.96273437 1.40328125 -3.07421875 1.2890625 C-1.01336508 1.21427835 -1.01336508 1.21427835 0 0 Z " fill="#E9F4F4" transform="translate(82,98)"/>
<path d="M0 0 C0.99 0 1.98 0 3 0 C3.33 1.65 3.66 3.3 4 5 C4.99 5.33 5.98 5.66 7 6 C7.309375 6.804375 7.61875 7.60875 7.9375 8.4375 C9.20796865 11.50157145 10.09347216 11.68737452 13 13 C13.33 13.99 13.66 14.98 14 16 C14.78375 16.309375 15.5675 16.61875 16.375 16.9375 C19.38330609 18.1551477 20.45695734 19.17108846 22 22 C21.67 22.99 21.34 23.98 21 25 C17.17655388 22.90792571 14.01092925 21.16147572 11 18 C10.01 17.67 9.02 17.34 8 17 C5 11.77777778 5 11.77777778 5 9 C4.01 8.67 3.02 8.34 2 8 C0.5522078 5.10441559 0 3.25811062 0 0 Z " fill="#D1FFFF" transform="translate(12,435)"/>
<path d="M0 0 C-1.07401108 2.91517292 -1.77810176 4.77810176 -4 7 C-5.11375 7.37125 -6.2275 7.7425 -7.375 8.125 C-10.70885572 9.45576985 -11.78703797 10.90138212 -13.3125 14.125 C-13.59738281 14.82882813 -13.88226563 15.53265625 -14.17578125 16.2578125 C-15 18 -15 18 -17 19 C-17.33 19.99 -17.66 20.98 -18 22 C-18.99 22 -19.98 22 -21 22 C-20.55386566 17.09252227 -19.52899991 15.32141168 -16 12 C-15.525625 10.948125 -15.05125 9.89625 -14.5625 8.8125 C-13 6 -13 6 -10.3125 5.125 C-9.549375 5.08375 -8.78625 5.0425 -8 5 C-7.67 4.01 -7.34 3.02 -7 2 C-4 0 -4 0 0 0 Z " fill="#CAFDFD" transform="translate(33,37)"/>
<path d="M0 0 C2.0625 0.4375 2.0625 0.4375 4 1 C2.25 5.875 2.25 5.875 0 7 C-0.45375 7.804375 -0.9075 8.60875 -1.375 9.4375 C-3.15502508 12.24446263 -4.07488893 12.67040406 -7 14 C-7.61875 14.680625 -8.2375 15.36125 -8.875 16.0625 C-11.52539454 18.4790362 -13.48662462 18.68060224 -17 19 C-17 18.01 -17 17.02 -17 16 C-16.01 16 -15.02 16 -14 16 C-13.6596875 15.071875 -13.6596875 15.071875 -13.3125 14.125 C-11.60599474 11.36208673 -9.97260714 11.16004181 -7 10 C-5.96352976 8.69481525 -4.95577057 7.36538653 -4 6 C-3.34 6 -2.68 6 -2 6 C-1.855625 5.195625 -1.71125 4.39125 -1.5625 3.5625 C-1 1 -1 1 0 0 Z " fill="#C9FBFB" transform="translate(742,441)"/>
<path d="M0 0 C2 2 2 2 2.125 5.125 C2.08375 6.07375 2.0425 7.0225 2 8 C2.66 8 3.32 8 4 8 C3.9397287 11.04370043 3.85260043 14.08267412 3.75 17.125 C3.72873047 18.40890625 3.72873047 18.40890625 3.70703125 19.71875 C3.49237009 25.29994009 2.63476646 28.53169687 -1 33 C-1.99 34.36125 -1.99 34.36125 -3 35.75 C-4.97418376 37.97095673 -6.17956931 39.11861541 -9 40 C-11.25 39.625 -11.25 39.625 -13 39 C-11.906875 38.62875 -10.81375 38.2575 -9.6875 37.875 C-5.66721062 36.17628618 -4.67615557 34.02277337 -3 30 C-2.46375 29.54625 -1.9275 29.0925 -1.375 28.625 C2.22605049 24.36921305 1.36068278 15.3784168 1 10 C0.67 9.01 0.34 8.02 0 7 C-0.03954234 4.66700175 -0.04401732 2.33291811 0 0 Z " fill="#E2F1F1" transform="translate(692,352)"/>
<path d="M0 0 C2.875 0.25 2.875 0.25 6 1 C6.69937532 2.31647119 7.36729133 3.65022151 8 5 C8.825 5.144375 9.65 5.28875 10.5 5.4375 C11.325 5.623125 12.15 5.80875 13 6 C13.71727778 7.64551962 14.38325228 9.31422289 15 11 C17.01735205 12.34410262 17.01735205 12.34410262 19 13 C19 14.65 19 16.3 19 18 C15.46993343 16.82331114 15.42950388 16.33394437 13.8125 13.1875 C11.4446608 9.15713541 9.15983562 7.59876712 4.8671875 5.88671875 C2.74918055 4.880887 1.49119193 3.80147099 0 2 C0 1.34 0 0.68 0 0 Z " fill="#EAFFFF" transform="translate(727,37)"/>
<path d="M0 0 C0.66 0.33 1.32 0.66 2 1 C-3 6 -3 6 -5.25 7.6875 C-7.66646084 10.88068039 -7.48448138 13.67434135 -7.7265625 17.59375 C-8.07499275 20.65993623 -9.14979131 22.55772453 -11 25 C-11.66 25.99 -12.32 26.98 -13 28 C-13.17076941 22.96230236 -13.08435456 19.63189903 -11 15 C-10.814375 13.72125 -10.62875 12.4425 -10.4375 11.125 C-9.17371093 5.53883992 -4.54386063 2.99184239 0 0 Z " fill="#E5F2F2" transform="translate(75,343)"/>
<path d="M0 0 C-0.33 0.66 -0.66 1.32 -1 2 C-3.10988223 2.41848904 -5.24026473 2.73610337 -7.375 3 C-12.49913134 3.61022973 -12.49913134 3.61022973 -17 6 C-19.1875 5.625 -19.1875 5.625 -21 5 C-20.38125 4.731875 -19.7625 4.46375 -19.125 4.1875 C-16.7004767 3.04443152 -16.7004767 3.04443152 -15 0 C-12.03125 -0.546875 -12.03125 -0.546875 -8.5 -0.75 C-7.3346875 -0.82734375 -6.169375 -0.9046875 -4.96875 -0.984375 C-2 -1 -2 -1 0 0 Z " fill="#E9F4F4" transform="translate(677,149)"/>
<path d="M0 0 C0.66 1.32 1.32 2.64 2 4 C1.01 4.33 0.02 4.66 -1 5 C-1.598125 5.66 -2.19625 6.32 -2.8125 7 C-5.50439953 9.46116528 -7.42715954 9.67519632 -11 10 C-11 9.01 -11 8.02 -11 7 C-10.01 7 -9.02 7 -8 7 C-7.773125 6.38125 -7.54625 5.7625 -7.3125 5.125 C-5.6144983 2.37585439 -4.00347742 2.00115914 -1 1 C-0.67 0.67 -0.34 0.34 0 0 Z " fill="#D8FFFF" transform="translate(736,450)"/>
<path d="M0 0 C0.33 0.66 0.66 1.32 1 2 C1.66 2.33 2.32 2.66 3 3 C0.25 8.875 0.25 8.875 -2 10 C-2.33 10.99 -2.66 11.98 -3 13 C-3.99 13 -4.98 13 -6 13 C-5.55965442 8.15619865 -4.57065045 6.23590197 -1 3 C-0.67 2.01 -0.34 1.02 0 0 Z " fill="#D2FDFD" transform="translate(18,46)"/>
<path d="M0 0 C0.33 0 0.66 0 1 0 C1.7951559 8.08408501 -0.40434572 13.33272955 -5 20 C-5.66 20.33 -6.32 20.66 -7 21 C-5.375 13.25 -5.375 13.25 -2 11 C-1.19907746 8.35308332 -1.19907746 8.35308332 -0.8125 5.375 C-0.65394531 4.37210937 -0.49539063 3.36921875 -0.33203125 2.3359375 C-0.22246094 1.56507812 -0.11289062 0.79421875 0 0 Z M-9 21 C-8.34 21.33 -7.68 21.66 -7 22 C-8.65 23.32 -10.3 24.64 -12 26 C-12.66 25.67 -13.32 25.34 -14 25 C-12.35 23.68 -10.7 22.36 -9 21 Z " fill="#E8F4F4" transform="translate(692,121)"/>
<path d="M0 0 C-2.59496088 2.28967137 -4.51468355 3.86284535 -7.875 4.8125 C-12.29656923 6.49269631 -14.87218883 9.53904918 -18 13 C-18 8.6922468 -15.95652565 6.99072638 -13.1484375 3.87890625 C-9.75408931 0.91039447 -4.38280552 -2.19140276 0 0 Z " fill="#EEF7F7" transform="translate(84,99)"/>
<path d="M0 0 C0.33 0 0.66 0 1 0 C1.13558695 3.04317386 1.23437239 6.08025562 1.3125 9.125 C1.35439453 9.9809375 1.39628906 10.836875 1.43945312 11.71875 C1.52327371 16.07742021 1.48615974 19.00840412 -1.39453125 22.4296875 C-2.25433594 23.27789062 -3.11414063 24.12609375 -4 25 C-4.66 25.99 -5.32 26.98 -6 28 C-6.3125 25.875 -6.3125 25.875 -6 23 C-5.1853125 22.13375 -4.370625 21.2675 -3.53125 20.375 C-0.22804701 16.57529073 -0.22467663 12.99926972 -0.1875 8.125 C-0.16236328 7.34125 -0.13722656 6.5575 -0.11132812 5.75 C-0.05290936 3.83386445 -0.02348074 1.91688207 0 0 Z " fill="#EBF5F5" transform="translate(692,238)"/>
<path d="M0 0 C3 1 3 1 5 4 C4.67 4.99 4.34 5.98 4 7 C1.37812506 5.95125002 0.20628639 5.35068687 -1.25 2.875 C-1.4975 2.25625 -1.745 1.6375 -2 1 C-1.34 0.67 -0.68 0.34 0 0 Z " fill="#BCFBFB" transform="translate(29,453)"/>
<path d="M0 0 C1.9375 0.3125 1.9375 0.3125 4 1 C4.33 1.99 4.66 2.98 5 4 C7.00016466 5.20882096 7.00016466 5.20882096 9 6 C8.34 6.66 7.68 7.32 7 8 C7.33 8.66 7.66 9.32 8 10 C6.125 9.375 6.125 9.375 4 8 C2.875 5 2.875 5 2 2 C1.34 1.34 0.68 0.68 0 0 Z " fill="#F9FFFF" transform="translate(21,447)"/>
<path d="M0 0 C0.99 0.33 1.98 0.66 3 1 C3.94921875 3.28515625 3.94921875 3.28515625 4.6875 6.0625 C4.93886719 6.98160156 5.19023438 7.90070313 5.44921875 8.84765625 C5.63097656 9.55792969 5.81273438 10.26820313 6 11 C3 10 3 10 1.3125 7.75 C-0.06511203 4.8635748 -0.26985151 3.14826764 0 0 Z " fill="#EAF5F5" transform="translate(64,375)"/>
<path d="M0 0 C0.66 0 1.32 0 2 0 C2 0.66 2 1.32 2 2 C2.99 2.33 3.98 2.66 5 3 C5.6875 5.0625 5.6875 5.0625 6 7 C4.35 6.67 2.7 6.34 1 6 C0.67 4.02 0.34 2.04 0 0 Z " fill="#A8FFFF" transform="translate(19,446)"/>
<path d="M0 0 C1.32 0.33 2.64 0.66 4 1 C4 2.65 4 4.3 4 6 C3.01 5.67 2.02 5.34 1 5 C0.67 3.35 0.34 1.7 0 0 Z " fill="#CBF1F1" transform="translate(742,49)"/>
<path d="M0 0 C1.32 0 2.64 0 4 0 C3.1875 1.9375 3.1875 1.9375 2 4 C1.01 4.33 0.02 4.66 -1 5 C-0.67 3.35 -0.34 1.7 0 0 Z " fill="#9CFFFF" transform="translate(20,43)"/>
<path d="M0 0 C1.98 0.99 1.98 0.99 4 2 C4.33 1.34 4.66 0.68 5 0 C5.625 2.375 5.625 2.375 6 5 C5.34 5.66 4.68 6.32 4 7 C3.896875 6.360625 3.79375 5.72125 3.6875 5.0625 C3.460625 4.381875 3.23375 3.70125 3 3 C2.01 2.67 1.02 2.34 0 2 C0 1.34 0 0.68 0 0 Z " fill="#FFFFFF" transform="translate(14,441)"/>
<path d="M0 0 C0.99 0 1.98 0 3 0 C3 0.99 3 1.98 3 3 C2.01 3 1.02 3 0 3 C0 2.01 0 1.02 0 0 Z " fill="#FFFFFF" transform="translate(723,36)"/>
<path d="M0 0 C0.99 0 1.98 0 3 0 C3 0.99 3 1.98 3 3 C2.01 3 1.02 3 0 3 C0 2.01 0 1.02 0 0 Z " fill="#FFFFFF" transform="translate(34,36)"/>
</svg>
