<?xml version="1.0" encoding="UTF-8"?>
<svg version="1.1" xmlns="http://www.w3.org/2000/svg" width="705" height="695">
<path d="M0 0 C1.27082428 -0.00671722 2.54164856 -0.01343445 3.85098267 -0.02035522 C7.32228988 -0.03795006 10.79349835 -0.04270789 14.26484585 -0.0439868 C16.43875326 -0.0454129 18.61263593 -0.0496912 20.78653717 -0.05498123 C28.38537679 -0.07346145 35.98414646 -0.08165455 43.58300781 -0.08007812 C50.64206162 -0.07887795 57.70080907 -0.09996089 64.75978541 -0.13156545 C70.8398928 -0.1578075 76.91990063 -0.16844208 83.00006413 -0.16716731 C86.62273909 -0.1666599 90.24514167 -0.17221885 93.8677597 -0.19352341 C97.91465328 -0.21667514 101.96087043 -0.20733675 106.0078125 -0.1953125 C107.19156464 -0.20655151 108.37531677 -0.21779053 109.59494019 -0.22937012 C118.38820157 -0.16325179 126.07213479 1.33279587 133.35644531 6.47412109 C137.40340592 9.00347147 141.073684 9.07956245 145.76269531 9.35302734 C156.36993235 10.02113481 156.36993235 10.02113481 161.26269531 13.29052734 C161.55660156 13.98146484 161.85050781 14.67240234 162.15332031 15.38427734 C162.51941406 16.01333984 162.88550781 16.64240234 163.26269531 17.29052734 C165.91361757 17.98000488 168.31626796 18.44743354 171.01269531 18.79052734 C176.82872688 19.54682449 180.42327228 20.71595351 185.26269531 24.29052734 C186.65710813 25.00256793 188.07303021 25.67509799 189.51269531 26.29052734 C190.27582031 26.62052734 191.03894531 26.95052734 191.82519531 27.29052734 C193.50383485 27.97919998 195.19214703 28.64460419 196.88769531 29.29052734 C201.7363032 31.13761606 205.22939073 32.98114922 209.26269531 36.29052734 C211.53939893 37.36597558 213.83719342 38.33294724 216.17675781 39.26318359 C218.37835642 40.34749152 219.7157318 41.39377271 221.26269531 43.29052734 C221.26269531 43.95052734 221.26269531 44.61052734 221.26269531 45.29052734 C221.99875 45.46068359 222.73480469 45.63083984 223.49316406 45.80615234 C230.24049325 47.48184308 234.32256212 49.25555114 239.20019531 54.29052734 C241.28402298 56.43516827 241.28402298 56.43516827 244.20019531 58.22802734 C247.32012508 60.32920454 249.64018271 62.60405102 252.26269531 65.29052734 C254.12649479 66.86968799 256.00722953 68.42310403 257.90722656 69.95849609 C258.35453125 70.39806641 258.80183594 70.83763672 259.26269531 71.29052734 C259.26269531 71.95052734 259.26269531 72.61052734 259.26269531 73.29052734 C259.96394531 73.47615234 260.66519531 73.66177734 261.38769531 73.85302734 C264.8166925 75.56752594 266.41710119 77.61395516 268.78613281 80.56005859 C270.32572356 82.47954096 270.32572356 82.47954096 272.88769531 84.35302734 C275.26269531 86.29052734 275.26269531 86.29052734 277.20019531 89.22802734 C278.9316925 91.79903831 280.04584457 93.07266659 282.38769531 94.91552734 C285.26269531 97.29052734 285.26269531 97.29052734 286.22363281 99.25146484 C287.42053206 101.60026712 288.69567488 102.67895209 290.76269531 104.29052734 C293.52026353 106.44049578 294.71799864 108.18892296 296.26269531 111.29052734 C297.80450105 112.74981281 297.80450105 112.74981281 299.57519531 114.04052734 C302.96713127 116.81318869 304.96760666 119.71129981 307.14160156 123.48193359 C308.26824328 125.46302437 308.26824328 125.46302437 310.38769531 127.35302734 C313.62689248 130.70019775 315.26269531 134.65216175 315.26269531 139.29052734 C315.84019531 139.49677734 316.41769531 139.70302734 317.01269531 139.91552734 C320.93589321 142.31303717 322.72073385 146.18304087 324.70019531 150.22802734 C325.93482383 152.64789923 327.059505 154.37714341 328.70019531 156.47802734 C331.46950736 160.19799875 332.74343435 164.13297539 334.07519531 168.54443359 C335.32303149 171.43005476 336.99973575 173.32969512 339.05908203 175.67260742 C341.10077073 178.41708431 341.92228397 181.60319844 342.82519531 184.85302734 C343.87295755 188.56647444 344.75801692 191.69170702 347.29394531 194.70068359 C350.42981622 198.82584711 350.75132178 203.49882053 351.59667969 208.52099609 C352.54991797 213.5181483 353.9821134 216.56851706 357.09204102 220.56347656 C360.55742068 225.67590529 360.49707039 232.25178725 360.8449707 238.20898438 C361.37751885 247.19951338 362.18944359 254.24805384 366.92285156 262.04833984 C369.7067548 266.7071167 369.42211521 271.53603242 369.43969727 276.83178711 C369.44955406 278.12289146 369.44955406 278.12289146 369.45960999 279.44007874 C369.47931066 282.28736465 369.49100081 285.13459779 369.50097656 287.98193359 C369.50505209 288.95746626 369.50912762 289.93299892 369.51332664 290.93809319 C369.53417749 296.10545514 369.5484813 301.27279064 369.55786133 306.44018555 C369.56890028 311.75721441 369.60327406 317.07382186 369.64303303 322.39070225 C369.66928207 326.49589269 369.6775607 330.60098418 369.68114281 334.70625114 C369.68599039 336.66490449 369.69755174 338.62355396 369.7161808 340.58212471 C369.82312792 352.57519277 369.14794127 361.75780511 363.56323242 372.58544922 C362.07236625 375.68640609 361.7264597 378.1508137 361.45410156 381.57177734 C361.34646484 382.74353516 361.23882813 383.91529297 361.12792969 385.12255859 C360.92613295 387.56755395 360.72821478 390.01287253 360.53417969 392.45849609 C359.93682039 398.88452683 359.41849781 403.13267154 355.26269531 408.29052734 C352.83051481 413.21754405 351.70918405 417.83443138 350.95019531 423.22802734 C350.0101244 429.06828429 348.65887193 432.84105846 344.66894531 437.23193359 C342.76858081 440.01385607 342.38566867 442.61895998 341.76269531 445.91552734 C340.7520687 451.16116069 339.75268814 453.39777454 335.67675781 456.70068359 C333.17115354 459.51775801 332.80417262 463.13227854 331.97363281 466.72802734 C330.67983575 471.3913838 328.18139258 473.6780625 324.26269531 476.29052734 C323.21449719 478.23356281 323.21449719 478.23356281 322.38769531 480.47802734 C320.80546966 484.25845962 318.95940954 487.28302611 316.48535156 490.52880859 C315.14706251 492.45714202 314.18823106 494.41334449 313.20019531 496.54052734 C311.70454825 499.66503699 310.41226121 501.61075887 307.26269531 503.29052734 C306.60269531 503.29052734 305.94269531 503.29052734 305.26269531 503.29052734 C305.05644531 504.17740234 304.85019531 505.06427734 304.63769531 505.97802734 C303.22509787 509.38110301 301.90335757 510.74305395 298.89550781 512.82177734 C297.06522644 514.34302292 297.06522644 514.34302292 295.49707031 516.97802734 C292.80410507 520.97039539 289.70323055 524.31230303 286.38769531 527.79052734 C285.40337524 528.83067993 285.40337524 528.83067993 284.39916992 529.8918457 C262.11911569 553.32979043 262.11911569 553.32979043 250.84863281 561.10693359 C249.01186562 562.41855702 249.01186562 562.41855702 246.70019531 564.85302734 C244.08318071 567.47004195 241.34767192 569.25444279 238.26269531 571.29052734 C237.1494332 572.28039173 236.04569914 573.28104461 234.95019531 574.29052734 C231.68751459 577.1706371 228.38749607 578.66729466 224.38378906 580.29443359 C221.97360313 581.31716051 221.97360313 581.31716051 219.26269531 583.79052734 C216.13898655 586.39361798 213.39946346 587.65467446 209.68847656 589.18896484 C207.04447017 590.38962475 204.66332213 591.81688374 202.20019531 593.35302734 C198.56854293 595.60172851 195.13410832 597.15992792 191.10253906 598.51708984 C188.9160596 599.34192532 188.9160596 599.34192532 186.13769531 601.72802734 C180.59174197 605.98422409 172.20015102 608.29052734 165.26269531 608.29052734 C165.07707031 608.88865234 164.89144531 609.48677734 164.70019531 610.10302734 C162.6289281 613.25495571 159.73254188 614.16611393 156.26269531 615.29052734 C152.88157087 615.93259695 149.47433647 616.18059798 146.04785156 616.46240234 C141.70606683 616.89409031 138.81538822 617.75472842 135.26269531 620.29052734 C127.11867046 625.86275488 116.54482313 624.58482978 107.04199219 624.80810547 C98.26791407 625.07831241 89.70609141 625.50225875 81.88769531 629.85302734 C76.04298586 633.0609542 71.26035463 633.4587079 64.62207031 633.49365234 C63.78105774 633.49935242 62.94004517 633.50505249 62.07354736 633.51092529 C60.29497529 633.52035927 58.51638587 633.5269029 56.73779297 633.53076172 C54.0361423 633.54044332 51.33526058 633.57147155 48.63378906 633.60302734 C46.90072063 633.60956057 45.1676468 633.61480979 43.43457031 633.61865234 C42.63533142 633.63099915 41.83609253 633.64334595 41.01263428 633.65606689 C33.01688881 633.62479334 26.73818459 630.62261852 19.63378906 627.15771484 C11.39540103 624.14466354 1.85724851 624.96485075 -6.77832031 624.77294922 C-22.88281869 624.2990245 -22.88281869 624.2990245 -28.17480469 619.79052734 C-32.91857304 616.55571115 -37.94322264 616.52115836 -43.50073242 616.02661133 C-49.05066349 615.49146354 -53.06070689 614.50568833 -57.73730469 611.29052734 C-58.06730469 610.30052734 -58.39730469 609.31052734 -58.73730469 608.29052734 C-61.35947302 607.57840798 -63.88543373 607.02924634 -66.54980469 606.54052734 C-73.57019584 605.08960245 -78.94318256 602.87243775 -85.01855469 598.95849609 C-87.68823961 597.32062905 -90.2451197 596.19304249 -93.17480469 595.10302734 C-97.01560509 593.66653147 -99.55998033 591.91181994 -102.73730469 589.29052734 C-105.24203111 588.0032049 -107.77279418 586.80284647 -110.33496094 585.63427734 C-112.73730469 584.29052734 -112.73730469 584.29052734 -114.67089844 582.28662109 C-117.87148988 579.19493446 -121.73073705 578.21413348 -125.86230469 576.73193359 C-129.18160898 575.06777152 -130.53004001 573.22894845 -132.73730469 570.29052734 C-134.69057844 568.86127014 -134.69057844 568.86127014 -136.73730469 567.79052734 C-140.24977373 565.72322545 -142.24136942 563.5352432 -144.73730469 560.29052734 C-146.16933382 559.35388039 -147.60194267 558.41809773 -149.03857422 557.48852539 C-152.16096424 555.28651794 -154.8530781 552.61055863 -157.61230469 549.97802734 C-158.85095712 548.8090714 -160.09053346 547.64109364 -161.33105469 546.47412109 C-162.21470703 545.64243408 -162.21470703 545.64243408 -163.11621094 544.79394531 C-165.06725042 542.98453249 -167.07825493 541.25574787 -169.11230469 539.54052734 C-172.72892875 536.42728779 -175.81696348 532.94546039 -178.93652344 529.34130859 C-180.79559434 527.17078901 -180.79559434 527.17078901 -183.23730469 524.85302734 C-187.06269137 520.93200599 -190.34586437 516.58681223 -193.73730469 512.29052734 C-197.28488454 507.8727864 -201.00109126 503.69169423 -205.26855469 499.94677734 C-207.07223881 497.91283567 -207.7228377 496.04016456 -208.61230469 493.47802734 C-209.82914454 490.26872834 -210.94020529 487.72334048 -213.23730469 485.16552734 C-215.76299012 482.2609891 -217.10085888 479.65580626 -218.70605469 476.21240234 C-219.78565245 474.0136967 -219.78565245 474.0136967 -222.23730469 471.54052734 C-225.43455303 468.00210921 -226.33842087 463.71808853 -227.54980469 459.19287109 C-228.57974062 456.11772257 -228.57974062 456.11772257 -231.23730469 453.88427734 C-234.35664379 450.64796303 -234.82314129 448.21727857 -235.73730469 443.85302734 C-236.94895823 437.98397732 -236.94895823 437.98397732 -240.29980469 433.16552734 C-244.65528556 428.02829349 -245.04296408 421.11500022 -246.22167969 414.62255859 C-247.17176483 409.73289626 -248.41285123 407.13442665 -251.73730469 403.29052734 C-254.4562539 397.00606964 -254.42827999 390.26131266 -254.86035156 383.52099609 C-255.50745771 375.02116937 -258.04090293 368.44115254 -261.87011719 360.85693359 C-264.82024116 352.1261613 -263.90086087 342.19452429 -263.90527344 333.08349609 C-263.90849419 331.5108487 -263.91185886 329.9382016 -263.9153595 328.36555481 C-263.92132091 325.08004055 -263.92320248 321.79455248 -263.92260742 318.5090332 C-263.92250595 314.3301843 -263.93615657 310.15150585 -263.95337963 305.97269726 C-263.96457974 302.72702791 -263.96652419 299.48139874 -263.9659977 296.23571205 C-263.96716584 294.6965711 -263.97152081 293.1574287 -263.97933006 291.61830711 C-264.08613269 268.39719805 -264.08613269 268.39719805 -258.73730469 259.47802734 C-255.18997293 252.41755498 -254.82956982 245.51805506 -254.58300781 237.68774414 C-254.2952125 231.42765913 -253.04524957 226.98924448 -249.96289062 221.51367188 C-247.04609232 216.22276244 -245.76698545 210.72707607 -244.92480469 204.79052734 C-244.26660042 200.81387654 -243.33225342 198.32728904 -240.92480469 195.10302734 C-237.45555199 190.45490237 -236.06814302 185.59947626 -234.65014648 180.04956055 C-233.29851663 175.08586895 -231.15258981 172.22714882 -227.73730469 168.29052734 C-226.25956148 165.29450323 -226.25956148 165.29450323 -225.17480469 162.22802734 C-223.55758895 157.88001133 -221.69166221 154.85572618 -218.73730469 151.29052734 C-217.67252209 149.34024772 -217.67252209 149.34024772 -216.86230469 147.41552734 C-215.12232034 143.76497196 -212.95281131 141.12220592 -210.24902344 138.14599609 C-208.03859072 135.43293269 -206.51840846 132.43246855 -204.88574219 129.34912109 C-203.43717683 126.75254305 -201.621009 124.58629197 -199.73730469 122.29052734 C-198.91404223 120.94287659 -198.10235575 119.58811388 -197.29980469 118.22802734 C-195.20035635 114.78261366 -192.94649293 112.75913368 -189.73730469 110.29052734 C-188.38321148 108.30452398 -187.05272845 106.30235192 -185.73730469 104.29052734 C-184.06096824 102.2654793 -182.32568407 100.30469627 -180.57324219 98.34521484 C-179.41725225 97.05148993 -178.2745202 95.7456727 -177.15136719 94.42333984 C-169.53216084 85.46612652 -161.35965223 77.08022876 -151.73730469 70.29052734 C-147.245741 66.76982422 -143.08426323 62.94361092 -139.29980469 58.66552734 C-137.73730469 57.29052734 -137.73730469 57.29052734 -134.79980469 55.91552734 C-131.62973761 54.53401114 -131.62973761 54.53401114 -130.04980469 51.85302734 C-126.47807976 47.89516999 -121.78400545 46.72443121 -116.73730469 45.29052734 C-116.07730469 45.29052734 -115.41730469 45.29052734 -114.73730469 45.29052734 C-114.36605469 44.39333984 -114.36605469 44.39333984 -113.98730469 43.47802734 C-111.53684006 39.18971424 -107.91396003 37.85624738 -103.36230469 36.41552734 C-99.7521423 35.16933163 -97.75224871 34.30324566 -94.79980469 31.79052734 C-90.95758191 28.65401895 -87.23750238 27.74296792 -82.53808594 26.32568359 C-79.53335963 25.21515016 -77.88451842 23.68194221 -75.63183594 21.44287109 C-71.74115983 19.07637738 -66.65085256 18.86362366 -62.19824219 18.25927734 C-58.06220301 17.10155983 -57.16102304 15.71971838 -54.73730469 12.29052734 C-51.83026614 10.48492302 -49.49596131 10.018468 -46.10449219 9.86865234 C-45.22035645 9.81580078 -44.3362207 9.76294922 -43.42529297 9.70849609 C-42.49700684 9.65306641 -41.5687207 9.59763672 -40.61230469 9.54052734 C-33.37220151 8.99884304 -27.7552221 8.34379591 -21.87011719 3.72802734 C-15.33438635 -0.67700736 -7.56022425 -0.00574937 0 0 Z M28.70019531 104.41552734 C22.8617915 108.9066072 13.40761166 107.58856603 6.31738281 107.72021484 C-0.65074391 107.9480555 -4.8704297 109.20624238 -10.58496094 113.36083984 C-14.41864793 115.70760735 -17.80791458 116.3670103 -22.17480469 117.16552734 C-27.99991985 118.36648053 -31.80067439 119.38547182 -35.92871094 123.84912109 C-39.29851058 126.53477135 -43.62093906 127.16316014 -47.74902344 128.13818359 C-51.35044968 129.52696888 -52.48005766 131.22985341 -54.73730469 134.29052734 C-56.63183594 135.44287109 -56.63183594 135.44287109 -58.54980469 136.22802734 C-61.55412673 137.59968639 -63.79827293 139.0635853 -66.23730469 141.29052734 C-68.60944783 143.44751011 -70.75665791 144.90263124 -73.67480469 146.22802734 C-80.45243744 149.38041467 -85.58456285 154.99465379 -90.73730469 160.29052734 C-92.07063802 161.62386068 -93.40397135 162.95719401 -94.73730469 164.29052734 C-95.45917969 165.03302734 -96.18105469 165.77552734 -96.92480469 166.54052734 C-99.30260116 168.86548389 -101.73089593 171.04583066 -104.23730469 173.22802734 C-107.80879849 176.37307412 -110.78051793 179.57342399 -113.73730469 183.29052734 C-114.37925781 183.90412109 -115.02121094 184.51771484 -115.68261719 185.14990234 C-117.83814423 187.39558451 -119.25795113 189.59331151 -120.79980469 192.29052734 C-122.210672 194.74551132 -123.57391657 197.07865248 -125.30371094 199.32177734 C-126.82867088 201.41600026 -127.67964424 203.38046673 -128.61230469 205.79052734 C-129.9432405 208.94703794 -130.43949112 210.07987872 -133.29980469 212.10302734 C-136.8490538 215.28825091 -137.00918705 218.87401333 -137.98730469 223.43115234 C-138.87773333 226.82591156 -140.17616841 228.89462567 -142.73730469 231.29052734 C-143.39730469 231.62052734 -144.05730469 231.95052734 -144.73730469 232.29052734 C-145.82975103 236.38720112 -146.62507528 240.35824541 -147.13183594 244.56787109 C-148.34962173 254.50363743 -148.34962173 254.50363743 -151.23730469 257.60302734 C-156.29251907 263.0373828 -156.03336795 270.43911606 -156.01196289 277.5012207 C-156.01707382 278.38526077 -156.02218475 279.26930084 -156.02745056 280.18013 C-156.04126395 283.0802807 -156.04039615 285.98019157 -156.03808594 288.88037109 C-156.04197713 290.91004015 -156.04631267 292.9397084 -156.05107117 294.96937561 C-156.05851544 299.21504359 -156.05825491 303.46062838 -156.05297852 307.70629883 C-156.04718347 313.13096877 -156.06412461 318.55529732 -156.08732319 323.97991085 C-156.10209605 328.16909252 -156.10292744 332.3581926 -156.09981346 336.54739571 C-156.10032479 338.54675536 -156.10552696 340.54611981 -156.11562538 342.54545403 C-156.12804281 345.34733798 -156.12116666 348.14856502 -156.10961914 350.95043945 C-156.11726288 351.76578156 -156.12490662 352.58112366 -156.13278198 353.4211731 C-156.06957283 360.40426403 -154.64143835 366.54207467 -150.63183594 372.32958984 C-148.2138387 376.10864532 -147.9204983 379.2841573 -147.42480469 383.66552734 C-146.50668376 390.18294147 -145.31776557 393.76101218 -140.37011719 398.32568359 C-137.63008389 401.6229007 -137.31135335 405.55993793 -136.47558594 409.67724609 C-135.48484988 413.1841372 -133.59423271 414.13041103 -130.73730469 416.29052734 C-129.09860794 419.8619063 -127.90464531 423.54244839 -126.73730469 427.29052734 C-125.58002017 430.7623809 -124.01538191 431.69645119 -121.21777344 433.89599609 C-119.0203992 435.96581827 -118.07676537 438.61160598 -116.73730469 441.29052734 C-115.97417969 441.72365234 -115.21105469 442.15677734 -114.42480469 442.60302734 C-111.58847755 444.38397694 -110.74106892 445.57420978 -108.98730469 448.35302734 C-105.49101561 453.89107696 -101.22129643 458.53883461 -96.73730469 463.29052734 C-95.89167969 464.19802734 -95.04605469 465.10552734 -94.17480469 466.04052734 C-91.47734867 468.53048674 -88.61743265 470.64818254 -85.65527344 472.81005859 C-83.1312821 474.7583126 -80.98946995 477.03836209 -78.73730469 479.29052734 C-77.46886719 480.03302734 -77.46886719 480.03302734 -76.17480469 480.79052734 C-73.73730469 482.29052734 -73.73730469 482.29052734 -71.98730469 484.66552734 C-69.29049321 487.8118074 -66.53279155 489.21251469 -62.89355469 491.10302734 C-60.73730469 492.29052734 -60.73730469 492.29052734 -58.29980469 494.35302734 C-55.15117963 496.73369507 -51.9598855 497.8173166 -48.23730469 499.06787109 C-45.73730469 500.29052734 -45.73730469 500.29052734 -43.34277344 502.79833984 C-40.26495838 505.74233686 -38.16838784 506.30100023 -34.04980469 507.22802734 C-28.23384639 508.71867212 -23.71411146 510.70928587 -18.72558594 514.02099609 C-15.33561192 516.18551782 -12.12465286 516.49763419 -8.18969727 516.88598633 C0.04385444 517.72108359 5.75674813 519.17102545 12.70019531 523.97802734 C19.74321557 527.58542796 29.49446577 526.45111845 37.22363281 526.45849609 C38.44998444 526.46182449 39.67633606 526.46515289 40.93984985 526.46858215 C43.52337267 526.47362477 46.10690195 526.47599131 48.69042969 526.47583008 C52.6182743 526.47801653 56.54583777 526.49620107 60.47363281 526.51513672 C62.99446519 526.5180713 65.5152989 526.52005566 68.03613281 526.52099609 C69.1979306 526.52818161 70.35972839 526.53536713 71.55673218 526.54277039 C81.41798424 526.51546962 90.06243942 526.13039104 98.32910156 520.45849609 C102.77511228 517.77292598 107.92413207 517.45311722 112.99316406 516.83740234 C113.65501709 516.75643311 114.31687012 516.67546387 114.9987793 516.59204102 C116.93389151 516.36237986 118.87172721 516.15603117 120.80957031 515.95068359 C125.42166175 515.06896023 128.17838371 513.13681933 131.82519531 510.29052734 C135.95190983 507.8895298 139.79078297 507.14355974 144.45800781 506.29443359 C147.44314 505.5048117 147.44314 505.5048117 149.19628906 502.84912109 C151.87406448 499.53353906 154.15427802 498.99955279 158.20019531 497.79052734 C163.62427806 496.1662031 166.42591637 494.4403768 170.26269531 490.29052734 C171.27332031 489.81615234 172.28394531 489.34177734 173.32519531 488.85302734 C176.47712308 487.48519784 176.47712308 487.48519784 178.13769531 484.35302734 C180.6114147 480.78796117 182.53634973 479.99564595 186.37988281 478.28662109 C189.07862091 476.85886546 190.45006744 474.7073645 192.26269531 472.29052734 C193.65002994 471.39866937 195.03836999 470.50828493 196.43457031 469.63037109 C204.26725234 463.88975157 210.38651965 455.92442367 216.26269531 448.29052734 C218.18785195 445.84293043 220.026109 443.51972034 222.26269531 441.35302734 C224.41542154 439.25753094 224.41542154 439.25753094 226.26269531 436.29052734 C228.26269531 433.29052734 228.26269531 433.29052734 230.23535156 431.47412109 C232.6203878 428.90526704 233.50415915 426.63488437 234.70019531 423.35302734 C236.9645074 417.57416951 236.9645074 417.57416951 239.82519531 414.85302734 C243.29848475 411.2016205 243.90813271 407.14064942 245.22753906 402.34912109 C246.26269531 399.29052734 246.26269531 399.29052734 248.82519531 396.41552734 C251.9236121 392.44319812 252.34976349 388.64859343 253.16918945 383.83032227 C254.06308775 378.76280465 255.39306625 375.50529503 258.26269531 371.29052734 C262.56692735 363.95739127 262.41308429 356.05231219 262.40795898 347.74829102 C262.4113176 346.94695236 262.41467621 346.14561371 262.4181366 345.31999207 C262.42755072 342.69947716 262.42958483 340.0790268 262.43066406 337.45849609 C262.43388314 335.61680577 262.43724769 333.77511571 262.44075012 331.9334259 C262.44671747 328.08297127 262.44859248 324.232539 262.44799805 320.38208008 C262.44789653 315.47683171 262.4615485 310.57172844 262.47877026 305.6665144 C262.48995254 301.86496843 262.49191535 298.06345686 262.49138832 294.26189613 C262.49255907 292.45481173 262.49692928 290.64772617 262.50472069 288.84065819 C263.54564501 271.64820994 263.54564501 271.64820994 257.32519531 256.66552734 C253.7455647 252.58561101 253.43238197 248.43057757 252.76269531 243.22802734 C251.97017368 237.1467609 251.47127904 233.33790721 246.73925781 229.13037109 C243.89052482 225.58075935 243.36615799 220.86513458 242.41503906 216.49755859 C241.04260071 212.67799286 239.42705311 211.71262837 236.26269531 209.29052734 C234.89160156 206.52099609 234.89160156 206.52099609 233.82519531 203.47802734 C231.99889993 198.73657278 230.08928889 195.45628002 226.59863281 191.80615234 C225.26269531 190.29052734 225.26269531 190.29052734 223.76269531 187.16552734 C221.88778158 183.57194269 219.38703978 181.82905722 216.26269531 179.29052734 C215.74707031 178.42427734 215.23144531 177.55802734 214.70019531 176.66552734 C213.41702904 174.12208465 213.41702904 174.12208465 210.82519531 172.85302734 C208.26269531 171.29052734 208.26269531 171.29052734 206.32519531 168.35302734 C204.00859141 164.91322155 201.7144225 163.51976782 198.26269531 161.29052734 C197.64394531 160.48615234 197.02519531 159.68177734 196.38769531 158.85302734 C193.93434867 155.89457992 191.41229944 154.40513363 188.13378906 152.47412109 C186.26269531 151.29052734 186.26269531 151.29052734 184.32519531 149.29052734 C182.25903418 147.28697715 180.47932844 146.25247651 177.95019531 144.91552734 C174.10927512 142.87543203 171.09091087 140.53805319 167.87988281 137.63037109 C165.57214722 135.71840658 162.94581902 134.60354533 160.26269531 133.29052734 C159.37582031 132.46552734 158.48894531 131.64052734 157.57519531 130.79052734 C154.15473648 127.74107066 150.3699841 127.15382618 145.94628906 126.35693359 C142.77741563 125.09768694 141.76482845 123.35058285 139.74291992 120.70532227 C136.88817157 117.97676104 133.10450279 117.75170565 129.32519531 117.16552734 C123.31204947 116.16909136 119.24774865 115.04881791 114.26269531 111.29052734 C110.5648662 108.73291736 108.10989025 107.91728705 103.62207031 107.88427734 C102.55085938 107.86236328 101.47964844 107.84044922 100.37597656 107.81787109 C99.26609375 107.80884766 98.15621094 107.79982422 97.01269531 107.79052734 C81.47273841 107.66240049 81.47273841 107.66240049 75.26269531 104.29052734 C74.27269531 102.80552734 74.27269531 102.80552734 73.26269531 101.29052734 C66.57635706 98.45073311 59.413322 98.95952158 52.26269531 98.97802734 C51.01746094 98.96191406 49.77222656 98.94580078 48.48925781 98.92919922 C40.53062415 98.92495688 34.98268629 99.20565677 28.70019531 104.41552734 Z " fill="#FBFDFD" transform="translate(295.7373046875,29.70947265625)"/>
<path d="M0 0 C0.85486496 -0.00637985 1.70972992 -0.0127597 2.59049988 -0.01933289 C3.51236588 -0.02044571 4.43423187 -0.02155853 5.3840332 -0.02270508 C6.81414482 -0.02769768 6.81414482 -0.02769768 8.27314758 -0.03279114 C10.29309609 -0.0378562 12.31305296 -0.04019959 14.33300781 -0.04003906 C17.40549779 -0.04221556 20.47762286 -0.06034813 23.55004883 -0.0793457 C25.5155424 -0.0822818 27.48103767 -0.08426515 29.4465332 -0.08520508 C30.81415047 -0.09598335 30.81415047 -0.09598335 32.20939636 -0.10697937 C40.42452859 -0.07794862 46.23070282 0.86152451 52.74731445 6.14526367 C56.26570281 7.26122331 56.26570281 7.26122331 60.05981445 8.02026367 C65.59529565 9.32225901 69.55498375 10.95694753 73.8527832 14.71166992 C76.09222174 16.40625537 78.22341531 17.16840293 80.87231445 18.08276367 C85.37070401 19.72667056 87.53527017 21.70000137 90.38012695 25.48510742 C91.84486441 27.42953709 91.84486441 27.42953709 94.87231445 29.20776367 C98.19942472 31.44994668 99.58756327 33.80113281 101.74731445 37.14526367 C102.56071289 37.7459668 103.37411133 38.34666992 104.2121582 38.96557617 C107.15885561 41.49910029 107.95431217 43.39062155 109.24731445 47.02026367 C110.68693836 50.79135396 111.58985555 52.9765577 114.37231445 55.95776367 C117.35607493 59.96228431 117.78819464 63.74978243 118.58154297 68.53710938 C119.40825689 73.2114227 120.63929794 76.52199034 123.5637207 80.23901367 C127.40775055 86.43005845 127.11321348 93.47611229 127.12231445 100.52026367 C127.14680664 101.51026367 127.17129883 102.50026367 127.1965332 103.52026367 C127.23037533 112.07104064 124.63794486 117.76194643 120.55981445 125.08276367 C118.94321494 128.20985384 118.47271486 130.76345275 118.24731445 134.27026367 C117.94869273 138.89890045 116.76077295 141.51138725 113.74731445 145.14526367 C113.2368457 145.59385742 112.72637695 146.04245117 112.20043945 146.50463867 C110.36782891 148.5737151 110.00560526 150.28067073 109.37231445 152.95776367 C107.8063951 158.61155672 105.40486382 161.59401628 101.18481445 165.64526367 C99.54065445 167.26825085 99.54065445 167.26825085 97.87231445 170.02026367 C95.75074704 173.14021575 93.40725388 175.48532424 90.74731445 178.14526367 C89.38368237 180.12472959 88.05312801 182.12718817 86.74731445 184.14526367 C85.77609704 185.44291805 84.79636342 186.73422663 83.80981445 188.02026367 C81.74694802 190.73264724 79.88414082 193.47876341 78.12231445 196.39526367 C76.28106702 199.42100786 74.25473967 201.63783845 71.74731445 204.14526367 C70.40568872 206.15143299 69.15357165 208.19730307 67.91137695 210.26635742 C66.74731445 212.14526367 66.74731445 212.14526367 65.05981445 214.20776367 C61.20151969 219.90334166 61.45323688 226.72045428 61.30981445 233.33276367 C60.7152898 250.73433389 60.7152898 250.73433389 56.6652832 258.11791992 C54.50057921 262.89869172 55.12495609 269.27818857 56.74731445 274.14526367 C59.60972594 282.73249814 57.38770237 290.23618915 54.55981445 298.52026367 C54.26856689 299.3886084 53.97731934 300.25695312 53.67724609 301.15161133 C50.04822759 311.18518087 42.66933135 315.80402939 33.74731445 321.14526367 C27.34790453 324.05408636 20.49731913 323.77892817 13.74731445 322.14526367 C4.91596859 318.2679735 -3.99850466 311.71215388 -8.33862305 302.95385742 C-9.56917605 299.17279926 -10.06888006 295.3860889 -10.62768555 291.45776367 C-11.40454685 286.29928104 -12.19337813 281.65087373 -14.44018555 276.89526367 C-18.95329107 266.6620593 -16.20077021 256.45245048 -12.4440918 246.52026367 C-10.6164562 241.34296152 -10.13129444 236.40024856 -10.0065918 230.93432617 C-9.95728516 229.19022461 -9.95728516 229.19022461 -9.90698242 227.41088867 C-9.84598378 224.99170847 -9.78866769 222.57243249 -9.73510742 220.15307617 C-9.27178098 204.34752498 -9.27178098 204.34752498 -4.81518555 198.95776367 C-1.55944399 194.82620859 -1.02436724 190.23101576 0.0012207 185.17260742 C0.9523662 181.31324742 2.28504743 179.22309745 4.74731445 176.14526367 C6.75532395 173.04958236 8.23186761 169.98657755 9.62231445 166.58276367 C11.36623371 162.55119368 13.22631734 160.807481 16.74731445 158.14526367 C18.09323681 156.17459855 19.2869994 154.14063307 20.5012207 152.08666992 C22.22855987 149.39548633 24.46329628 147.37357408 26.74731445 145.14526367 C30.30522696 140.84405468 33.31955036 136.26659489 36.24731445 131.52026367 C38.25382807 128.30009722 40.14811508 125.53388123 42.93481445 122.95776367 C45.82302352 120.06955461 47.19649256 117.66702941 48.7902832 113.97729492 C49.84636049 111.95566125 51.12202653 110.72721059 52.74731445 109.14526367 C55.13947549 104.1217255 55.41196412 99.4166543 53.74731445 94.14526367 C52.14014812 91.6380842 50.39557354 89.43105541 48.4387207 87.18823242 C46.74731445 85.14526367 46.74731445 85.14526367 45.7746582 83.04370117 C44.47435117 80.64085243 43.11527082 79.90168054 40.74731445 78.58276367 C37.72455902 76.88802027 36.74898812 76.14777417 34.74731445 73.14526367 C29.43332645 71.12594823 24.2680643 70.9436337 18.62231445 70.89526367 C17.94152832 70.88599854 17.26074219 70.8767334 16.55932617 70.8671875 C10.65644532 70.9038023 5.74464748 71.76707107 1.37231445 75.89526367 C-1.14338908 78.19853002 -3.70321317 80.19691293 -6.50268555 82.14526367 C-11.51649996 85.89354882 -12.94555695 90.00570513 -14.56518555 95.89526367 C-16.19868637 101.60391917 -19.03084925 106.20170534 -22.25268555 111.14526367 C-22.61620117 111.76916992 -22.9797168 112.39307617 -23.35424805 113.03588867 C-25.53616511 116.69015627 -27.34295192 117.70483549 -31.25268555 119.14526367 C-32.41935221 121.06193034 -32.41935221 121.06193034 -33.25268555 123.14526367 C-36.35717052 127.1310218 -40.24420287 127.11856276 -44.9987793 127.79370117 C-53.88348457 128.75363331 -64.288781 129.53451026 -71.87084961 123.9543457 C-73.58881487 122.51601418 -75.20942563 121.02017704 -76.81518555 119.45776367 C-77.32815186 118.96501953 -77.84111816 118.47227539 -78.36962891 117.96459961 C-83.95072419 112.1174693 -84.56296004 105.01767909 -84.58862305 97.20776367 C-84.59527985 96.48339111 -84.60193665 95.75901855 -84.60879517 95.01269531 C-84.618842 93.49343374 -84.62361468 91.97412874 -84.62329102 90.45483398 C-84.62767582 88.15037715 -84.66410768 85.84782195 -84.7019043 83.54370117 C-84.75988878 75.86932965 -84.66028561 69.72339886 -80.25268555 63.14526367 C-78.32362632 60.01054243 -76.73435805 56.97331587 -75.31518555 53.58276367 C-73.78997942 50.07654269 -72.35202675 47.52142526 -69.25268555 45.14526367 C-68.59268555 45.14526367 -67.93268555 45.14526367 -67.25268555 45.14526367 C-67.16889648 44.59354492 -67.08510742 44.04182617 -66.9987793 43.47338867 C-64.09428136 34.41013856 -54.58799475 27.59816737 -47.25268555 22.14526367 C-46.3709668 21.43112305 -45.48924805 20.71698242 -44.58081055 19.98120117 C-42.25268555 18.14526367 -42.25268555 18.14526367 -40.25268555 17.20776367 C-38.00511688 16.14928613 -38.00511688 16.14928613 -35.87768555 13.64526367 C-32.48215651 10.4114265 -29.59743025 9.5069314 -24.9987793 8.79760742 C-18.88818043 7.81264391 -14.56085318 5.88529668 -9.3815918 2.48510742 C-6.21387971 0.49148312 -3.66035731 0.01858199 0 0 Z " fill="#F9FCFC" transform="translate(332.252685546875,142.854736328125)"/>
<path d="M0 0 C6.78191614 5.31555589 12.53990347 13.41134096 13.81640625 22.03515625 C14.30021784 30.77400311 10.9403956 37.54946967 5.87890625 44.47265625 C0.26655818 50.50560183 -7.28012537 56.00102526 -15.63671875 56.67578125 C-27.14209625 56.87301629 -33.70276994 53.32378803 -42.12109375 45.47265625 C-47.86967308 38.82779305 -49.20458461 31.03046911 -49.12109375 22.47265625 C-47.57229877 12.5087419 -43.00136526 4.77368306 -35.12109375 -1.52734375 C-32.52484437 -2.88469847 -29.94720604 -3.77571814 -27.12109375 -4.52734375 C-26.29609375 -4.75421875 -25.47109375 -4.98109375 -24.62109375 -5.21484375 C-15.45930106 -6.36006784 -7.71832103 -5.18079083 0 0 Z " fill="#F1F8F8" transform="translate(368.12109375,482.52734375)"/>
<path d="M0 0 C1.91745277 -0.00131424 1.91745277 -0.00131424 3.87364197 -0.00265503 C7.37586617 -0.00437642 10.8768571 0.0308938 14.37879467 0.07278872 C18.03959586 0.11030039 21.70042544 0.11382136 25.36138916 0.12094116 C32.29243342 0.13958897 39.22290975 0.1888243 46.15370393 0.2490381 C54.04473911 0.31610594 61.93580144 0.34909279 69.82705069 0.37921071 C86.05853551 0.44192407 102.28944919 0.54745688 118.52050781 0.68115234 C118.85050781 1.34115234 119.18050781 2.00115234 119.52050781 2.68115234 C119.19050781 3.34115234 118.86050781 4.00115234 118.52050781 4.68115234 C117.84905605 4.68538428 117.17760429 4.68961622 116.48580551 4.6939764 C100.15280311 4.79725185 83.81984605 4.90588497 67.4869194 5.0204916 C59.58846256 5.07578494 51.69000121 5.12926055 43.79150391 5.1784668 C36.90770112 5.22135627 30.02393107 5.26764628 23.14017892 5.31803089 C19.49482779 5.34459345 15.84948299 5.36944554 12.20409393 5.39022636 C8.13601354 5.41348045 4.06802487 5.44432593 0 5.47583008 C-1.21056564 5.48158554 -2.42113129 5.487341 -3.66838074 5.49327087 C-4.77613358 5.50305969 -5.88388641 5.51284851 -7.02520752 5.52293396 C-7.98755939 5.52938651 -8.94991127 5.53583906 -9.94142532 5.54248714 C-12.26520065 5.6694447 -14.2544019 6.02384581 -16.47949219 6.68115234 C-13.23152477 -1.19210981 -7.73884652 -0.13790225 0 0 Z " fill="#D9EDED" transform="translate(296.4794921875,29.31884765625)"/>
<path d="M0 0 C0.66 0.66 1.32 1.32 2 2 C0.49932096 6.85513807 0.49932096 6.85513807 -1 9 C-4.5625 9.6875 -4.5625 9.6875 -8 10 C-9.05326641 11.86645711 -9.05326641 11.86645711 -10 14 C-11.55078125 15.52734375 -11.55078125 15.52734375 -13.3125 16.9375 C-17.77696884 20.62874124 -21.70206243 24.62909771 -25.5 29 C-31.07835821 35.40298507 -31.07835821 35.40298507 -34 38 C-34.99 38 -35.98 38 -37 38 C-36.6596875 39.3921875 -36.6596875 39.3921875 -36.3125 40.8125 C-36 44 -36 44 -37.0625 45.8125 C-39.64069234 47.3926824 -42.0212021 47.66902246 -45 48 C-45.103125 49.11375 -45.20625 50.2275 -45.3125 51.375 C-45.539375 52.57125 -45.76625 53.7675 -46 55 C-49.28463659 57.18975773 -52.20696275 57.99806563 -56 59 C-55.34938905 57.32700041 -54.67966676 55.66140763 -54 54 C-53.62875 52.9790625 -53.62875 52.9790625 -53.25 51.9375 C-52 50 -52 50 -49.0625 48.125 C-45.78736216 46.22055307 -45.78736216 46.22055307 -44.4375 42.8125 C-43 40 -43 40 -40.3125 39.125 C-39.549375 39.08375 -38.78625 39.0425 -38 39 C-37.82984375 38.37351563 -37.6596875 37.74703125 -37.484375 37.1015625 C-37.24203125 36.28429687 -36.9996875 35.46703125 -36.75 34.625 C-36.51796875 33.81289062 -36.2859375 33.00078125 -36.046875 32.1640625 C-35 30 -35 30 -33.078125 28.7109375 C-31 28 -31 28 -28 28 C-27.34 25.36 -26.68 22.72 -26 20 C-24.906875 19.814375 -23.81375 19.62875 -22.6875 19.4375 C-21.470625 18.963125 -20.25375 18.48875 -19 18 C-18.319375 16.2984375 -18.319375 16.2984375 -17.625 14.5625 C-16 11 -16 11 -13.82421875 9.875 C-11.56121074 9.14295386 -9.32227318 8.51119221 -7 8 C-6.95875 7.236875 -6.9175 6.47375 -6.875 5.6875 C-6 3 -6 3 -2.9375 1.1875 C-1.968125 0.795625 -0.99875 0.40375 0 0 Z " fill="#AEFFFF" transform="translate(86,38)"/>
<path d="M0 0 C4.09885218 -0.47661072 5.55930365 -0.3448928 8.875 2.25 C11 5 11 5 11 9 C11.763125 9.144375 12.52625 9.28875 13.3125 9.4375 C16 10 16 10 19 11 C19.33 13.64 19.66 16.28 20 19 C21.6396875 19.0928125 21.6396875 19.0928125 23.3125 19.1875 C27 20 27 20 28.9375 22.375 C30 25 30 25 30 28 C31.3921875 28.0928125 31.3921875 28.0928125 32.8125 28.1875 C36 29 36 29 37.75 31.3125 C38.49758971 32.91981787 39.21664666 34.54161665 39.875 36.1875 C40.87579631 38.25126176 40.87579631 38.25126176 43.375 38.6875 C47.53298552 40.76649276 48.57411356 44.73030653 50 49 C50 49.66 50 50.32 50 51 C50.99 51.33 51.98 51.66 53 52 C58 57.34883721 58 57.34883721 58 61 C49.67021277 56.9893617 49.67021277 56.9893617 47.6875 54.0625 C47 52 47 52 47 48 C46.443125 47.95875 45.88625 47.9175 45.3125 47.875 C40.55775634 46.0759078 38.09095737 41.2123403 35.625 37 C33.05720356 32.76071343 29.82516434 30.07252784 26 27 C23.01355204 24.16287444 20.29641868 21.1910281 17.625 18.0625 C14.82171415 14.81948304 11.86799638 12.03406748 8.56640625 9.30859375 C6.58616894 7.65428079 4.79134215 5.85531865 3 4 C2.4225 3.443125 1.845 2.88625 1.25 2.3125 C0 1 0 1 0 0 Z " fill="#C1FFFF" transform="translate(619,47)"/>
<path d="M0 0 C0.5625 1.9375 0.5625 1.9375 1 4 C0.67 4.33 0.34 4.66 0 5 C-0.10816965 7.13650004 -0.14630188 9.27656536 -0.15771484 11.41577148 C-0.16279556 12.08570129 -0.16787628 12.7556311 -0.17311096 13.44586182 C-0.18383491 14.90493385 -0.1924471 16.36402254 -0.19923019 17.82311821 C-0.21098275 20.12997526 -0.23042506 22.43664199 -0.25234985 24.74342346 C-0.31409399 31.30357569 -0.36806504 37.86370924 -0.40136719 44.42407227 C-0.4222665 48.43243727 -0.45753109 52.4404572 -0.50212479 56.44862556 C-0.51632368 57.97923798 -0.52501596 59.50991147 -0.52817917 61.04058647 C-0.53306642 63.17903839 -0.55616505 65.3165682 -0.58349609 67.45483398 C-0.59158295 68.67315414 -0.5996698 69.8914743 -0.60800171 71.14671326 C-0.73736115 72.08829788 -0.86672058 73.02988251 -1 74 C-2.485 74.99 -2.485 74.99 -4 76 C-5 75 -5 75 -5.12025452 72.18431091 C-5.11803391 70.92522415 -5.11581329 69.66613739 -5.11352539 68.36889648 C-5.11367142 67.67624695 -5.11381744 66.98359741 -5.1139679 66.2699585 C-5.11326874 63.97030554 -5.10547628 61.67073263 -5.09765625 59.37109375 C-5.09579208 57.78068588 -5.09436817 56.19027743 -5.09336853 54.59986877 C-5.08954329 50.4060407 -5.07971295 46.21224705 -5.06866455 42.01843262 C-5.05845057 37.74211086 -5.05387094 33.46578356 -5.04882812 29.18945312 C-5.03809069 20.79295292 -5.02101419 12.39648074 -5 4 C-4.01 3.67 -3.02 3.34 -2 3 C-1.34 2.01 -0.68 1.02 0 0 Z " fill="#DAEDED" transform="translate(37,304)"/>
<path d="M0 0 C0.99 0.33 1.98 0.66 3 1 C2.43026269 4.73680647 0.90668143 6.49828114 -1.75 9.125 C-2.42546875 9.80820312 -3.1009375 10.49140625 -3.796875 11.1953125 C-6.14213152 13.11642688 -8.15868182 13.9903492 -11 15 C-14.21185313 16.38163515 -16.09743468 17.97383652 -18.4375 20.5625 C-21.18041041 23.39351246 -22.90352003 24.88620889 -27 25 C-27.99 25 -28.98 25 -30 25 C-31.95842989 26.45180671 -31.95842989 26.45180671 -34 28.3125 C-38.94958894 32.34066629 -43.80928729 33.78500031 -50 35 C-50.625 33.125 -50.625 33.125 -51 31 C-47.93164873 27.93164873 -44.12126099 27.87965353 -39.9453125 27.07421875 C-36.83525955 26.23008506 -36.83525955 26.23008506 -35.05078125 23.55078125 C-32.38530543 20.23543704 -30.10046252 19.70664835 -26.0625 18.5 C-20.62768616 16.87246217 -17.86881335 15.1231644 -14 11 C-12.948125 10.67 -11.89625 10.34 -10.8125 10 C-9.884375 9.67 -8.95625 9.34 -8 9 C-7.30341637 7.34561387 -6.63903117 5.67745682 -6 4 C-3.0625 1.625 -3.0625 1.625 0 0 Z " fill="#DEEFEF" transform="translate(480,508)"/>
<path d="M0 0 C1.10817581 -0.00637985 2.21635162 -0.0127597 3.35810852 -0.01933289 C5.16894173 -0.02100212 5.16894173 -0.02100212 7.01635742 -0.02270508 C8.86447273 -0.02769768 8.86447273 -0.02769768 10.74992371 -0.03279114 C13.3635521 -0.03786639 15.977187 -0.04019928 18.59082031 -0.04003906 C21.272855 -0.03995776 23.95471907 -0.04690031 26.63671875 -0.06054688 C30.4924851 -0.07883416 34.34805207 -0.0837744 38.20385742 -0.08520508 C39.40500687 -0.09239059 40.60615631 -0.09957611 41.84370422 -0.10697937 C42.96133652 -0.10390274 44.07896881 -0.10082611 45.23046875 -0.09765625 C46.21340408 -0.09908127 47.19633942 -0.10050629 48.20906067 -0.10197449 C50.8818346 0.15215791 52.52118977 0.7806615 54.80932617 2.14526367 C54.80932617 2.80526367 54.80932617 3.46526367 54.80932617 4.14526367 C47.15129297 4.21470084 39.49329231 4.26804281 31.83501625 4.30070019 C28.27913946 4.31637231 24.72347765 4.33763811 21.16772461 4.37158203 C17.08209135 4.41034127 12.99668476 4.42496 8.91088867 4.43823242 C7.63065826 4.45371628 6.35042786 4.46920013 5.03140259 4.4851532 C3.85032928 4.48537979 2.66925598 4.48560638 1.45239258 4.48583984 C-0.11313858 4.4958326 -0.11313858 4.4958326 -1.71029663 4.50602722 C-2.52882111 4.38697525 -3.34734558 4.26792328 -4.19067383 4.14526367 C-4.85067383 3.15526367 -5.51067383 2.16526367 -6.19067383 1.14526367 C-4.492051 -0.55335915 -2.32417672 0.00903504 0 0 Z " fill="#E0F0F0" transform="translate(326.190673828125,555.854736328125)"/>
<path d="M0 0 C-0.9375 2.8125 -0.9375 2.8125 -3 6 C-5.21075639 6.98833815 -7.40663992 7.58807821 -9.7421875 8.22265625 C-12.30479026 8.95134479 -12.30479026 8.95134479 -14.9375 11.5 C-19.54092342 15.25789667 -25.04613581 17 -31 17 C-31.2475 17.598125 -31.495 18.19625 -31.75 18.8125 C-33.22418254 21.39231944 -34.38713283 22.5815864 -37 24 C-39.75 23.6875 -39.75 23.6875 -42 23 C-29.51618705 10.13788969 -29.51618705 10.13788969 -22.8125 9.875 C-17.86538088 8.73959561 -15.51218873 6.27680841 -11.91796875 2.8125 C-8.12814402 -0.76892296 -5.01068338 -0.08081747 0 0 Z " fill="#DDEEEE" transform="translate(276,142)"/>
<path d="M0 0 C0.66 0 1.32 0 2 0 C1.67 2.31 1.34 4.62 1 7 C-0.093125 7.185625 -1.18625 7.37125 -2.3125 7.5625 C-6.32144025 8.63530247 -6.32144025 8.63530247 -7.625 12.5 C-8.305625 14.2325 -8.305625 14.2325 -9 16 C-11.94989267 17.69618829 -13.59882202 18 -17 18 C-16.95875 18.886875 -16.9175 19.77375 -16.875 20.6875 C-18 24 -18 24 -20.22265625 25.37109375 C-22.0137105 26.19832888 -23.82423585 26.98479786 -25.65234375 27.7265625 C-28.40005832 29.21700335 -28.71613546 30.2488617 -30 33 C-31.83984375 34.265625 -31.83984375 34.265625 -33.9375 35.25 C-34.62714844 35.58515625 -35.31679688 35.9203125 -36.02734375 36.265625 C-38 37 -38 37 -41 37 C-39.9545437 33.86363109 -39.23811043 33.23811043 -37 31 C-36.319375 29.6696875 -36.319375 29.6696875 -35.625 28.3125 C-35.08875 27.549375 -34.5525 26.78625 -34 26 C-33.2575 26.020625 -32.515 26.04125 -31.75 26.0625 C-26.45230636 25.94209787 -22.896364 20.91770601 -19.375 17.3125 C-17 15 -17 15 -14.3125 13.4375 C-11.88245125 12.22306509 -11.88245125 12.22306509 -11.10546875 10.03515625 C-9.43382748 6.9576824 -7.00414828 6.41347282 -3.875 5.125 C-1.57968441 3.74781064 -0.97920598 2.44801496 0 0 Z " fill="#B7FFFF" transform="translate(628,648)"/>
<path d="M0 0 C0.33 0 0.66 0 1 0 C1.0694002 11.83034731 1.1227604 23.66064649 1.15543652 35.49115562 C1.17111656 40.98408555 1.19239742 46.47687659 1.22631836 51.96972656 C1.2588285 57.26705929 1.27683538 62.56425813 1.28463173 67.86168289 C1.29019028 69.88638035 1.30104422 71.91107019 1.31719017 73.93571091 C1.3388536 76.76378169 1.3419716 79.59129368 1.34057617 82.41943359 C1.351362 83.26316025 1.36214783 84.1068869 1.3732605 84.97618103 C1.36076355 87.30477905 1.36076355 87.30477905 1 91 C-0.485 91.99 -0.485 91.99 -2 93 C-1.89232944 81.90782798 -1.77966214 70.81571896 -1.66066074 59.72366238 C-1.60555646 54.57287607 -1.55215687 49.42208397 -1.50268555 44.27124023 C-1.45485717 39.2980428 -1.40250849 34.32491139 -1.34705925 29.35179329 C-1.32671915 27.45686557 -1.30799272 25.56191979 -1.29092598 23.66695976 C-1.2666963 21.00764338 -1.23666841 18.34844972 -1.20532227 15.68920898 C-1.1995668 14.9102124 -1.19381134 14.13121582 -1.18788147 13.32861328 C-1.12735811 8.79505858 -0.73727853 4.47500612 0 0 Z " fill="#EDF6F6" transform="translate(562,299)"/>
<path d="M0 0 C-0.33 1.98 -0.66 3.96 -1 6 C-12.22 6.33 -23.44 6.66 -35 7 C-35 4 -35 4 -33 2 C-27.1850149 0.84160587 -21.28753853 0.69006642 -15.375 0.4375 C-14.446875 0.39431641 -13.51875 0.35113281 -12.5625 0.30664062 C-8.37005707 0.11744012 -4.19743494 -0.02191507 0 0 Z " fill="#DDEFEF" transform="translate(420,648)"/>
<path d="M0 0 C0.99 0 1.98 0 3 0 C3.45375 0.763125 3.9075 1.52625 4.375 2.3125 C6.68180683 6.12760361 9.44823631 7.43228158 13.5625 8.9375 C16.43023539 10.1875385 18.02521484 11.58637369 20 14 C20 14.99 20 15.98 20 17 C20.928125 17.309375 21.85625 17.61875 22.8125 17.9375 C24.875 18.625 26.9375 19.3125 29 20 C29.4640625 21.2065625 29.4640625 21.2065625 29.9375 22.4375 C30.76608159 25.14157493 30.76608159 25.14157493 33.125 26.3125 C34.053125 26.6528125 34.053125 26.6528125 35 27 C35 27.66 35 28.32 35 29 C32.125 28.75 32.125 28.75 29 28 C27.875 26.0625 27.875 26.0625 27 24 C24.9664052 22.73195434 24.9664052 22.73195434 23 22 C23 21.34 23 20.68 23 20 C22.484375 19.896875 21.96875 19.79375 21.4375 19.6875 C18.07200499 18.73825782 15.11044416 17.6128229 12 16 C11.71125 15.195625 11.4225 14.39125 11.125 13.5625 C10.2696461 10.84761188 10.2696461 10.84761188 7.92578125 10.03515625 C7.10464844 9.73480469 6.28351563 9.43445313 5.4375 9.125 C3 8.1796875 3 8.1796875 1 7 C-0.0625 3.25 -0.0625 3.25 0 0 Z " fill="#B6FFFF" transform="translate(77,656)"/>
<path d="M0 0 C3.48670834 1.1094072 6.77484237 2.26337666 10 4 C9.67 5.98 9.34 7.96 9 10 C9.53625 10.20625 10.0725 10.4125 10.625 10.625 C13.90822941 12.52581703 16.69191747 14.97641189 19 18 C19 18.99 19 19.98 19 21 C19.66 21 20.32 21 21 21 C22.36363208 22.97946592 23.69418644 24.9819245 25 27 C25.98230498 28.0173873 26.97469597 29.02596117 28 30 C28 30.33 28 30.66 28 31 C24.6875 30.9375 24.6875 30.9375 21 30 C19.27507776 26.9396541 18 24.5580523 18 21 C16.63875 21.0309375 16.63875 21.0309375 15.25 21.0625 C12 20 12 20 10.88671875 18.03515625 C10.24686912 16.41051749 9.6181739 14.78144689 9 13.1484375 C7.64315969 10.2333509 5.80520151 9.43856488 3 8 C0.8522582 5.03759752 0 3.68553144 0 0 Z " fill="#BAFFFF" transform="translate(21,597)"/>
<path d="M0 0 C-0.37956424 3.1215887 -0.88178295 6.05292328 -2 9 C-4.79902887 10.92433235 -6.58838002 12 -10 12 C-10.020625 13.258125 -10.04125 14.51625 -10.0625 15.8125 C-10.3203125 18.046875 -10.3203125 18.046875 -11 20 C-13.31104818 21.05047644 -15.64583651 22.05007438 -18 23 C-19.37967524 26.53514293 -19.37967524 26.53514293 -20 30 C-22.70879335 31.35439668 -25.00933268 31.06501451 -28 31 C-27.61328125 30.56429687 -27.2265625 30.12859375 -26.828125 29.6796875 C-24.33167943 26.82484133 -22.03104574 24.047039 -19.9375 20.875 C-18 18 -18 18 -15.625 15.6875 C-13.31630247 13.32383348 -11.76030561 11.19982573 -10 8.4375 C-4.54375 0 -4.54375 0 0 0 Z " fill="#CAFFFF" transform="translate(677,597)"/>
<path d="M0 0 C0.94877014 0.00848969 1.89754028 0.01697937 2.87506104 0.02572632 C5.90224279 0.0592855 8.92675004 0.13456968 11.953125 0.2109375 C14.00647192 0.24103384 16.05986063 0.26841022 18.11328125 0.29296875 C23.14425798 0.3590853 28.17323826 0.46262496 33.203125 0.5859375 C33.203125 1.5759375 33.203125 2.5659375 33.203125 3.5859375 C29.0191859 4.76336808 24.98939988 4.67533886 20.67578125 4.61328125 C18.97981974 4.60063585 17.28385609 4.58827483 15.58789062 4.57617188 C12.92384117 4.55135688 10.25990375 4.52336582 7.59594727 4.48999023 C5.01838479 4.45972764 2.44096505 4.44199626 -0.13671875 4.42578125 C-0.92956772 4.41232162 -1.72241669 4.398862 -2.53929138 4.38499451 C-6.74614056 4.36597925 -10.01796332 4.67599273 -13.796875 6.5859375 C-10.56432308 -0.31707362 -7.22740177 -0.24329758 0 0 Z " fill="#DCEEEE" transform="translate(338.796875,142.4140625)"/>
<path d="M0 0 C2.32320595 -0.36914349 2.32320595 -0.36914349 5.28970337 -0.36076355 C6.9724511 -0.36694954 6.9724511 -0.36694954 8.68919373 -0.3732605 C10.54388023 -0.35708176 10.54388023 -0.35708176 12.43603516 -0.34057617 C13.73355209 -0.34101425 15.03106903 -0.34145233 16.36790466 -0.34190369 C19.93184596 -0.34276652 23.49548604 -0.32509452 27.05935717 -0.30418181 C30.78161128 -0.28546281 34.50387185 -0.28366836 38.22616577 -0.28010559 C45.27748506 -0.27077103 52.32866526 -0.24613828 59.37992322 -0.21605712 C67.40639944 -0.18255689 75.43288221 -0.16603814 83.45941091 -0.15097082 C99.9730221 -0.11958986 116.48649332 -0.0668021 133 0 C133 0.33 133 0.66 133 1 C132.32854824 1.00423194 131.65709648 1.00846388 130.9652977 1.01282406 C114.6322953 1.1160995 98.29933824 1.22473263 81.96641159 1.33933926 C74.06795475 1.3946326 66.16949339 1.44810821 58.27099609 1.49731445 C51.38719331 1.54020393 44.50342326 1.58649394 37.61967111 1.63687855 C33.97431998 1.66344111 30.32897518 1.6882932 26.68358612 1.70907402 C22.61550573 1.73232811 18.54751706 1.76317359 14.47949219 1.79467773 C13.26892654 1.8004332 12.0583609 1.80618866 10.81111145 1.81211853 C9.70335861 1.82190735 8.59560577 1.83169617 7.45428467 1.84178162 C6.49193279 1.84823417 5.52958092 1.85468672 4.53806686 1.8613348 C2.21429153 1.98829236 0.22509029 2.34269347 -2 3 C-1.34 2.01 -0.68 1.02 0 0 Z " fill="#E5F2F2" transform="translate(282,33)"/>
<path d="M0 0 C0 5.41868946 -0.16823688 10.83490058 -0.31738281 16.2512207 C-0.35574475 17.70686109 -0.39058479 19.16259863 -0.421875 20.6184082 C-0.46762898 22.72380612 -0.52557019 24.8285703 -0.5859375 26.93359375 C-0.6173584 28.19228271 -0.6487793 29.45097168 -0.68115234 30.74780273 C-0.97516979 33.74673569 -1.42337251 35.47779116 -3 38 C-3.66 37.67 -4.32 37.34 -5 37 C-5.1237709 32.3736342 -5.21441516 27.74823539 -5.2746582 23.12060547 C-5.29977448 21.54719249 -5.33387472 19.97389588 -5.37719727 18.40087891 C-5.43798399 16.13675228 -5.46623582 13.87416978 -5.48828125 11.609375 C-5.51408768 10.90818542 -5.5398941 10.20699585 -5.56648254 9.48455811 C-5.56762695 7.48339844 -5.56762695 7.48339844 -5 4 C-2.46948242 1.52441406 -2.46948242 1.52441406 0 0 Z " fill="#DEEFEF" transform="translate(253,211)"/>
<path d="M0 0 C0.78375 0.04125 1.5675 0.0825 2.375 0.125 C2.375 0.785 2.375 1.445 2.375 2.125 C1.776875 2.29 1.17875 2.455 0.5625 2.625 C-1.98489115 4.3717825 -2.1395773 5.14636544 -3.0625 8 C-4.42044503 12.09585583 -6.17304002 13.49493525 -9.625 16.125 C-12.33551112 19.60361237 -14.47561995 22.69095156 -14.9375 27.125 C-14.834375 27.785 -14.73125 28.445 -14.625 29.125 C-15.3675 29.41375 -16.11 29.7025 -16.875 30 C-19.19239797 30.94802644 -21.40417115 31.97345911 -23.625 33.125 C-23.21182778 28.30465738 -21.24480085 26.21507389 -17.625 23.125 C-16.965 23.125 -16.305 23.125 -15.625 23.125 C-15.47804688 22.22007813 -15.47804688 22.22007813 -15.328125 21.296875 C-14.6160985 17.49121612 -14.06330285 14.72401389 -11.75 11.5625 C-9.625 10.125 -9.625 10.125 -5.625 10.125 C-5.50125 8.84625 -5.3775 7.5675 -5.25 6.25 C-4.87075179 2.33110184 -4.40586148 0.20980293 0 0 Z " fill="#F6FFFF" transform="translate(25.625,102.875)"/>
<path d="M0 0 C0.66 0.66 1.32 1.32 2 2 C1.01 2 0.02 2 -1 2 C-0.6596875 3.3921875 -0.6596875 3.3921875 -0.3125 4.8125 C0 8 0 8 -1.0625 9.8125 C-3.64069234 11.3926824 -6.0212021 11.66902246 -9 12 C-9.1546875 13.670625 -9.1546875 13.670625 -9.3125 15.375 C-9.539375 16.57125 -9.76625 17.7675 -10 19 C-13.28463659 21.18975773 -16.20696275 21.99806563 -20 23 C-19.34938905 21.32700041 -18.67966676 19.66140763 -18 18 C-17.62875 16.9790625 -17.62875 16.9790625 -17.25 15.9375 C-16 14 -16 14 -13.0625 12.125 C-9.78736216 10.22055307 -9.78736216 10.22055307 -8.4375 6.8125 C-7 4 -7 4 -4.3125 3.125 C-3.1678125 3.063125 -3.1678125 3.063125 -2 3 C-2 2.34 -2 1.68 -2 1 C-1.34 0.67 -0.68 0.34 0 0 Z " fill="#FFFFFF" transform="translate(50,74)"/>
<path d="M0 0 C0.66 0.33 1.32 0.66 2 1 C2 2.65 2 4.3 2 6 C-1.6041498 6.02900455 -5.20826962 6.04680018 -8.8125 6.0625 C-10.34874023 6.07506836 -10.34874023 6.07506836 -11.91601562 6.08789062 C-13.39038086 6.09272461 -13.39038086 6.09272461 -14.89453125 6.09765625 C-15.80050049 6.10289307 -16.70646973 6.10812988 -17.63989258 6.11352539 C-20 6 -20 6 -23 5 C-22.67 4.01 -22.34 3.02 -22 2 C-19.30487614 0.98091198 -16.78370489 0.88908911 -13.92578125 0.9375 C-12.80139648 0.94910156 -12.80139648 0.94910156 -11.65429688 0.9609375 C-10.88150391 0.97382813 -10.10871094 0.98671875 -9.3125 1 C-6.535726 1.0456331 -3.77805879 1.04723586 -1 1 C-0.67 0.67 -0.34 0.34 0 0 Z " fill="#E7F4F4" transform="translate(314,132)"/>
<path d="M0 0 C0.99 0 1.98 0 3 0 C3 0.99 3 1.98 3 3 C5.31 3.33 7.62 3.66 10 4 C10.15855469 4.61488281 10.31710937 5.22976562 10.48046875 5.86328125 C11.76810768 11.04698664 11.76810768 11.04698664 15.5 14.5 C19.43542792 16.86125675 19.89672057 20.72142855 21 25 C20.40574219 24.69449219 19.81148437 24.38898438 19.19921875 24.07421875 C16.87286075 22.89359219 16.87286075 22.89359219 13.8125 21.8125 C12.884375 21.214375 11.95625 20.61625 11 20 C10.3125 16.6875 10.3125 16.6875 10 13 C8.04895653 7.76298859 5.65393296 5.93400121 1 3 C0.67 2.01 0.34 1.02 0 0 Z " fill="#9BFFFF" transform="translate(675,110)"/>
<path d="M0 0 C0.70769531 0.26167969 1.41539062 0.52335938 2.14453125 0.79296875 C2.47453125 2.44296875 2.80453125 4.09296875 3.14453125 5.79296875 C2.44585937 5.8909375 1.7471875 5.98890625 1.02734375 6.08984375 C0.11726563 6.239375 -0.7928125 6.38890625 -1.73046875 6.54296875 C-2.63539063 6.6821875 -3.5403125 6.82140625 -4.47265625 6.96484375 C-7.00638344 7.55997636 -7.00638344 7.55997636 -8.0546875 9.79296875 C-8.31894531 10.45296875 -8.58320313 11.11296875 -8.85546875 11.79296875 C-11.47600195 13.48363533 -12.68176597 13.79296875 -15.85546875 13.79296875 C-14.26095191 9.81133898 -11.64606348 7.38200929 -8.54296875 4.48046875 C-7.59808594 3.57683594 -6.65320313 2.67320312 -5.6796875 1.7421875 C-2.85546875 -0.20703125 -2.85546875 -0.20703125 0 0 Z M4.14453125 -0.20703125 C5.13453125 0.12296875 6.12453125 0.45296875 7.14453125 0.79296875 C5.16453125 1.78296875 5.16453125 1.78296875 3.14453125 2.79296875 C3.47453125 1.80296875 3.80453125 0.81296875 4.14453125 -0.20703125 Z " fill="#E0F0F0" transform="translate(467.85546875,630.20703125)"/>
<path d="M0 0 C-1.34548616 3.09728249 -2.73195968 4.85423023 -5.375 6.9375 C-8.35756478 9.38504801 -10.59568225 11.97521316 -13 15 C-15 16.66666667 -17 18.33333333 -19 20 C-20.35827971 21.64639965 -21.69254251 23.31295807 -23 25 C-27.56521739 29.7826087 -27.56521739 29.7826087 -30 31 C-30.38671875 28.87890625 -30.38671875 28.87890625 -30 26 C-27.98664843 23.75671956 -26.08099292 21.88297128 -23.8125 19.9375 C-23.23435547 19.42123047 -22.65621094 18.90496094 -22.06054688 18.37304688 C-19.49360551 16.09615539 -16.88697154 13.91058473 -14.1953125 11.78125 C-11.89019911 10.04186846 -11.89019911 10.04186846 -10.0625 7.5625 C-3.97560976 0 -3.97560976 0 0 0 Z " fill="#E2F1F1" transform="translate(205,187)"/>
<path d="M0 0 C4.62105183 2.05380081 8.17706549 4.31844819 10.44140625 8.9453125 C10.81136719 9.99460937 11.18132813 11.04390625 11.5625 12.125 C12.94130488 16.45158873 12.94130488 16.45158873 16.15234375 19.3671875 C16.76207031 19.57601562 17.37179688 19.78484375 18 20 C18 20.66 18 21.32 18 22 C12.53234266 21.51398601 12.53234266 21.51398601 10.1875 19.25 C9 17 9 17 8.6875 14.4375 C8.3471875 13.2309375 8.3471875 13.2309375 8 12 C7.030625 11.5875 6.06125 11.175 5.0625 10.75 C2 9 2 9 1.16015625 6.81640625 C0.67500184 4.54645022 0.28012265 2.3037673 0 0 Z " fill="#C8FFFF" transform="translate(2,569)"/>
<path d="M0 0 C2 3 2 3 1.63783264 5.18156433 C1.42734787 6.1116481 1.2168631 7.04173187 1 8 C0.88473795 10.70587371 0.81548031 13.38856117 0.79467773 16.0949707 C0.78477814 16.89549362 0.77487854 17.69601654 0.76467896 18.52079773 C0.73319723 21.15576258 0.70835945 23.79074544 0.68359375 26.42578125 C0.6630127 28.25709999 0.64201593 30.0884141 0.62062073 31.91972351 C0.56551889 36.73158004 0.51605733 41.54347859 0.46777344 46.35540771 C0.41747145 51.26887741 0.36183084 56.18228634 0.30664062 61.09570312 C0.19920452 70.73041679 0.09772743 80.3651833 0 90 C-0.33 90 -0.66 90 -1 90 C-1.02312228 78.41311598 -1.0409145 66.82623741 -1.05181217 55.23933506 C-1.05704125 49.85966238 -1.06413935 44.48000542 -1.07543945 39.1003418 C-1.08626745 33.91325157 -1.09227665 28.72617651 -1.09487724 23.53907585 C-1.09673165 21.5554372 -1.10035256 19.57179942 -1.10573006 17.58816719 C-1.11293932 14.81990864 -1.11399099 12.05171362 -1.11352539 9.28344727 C-1.11712067 8.45482681 -1.12071594 7.62620636 -1.12442017 6.7724762 C-1.11405216 1.11405216 -1.11405216 1.11405216 0 0 Z " fill="#EDF6F6" transform="translate(136,297)"/>
<path d="M0 0 C0 0.99 0 1.98 0 3 C-8.25 3 -16.5 3 -25 3 C-25 2.34 -25 1.68 -25 1 C-17.92694786 -3.25055153 -7.82965223 -1.04395363 0 0 Z " fill="#DDEFEF" transform="translate(405,135)"/>
<path d="M0 0 C1.53527344 -0.01836914 1.53527344 -0.01836914 3.1015625 -0.03710938 C4.07867187 -0.03904297 5.05578125 -0.04097656 6.0625 -0.04296875 C7.41021484 -0.04913208 7.41021484 -0.04913208 8.78515625 -0.05541992 C11 0.1875 11 0.1875 13 2.1875 C4.35975438 4.701026 -4.08810018 4.37167244 -13 4.1875 C-13 3.1975 -13 2.2075 -13 1.1875 C-9.11308052 -0.75595974 -4.27485419 0.00269197 0 0 Z " fill="#E9F4F4" transform="translate(348,122.8125)"/>
<path d="M0 0 C0.66 0.33 1.32 0.66 2 1 C0.95610624 4.82761044 -0.66452508 6.702395 -3.5625 9.25 C-7.17747099 12.66413927 -7.6083407 14.99422044 -7.7578125 19.84375 C-8.14890634 23.32574678 -9.85289157 25.29879907 -12 28 C-12.99 27.67 -13.98 27.34 -15 27 C-14.525625 26.525625 -14.05125 26.05125 -13.5625 25.5625 C-11.88758336 22.81563671 -11.85085937 21.79821544 -11.75 18.6875 C-11.381284 13.6975434 -9.29656375 11.77526832 -5.6484375 8.56640625 C-3.59197595 6.61228046 -2.84230225 4.6800526 -2 2 C-1.34 1.34 -0.68 0.68 0 0 Z " fill="#E4F2F2" transform="translate(165,232)"/>
<path d="M0 0 C0.66 0.33 1.32 0.66 2 1 C1.67 9.58 1.34 18.16 1 27 C0.34 27.33 -0.32 27.66 -1 28 C-2.45214801 23.01851669 -2.18420386 18.02357224 -2.1875 12.875 C-2.19974609 11.86050781 -2.21199219 10.84601563 -2.22460938 9.80078125 C-2.22654297 8.83269531 -2.22847656 7.86460937 -2.23046875 6.8671875 C-2.23457764 5.98144043 -2.23868652 5.09569336 -2.24291992 4.18310547 C-2 2 -2 2 0 0 Z " fill="#E7F3F3" transform="translate(327,353)"/>
<path d="M0 0 C0.5625 1.9375 0.5625 1.9375 1 4 C0.67 4.33 0.34 4.66 0 5 C-0.12396871 7.14668285 -0.1780072 9.29742387 -0.20532227 11.44750977 C-0.21522186 12.12065216 -0.22512146 12.79379456 -0.23532104 13.48733521 C-0.26701838 15.72198925 -0.29172574 17.95666458 -0.31640625 20.19140625 C-0.33696869 21.73697984 -0.35796496 23.28254772 -0.37937927 24.82810974 C-0.43467337 28.90350732 -0.48405013 32.97895625 -0.53222656 37.05444336 C-0.58238817 41.2101704 -0.63810204 45.36582252 -0.69335938 49.52148438 C-0.80103064 57.6809263 -0.90245552 65.84043076 -1 74 C-1.33 74 -1.66 74 -2 74 C-2.04630932 64.7945787 -2.08186203 55.58919741 -2.10362434 46.38368511 C-2.11406835 42.10934527 -2.12823877 37.83508504 -2.15087891 33.56079102 C-2.17258534 29.43703744 -2.18456398 25.31336051 -2.18975449 21.18955421 C-2.1934542 19.61505743 -2.2006787 18.04056491 -2.21146011 16.46610069 C-2.22594594 14.26335916 -2.22797918 12.06093568 -2.22705078 9.8581543 C-2.231492 8.60350876 -2.23593323 7.34886322 -2.24050903 6.05619812 C-2 3 -2 3 0 0 Z " fill="#E5F3F3" transform="translate(37,304)"/>
<path d="M0 0 C0.33 0.66 0.66 1.32 1 2 C0.505 2.598125 0.01 3.19625 -0.5 3.8125 C-2.28276418 5.97029994 -2.28276418 5.97029994 -2 9 C-4.08203125 11.4453125 -4.08203125 11.4453125 -6.8125 14.125 C-7.70582031 15.01445312 -8.59914063 15.90390625 -9.51953125 16.8203125 C-12 19 -12 19 -15 20 C-15 18.68 -15 17.36 -15 16 C-13.3603279 14.63360658 -11.68889872 13.3050581 -10 12 C-8.65668346 10.00669158 -7.32405988 8.00615134 -6 6 C-4.07384022 3.90738197 -2.05924097 1.96563911 0 0 Z " fill="#DEEFEF" transform="translate(528,459)"/>
<path d="M0 0 C3.9589232 0.10950024 7.91686326 0.24021668 11.875 0.375 C13.56689453 0.42140625 13.56689453 0.42140625 15.29296875 0.46875 C16.90751953 0.52675781 16.90751953 0.52675781 18.5546875 0.5859375 C19.54968262 0.6173584 20.54467773 0.6487793 21.56982422 0.68115234 C24 1 24 1 26 3 C23.03154286 3.98948571 21.06179939 4.12890185 17.96484375 4.1328125 C16.99095703 4.13410156 16.01707031 4.13539063 15.01367188 4.13671875 C13.99853516 4.13285156 12.98339844 4.12898437 11.9375 4.125 C10.91849609 4.12886719 9.89949219 4.13273438 8.84960938 4.13671875 C7.87701172 4.13542969 6.90441406 4.13414062 5.90234375 4.1328125 C4.56417603 4.13112061 4.56417603 4.13112061 3.19897461 4.12939453 C1 4 1 4 -1 3 C-0.67 2.01 -0.34 1.02 0 0 Z " fill="#E7F3F3" transform="translate(281,648)"/>
<path d="M0 0 C1.25361328 0.00644531 2.50722656 0.01289062 3.79882812 0.01953125 C5.76432617 0.04466797 5.76432617 0.04466797 7.76953125 0.0703125 C9.10481112 0.08034611 10.44009814 0.0894713 11.77539062 0.09765625 C15.0444514 0.12125958 18.31315153 0.15418656 21.58203125 0.1953125 C21.58203125 1.1853125 21.58203125 2.1753125 21.58203125 3.1953125 C20.58203125 4.1953125 20.58203125 4.1953125 17.71459961 4.30883789 C16.46300049 4.30360107 15.21140137 4.29836426 13.921875 4.29296875 C12.9251754 4.29084633 12.9251754 4.29084633 11.90834045 4.28868103 C9.77869226 4.28306768 7.64914786 4.27051304 5.51953125 4.2578125 C4.07877756 4.25279921 2.63802222 4.24823601 1.19726562 4.24414062 C-2.34117977 4.23309395 -5.87956414 4.21582042 -9.41796875 4.1953125 C-9.41796875 3.5353125 -9.41796875 2.8753125 -9.41796875 2.1953125 C-5.83128562 -0.19580959 -4.25400306 -0.03849777 0 0 Z " fill="#EBF5F5" transform="translate(344.41796875,656.8046875)"/>
<path d="M0 0 C0.66 0 1.32 0 2 0 C2.433125 0.763125 2.86625 1.52625 3.3125 2.3125 C4.79522735 5.13075145 4.79522735 5.13075145 7.4375 6.4375 C10.6762797 8.41236567 11.91232573 10.8684886 14 14 C16.61857695 15.78962819 16.61857695 15.78962819 19 17 C19 17.33 19 17.66 19 18 C15.42236811 18.32523926 13.60457419 18.42956587 10.625 16.3125 C8.72741996 13.61209763 8.64117787 12.22939919 9 9 C7.88625 8.896875 6.7725 8.79375 5.625 8.6875 C3.830625 8.3471875 3.830625 8.3471875 2 8 C-0.1519437 4.77208445 -0.20086443 3.71599191 0 0 Z " fill="#FFFFFF" transform="translate(49,629)"/>
<path d="M0 0 C0.33 0.66 0.66 1.32 1 2 C1.66 2.33 2.32 2.66 3 3 C2.38125 3.2475 1.7625 3.495 1.125 3.75 C-1.13510224 4.80642956 -1.13510224 4.80642956 -1.88671875 6.9375 C-3.24508633 9.45405468 -4.3769675 10.04840933 -6.9375 11.25 C-7.62714844 11.58515625 -8.31679688 11.9203125 -9.02734375 12.265625 C-11 13 -11 13 -14 13 C-12.9545437 9.86363109 -12.23811043 9.23811043 -10 7 C-9.319375 5.6696875 -9.319375 5.6696875 -8.625 4.3125 C-8.08875 3.549375 -7.5525 2.78625 -7 2 C-4.4375 1.8125 -4.4375 1.8125 -2 2 C-1.34 1.34 -0.68 0.68 0 0 Z " fill="#C2FFFF" transform="translate(601,672)"/>
<path d="M0 0 C0.57492188 0.22945312 1.14984375 0.45890625 1.7421875 0.6953125 C0.31088475 3.85699618 -1.43295388 6.31805733 -3.6953125 8.9453125 C-4.29214844 9.65171875 -4.88898438 10.358125 -5.50390625 11.0859375 C-7.2578125 12.6953125 -7.2578125 12.6953125 -10.2578125 12.6953125 C-10.9178125 12.3653125 -11.5778125 12.0353125 -12.2578125 11.6953125 C-11.06503997 6.7751258 -7.93284472 4.22889691 -4.328125 0.953125 C-2.2578125 -0.3046875 -2.2578125 -0.3046875 0 0 Z " fill="#E0F0F0" transform="translate(110.2578125,138.3046875)"/>
<path d="M0 0 C-0.78625335 3.10665956 -1.63762292 6.09359557 -3 9 C-5.625 10.375 -5.625 10.375 -8 11 C-8.33 11.99 -8.66 12.98 -9 14 C-9.99 14 -10.98 14 -12 14 C-10.84803417 7.72818603 -7.22226595 0 0 0 Z " fill="#E2FFFF" transform="translate(696,570)"/>
<path d="M0 0 C-1.36370299 2.99220268 -2.94908083 5.29026529 -5.125 7.75 C-5.93324219 8.67039062 -5.93324219 8.67039062 -6.7578125 9.609375 C-7.37269531 10.29773438 -7.37269531 10.29773438 -8 11 C-9.32 10.67 -10.64 10.34 -12 10 C-11.5 6.6875 -11.5 6.6875 -10 3 C-6.92764675 1.11232533 -3.61657282 0 0 0 Z " fill="#B1FFFF" transform="translate(127,9)"/>
<path d="M0 0 C0.33 0.99 0.66 1.98 1 3 C3.88318775 4.18335395 3.88318775 4.18335395 7 5 C7.99 5.33 8.98 5.66 10 6 C10.309375 6.804375 10.61875 7.60875 10.9375 8.4375 C11.76608159 11.14157493 11.76608159 11.14157493 14.125 12.3125 C14.74375 12.539375 15.3625 12.76625 16 13 C16 13.66 16 14.32 16 15 C13.125 14.75 13.125 14.75 10 14 C8.875 12.0625 8.875 12.0625 8 10 C5.9664052 8.73195434 5.9664052 8.73195434 4 8 C4 7.34 4 6.68 4 6 C3.38125 5.87625 2.7625 5.7525 2.125 5.625 C0 5 0 5 -2 3 C-1.34 2.01 -0.68 1.02 0 0 Z " fill="#FFFFFF" transform="translate(96,670)"/>
<path d="M0 0 C3 3.75 3 3.75 3 6 C3.99 6.33 4.98 6.66 6 7 C11 12.34883721 11 12.34883721 11 16 C2.67021277 11.9893617 2.67021277 11.9893617 0.6875 9.0625 C0 7 0 7 0 3 C-0.66 2.67 -1.32 2.34 -2 2 C-1.34 1.34 -0.68 0.68 0 0 Z " fill="#F9FFFF" transform="translate(666,92)"/>
<path d="M0 0 C3.48670834 1.1094072 6.77484237 2.26337666 10 4 C9.67 5.98 9.34 7.96 9 10 C9.99 10.33 10.98 10.66 12 11 C11.01 11.66 10.02 12.32 9 13 C8 12 7 11 6 10 C5.319375 9.34 4.63875 8.68 3.9375 8 C1.31694781 5.29491387 0 3.84584091 0 0 Z " fill="#FFFFFF" transform="translate(21,597)"/>
<path d="M0 0 C4.02511753 0.61924885 6.82648821 2.51638207 10 5 C11.375 7.75 11.375 7.75 12 10 C10.3125 10.6875 10.3125 10.6875 8 11 C4.77142751 9.61632607 3.3329153 8.66583061 1.75 5.5 C1.5025 4.675 1.255 3.85 1 3 C0.67 2.01 0.34 1.02 0 0 Z " fill="#E0FFFF" transform="translate(598,28)"/>
<path d="M0 0 C1.46015291 0.28241641 2.91809793 0.57626614 4.375 0.875 C5.18710937 1.03742187 5.99921875 1.19984375 6.8359375 1.3671875 C9 2 9 2 11 4 C11.165 4.680625 11.33 5.36125 11.5 6.0625 C11.665 6.701875 11.83 7.34125 12 8 C12.66 8.33 13.32 8.66 14 9 C13.67 9.99 13.34 10.98 13 12 C13 11.34 13 10.68 13 10 C11.68 10.33 10.36 10.66 9 11 C8.443125 10.2575 7.88625 9.515 7.3125 8.75 C5.09173001 5.92455792 5.09173001 5.92455792 2.25 3.8125 C1.5075 3.214375 0.765 2.61625 0 2 C0 1.34 0 0.68 0 0 Z " fill="#BAFFFF" transform="translate(571,9)"/>
<path d="M0 0 C0.99 0.33 1.98 0.66 3 1 C2.6245451 3.84272999 2.39572791 5.56559085 1 8 C-4.4876514 11.41506203 -10.75302029 11.29747522 -17 11 C-16.67 10.34 -16.34 9.68 -16 9 C-14.7625 9.1546875 -14.7625 9.1546875 -13.5 9.3125 C-8.83749625 8.89620502 -5.54327695 7.03253432 -2 4 C-0.7632402 1.92497624 -0.7632402 1.92497624 0 0 Z " fill="#CAFFFF" transform="translate(581,684)"/>
<path d="M0 0 C-2 3 -2 3 -5.4375 3.75 C-9 4 -9 4 -12 3 C-8.2391768 -0.7608232 -5.0273023 -0.25136512 0 0 Z M-14 4 C-13.34 4.33 -12.68 4.66 -12 5 C-17.99964714 11.62208892 -17.99964714 11.62208892 -21.8125 13.0625 C-24 13 -24 13 -26 11 C-24.7625 10.5875 -23.525 10.175 -22.25 9.75 C-18.69180176 8.43144781 -16.45806703 6.97016433 -14 4 Z " fill="#E8F4F4" transform="translate(276,142)"/>
<path d="M0 0 C-0.66666667 1.33333333 -1.33333333 2.66666667 -2 4 C-2.45375 5.051875 -2.9075 6.10375 -3.375 7.1875 C-5 10 -5 10 -7 11 C-9 11 -9 11 -12 9 C-9.53846154 4.2 -9.53846154 4.2 -6.8125 3.1875 C-5.9153125 3.0946875 -5.9153125 3.0946875 -5 3 C-5 2.34 -5 1.68 -5 1 C-3 0 -3 0 0 0 Z " fill="#E2FFFF" transform="translate(100,28)"/>
<path d="M0 0 C0.66 0.33 1.32 0.66 2 1 C2 1.99 2 2.98 2 4 C-1.60409919 4.05800828 -5.20807851 4.09359869 -8.8125 4.125 C-10.34874023 4.15013672 -10.34874023 4.15013672 -11.91601562 4.17578125 C-12.89892578 4.18222656 -13.88183594 4.18867188 -14.89453125 4.1953125 C-15.80050049 4.20578613 -16.70646973 4.21625977 -17.63989258 4.22705078 C-20 4 -20 4 -23 2 C-18.34868816 1.07551566 -13.98653448 0.92511408 -9.25 1 C-4.45721907 1.28562341 -4.45721907 1.28562341 0 0 Z " fill="#DBEDED" transform="translate(314,134)"/>
<path d="M0 0 C6.75 0.75 6.75 0.75 9 3 C9.625 5.625 9.625 5.625 10 8 C9.01 8.66 8.02 9.32 7 10 C1.21538462 5.69230769 1.21538462 5.69230769 0.125 2.1875 C0.08375 1.465625 0.0425 0.74375 0 0 Z " fill="#B9FFFF" transform="translate(610,38)"/>
<path d="M0 0 C2.97 0 5.94 0 9 0 C9.433125 1.134375 9.86625 2.26875 10.3125 3.4375 C11.1478125 5.2009375 11.1478125 5.2009375 12 7 C12.99 7.33 13.98 7.66 15 8 C14.67 8.99 14.34 9.98 14 11 C10.75032222 10.03387958 9.32039552 9.54327936 7.5625 6.5625 C5.57298403 3.2996938 3.46173693 2.46162226 0 1 C0 0.67 0 0.34 0 0 Z " fill="#FFFFFF" transform="translate(554,0)"/>
<path d="M0 0 C0.99 0 1.98 0 3 0 C3 0.99 3 1.98 3 3 C5.31 3.33 7.62 3.66 10 4 C10.55978184 5.57701982 11.09719401 7.16199242 11.625 8.75 C11.92664063 9.63171875 12.22828125 10.5134375 12.5390625 11.421875 C13.07333427 14.41017471 12.62433191 15.49923002 11 18 C10 16 10 16 9.5625 14.1875 C8.02118535 8.1934986 6.27643462 6.36793699 1 3 C0.67 2.01 0.34 1.02 0 0 Z " fill="#D0FFFF" transform="translate(675,110)"/>
<path d="M0 0 C0.5625 1.9375 0.5625 1.9375 1 4 C0.67 4.33 0.34 4.66 0 5 C-0.08631874 6.34267413 -0.10706473 7.68974322 -0.09765625 9.03515625 C-0.09443359 9.84404297 -0.09121094 10.65292969 -0.08789062 11.48632812 C-0.07951172 12.33646484 -0.07113281 13.18660156 -0.0625 14.0625 C-0.05798828 14.91650391 -0.05347656 15.77050781 -0.04882812 16.65039062 C-0.03700373 18.76695663 -0.01906769 20.88348685 0 23 C-0.99 23.33 -1.98 23.66 -3 24 C-3.14550147 16.69259274 -3.21159362 9.22384123 -2 2 C-1.34 1.34 -0.68 0.68 0 0 Z " fill="#E6F3F3" transform="translate(391,362)"/>
<path d="M0 0 C6.75 1.75 6.75 1.75 9 4 C9.1953125 6.1640625 9.1953125 6.1640625 9.125 8.625 C9.10695313 9.44226563 9.08890625 10.25953125 9.0703125 11.1015625 C9.03550781 12.04128906 9.03550781 12.04128906 9 13 C7 12 7 12 5.6875 9.25 C3.89220238 5.79238977 1.8520811 3.62083128 -1 1 C-0.67 0.67 -0.34 0.34 0 0 Z " fill="#CAFFFF" transform="translate(696,140)"/>
<path d="M0 0 C0.66 0.66 1.32 1.32 2 2 C-1.53870977 3.17956992 -4.3366687 3.06164767 -8.0625 3 C-12.696094 2.73216886 -12.696094 2.73216886 -17 4 C-17.66 3.34 -18.32 2.68 -19 2 C-12.78852503 -0.25871817 -6.58088641 -0.6790596 0 0 Z " fill="#E8F4F4" transform="translate(358,208)"/>
<path d="M0 0 C2.1640625 -0.29296875 2.1640625 -0.29296875 4.625 -0.1875 C5.44226563 -0.16042969 6.25953125 -0.13335938 7.1015625 -0.10546875 C8.04128906 -0.05326172 8.04128906 -0.05326172 9 0 C7.33326224 1.75221149 6.16039642 2.92709254 3.9375 3.9375 C1.54421293 5.24994775 0.99594253 6.51014367 0 9 C-0.99 9 -1.98 9 -3 9 C-2.5020163 5.26512223 -2.12508244 3.18762365 0 0 Z " fill="#B7FFFF" transform="translate(136,0)"/>
<path d="M0 0 C4.71354196 1.57118065 7.29212409 4.93818614 10 9 C7.48665062 9.93087014 6.03525563 10.00671536 3.375 9.5 C1 8 1 8 -0.3125 4.375 C-0.539375 3.26125 -0.76625 2.1475 -1 1 C-0.67 0.67 -0.34 0.34 0 0 Z " fill="#C3FFFF" transform="translate(115,684)"/>
<path d="M0 0 C2 3 2 3 3.375 6.5625 C4.65685567 10.04639119 4.65685567 10.04639119 7.1875 11.4375 C7.785625 11.623125 8.38375 11.80875 9 12 C9 12.66 9 13.32 9 14 C3.53234266 13.51398601 3.53234266 13.51398601 1.1875 11.25 C0 9 0 9 -0.5 6.375 C-0.78722409 3.63634663 -0.78722409 3.63634663 -4 2 C-2.68 1.34 -1.36 0.68 0 0 Z " fill="#F6FFFF" transform="translate(11,577)"/>
<path d="M0 0 C0.33 0 0.66 0 1 0 C1.08096803 1.45742463 1.13917774 2.91612807 1.1875 4.375 C1.22230469 5.18710937 1.25710938 5.99921875 1.29296875 6.8359375 C1.19628906 7.55007813 1.09960938 8.26421875 1 9 C-2.22791555 11.1519437 -3.28400809 11.20086443 -7 11 C-7 11.99 -7 12.98 -7 14 C-7.99 14 -8.98 14 -10 14 C-8.92305696 11.16078653 -8.28995681 10.15613059 -5.5625 8.6875 C-1.97582277 6.32554182 -1.43188967 3.99421854 0 0 Z " fill="#D6FFFF" transform="translate(704,551)"/>
<path d="M0 0 C0.94875 0.04125 1.8975 0.0825 2.875 0.125 C2.875 0.785 2.875 1.445 2.875 2.125 C1.7303125 2.7746875 1.7303125 2.7746875 0.5625 3.4375 C-2.28566346 4.94126768 -2.28566346 4.94126768 -3.6875 7.75 C-5.125 10.125 -5.125 10.125 -7.3125 10.9375 C-7.910625 10.999375 -8.50875 11.06125 -9.125 11.125 C-9.125 10.135 -9.125 9.145 -9.125 8.125 C-8.135 8.125 -7.145 8.125 -6.125 8.125 C-6.00125 7.17625 -5.8775 6.2275 -5.75 5.25 C-4.9116727 1.05836349 -4.32891429 0.17315657 0 0 Z " fill="#CCFFFF" transform="translate(111.125,18.875)"/>
<path d="M0 0 C0.99 0 1.98 0 3 0 C2.67 5.61 2.34 11.22 2 17 C1.01 17.33 0.02 17.66 -1 18 C-1.02684312 15.18743719 -1.04676188 12.37512759 -1.0625 9.5625 C-1.07087891 8.76005859 -1.07925781 7.95761719 -1.08789062 7.13085938 C-1.0965143 5.08704779 -1.0522815 3.04316098 -1 1 C-0.67 0.67 -0.34 0.34 0 0 Z " fill="#EBF5F5" transform="translate(45,259)"/>
<path d="M0 0 C3.79588866 0.54226981 5.47211993 2.20127563 8 5 C7.67 5.99 7.34 6.98 7 8 C4.625 8.1875 4.625 8.1875 2 8 C-0.1519437 4.77208445 -0.20086443 3.71599191 0 0 Z " fill="#AEFFFF" transform="translate(31,609)"/>
<path d="M0 0 C-0.33 0.99 -0.66 1.98 -1 3 C-9.91 3 -18.82 3 -28 3 C-25.55138849 0.55138849 -24.75932343 0.71247101 -21.38671875 0.5859375 C-20.46826172 0.54726563 -19.54980469 0.50859375 -18.60351562 0.46875 C-17.64123047 0.4378125 -16.67894531 0.406875 -15.6875 0.375 C-14.26147461 0.31699219 -14.26147461 0.31699219 -12.80664062 0.2578125 C-8.53476019 0.09063898 -4.27546715 -0.01813863 0 0 Z " fill="#ECF5F5" transform="translate(420,648)"/>
<path d="M0 0 C0.99 0.66 1.98 1.32 3 2 C2.5504955 3.31554985 2.09010284 4.62738358 1.625 5.9375 C1.36976563 6.66839844 1.11453125 7.39929688 0.8515625 8.15234375 C0 10 0 10 -2 11 C-3.99960012 11.039992 -6.00047242 11.04346799 -8 11 C-7.38511719 10.31164062 -7.38511719 10.31164062 -6.7578125 9.609375 C-6.21898437 8.99578125 -5.68015625 8.3821875 -5.125 7.75 C-4.59132813 7.14671875 -4.05765625 6.5434375 -3.5078125 5.921875 C-2.0202513 4.02581254 -0.99677564 2.18709995 0 0 Z " fill="#DBFFFF" transform="translate(657,617)"/>
<path d="M0 0 C0.99 0 1.98 0 3 0 C2.67 4.95 2.34 9.9 2 15 C1.01 15 0.02 15 -1 15 C-1.02685412 12.68756208 -1.04632841 10.3750373 -1.0625 8.0625 C-1.07410156 6.77472656 -1.08570313 5.48695313 -1.09765625 4.16015625 C-1 1 -1 1 0 0 Z " fill="#E6F3F3" transform="translate(652,410)"/>
<path d="M0 0 C0.66 0 1.32 0 2 0 C1.67 2.31 1.34 4.62 1 7 C-0.11375 7.28875 -1.2275 7.5775 -2.375 7.875 C-6.00291092 8.69241329 -6.00291092 8.69241329 -8 11 C-8.66 10.67 -9.32 10.34 -10 10 C-10 9.34 -10 8.68 -10 8 C-9.44570313 7.75765625 -8.89140625 7.5153125 -8.3203125 7.265625 C-7.59585938 6.93046875 -6.87140625 6.5953125 -6.125 6.25 C-5.40570312 5.92515625 -4.68640625 5.6003125 -3.9453125 5.265625 C-1.6629326 3.78070314 -0.99624102 2.49584592 0 0 Z " fill="#C8FFFF" transform="translate(628,648)"/>
<path d="M0 0 C0.99 0 1.98 0 3 0 C2.83113281 0.56589844 2.66226563 1.13179688 2.48828125 1.71484375 C1.97204777 4.13081643 2.03362586 6.1046725 2.1875 8.5625 C2.23046875 10.9375 2.23046875 10.9375 2 13 C0 15.0625 0 15.0625 -2 16 C-1.33333333 10.66666667 -0.66666667 5.33333333 0 0 Z " fill="#E6F3F3" transform="translate(551,409)"/>
<path d="M0 0 C0.33 0 0.66 0 1 0 C1.25 5.625 1.25 5.625 -1 9 C-2.9453125 9.51171875 -2.9453125 9.51171875 -5.125 9.6875 C-7.043125 9.8421875 -7.043125 9.8421875 -9 10 C-8.67 9.01 -8.34 8.02 -8 7 C-7.21625 6.71125 -6.4325 6.4225 -5.625 6.125 C-2.33825153 4.71639351 -1.62987741 3.09676707 0 0 Z " fill="#E5FFFF" transform="translate(648,628)"/>
<path d="M0 0 C0.78375 0.04125 1.5675 0.0825 2.375 0.125 C2.375 0.785 2.375 1.445 2.375 2.125 C1.776875 2.29 1.17875 2.455 0.5625 2.625 C-2.81027798 4.93776204 -3.4581548 8.32391337 -4.625 12.125 C-6.275 11.795 -7.925 11.465 -9.625 11.125 C-8.305 10.795 -6.985 10.465 -5.625 10.125 C-5.439375 8.206875 -5.439375 8.206875 -5.25 6.25 C-4.87075179 2.33110184 -4.40586148 0.20980293 0 0 Z " fill="#FFFFFF" transform="translate(25.625,102.875)"/>
<path d="M0 0 C0.33 1.65 0.66 3.3 1 5 C-2.28463659 7.18975773 -5.20696275 7.99806563 -9 9 C-7.45665977 5.21180126 -4.44676575 0 0 0 Z " fill="#C2FFFF" transform="translate(39,88)"/>
<path d="M0 0 C-0.1875 1.875 -0.1875 1.875 -1 4 C-2.66666667 4.66666667 -4.33333333 5.33333333 -6 6 C-8.15609766 7.8827895 -10.04074475 9.90405252 -12 12 C-12.66 11.67 -13.32 11.34 -14 11 C-12.75796305 9.53487874 -11.50602944 8.07814355 -10.25 6.625 C-9.55390625 5.81289062 -8.8578125 5.00078125 -8.140625 4.1640625 C-5.63536953 1.63137723 -3.63221845 0 0 0 Z " fill="#E6F3F3" transform="translate(164,88)"/>
<path d="M0 0 C2.375 0.25 2.375 0.25 5 1 C6.7941758 3.56310828 7 4.83119306 7 8 C7.99 8 8.98 8 10 8 C10 8.99 10 9.98 10 11 C7.6875 10.375 7.6875 10.375 5 9 C3.3125 5.9375 3.3125 5.9375 2 3 C1.34 2.67 0.68 2.34 0 2 C0 1.34 0 0.68 0 0 Z " fill="#EEFFFF" transform="translate(586,19)"/>
<path d="M0 0 C1.25425781 0.00902344 2.50851562 0.01804688 3.80078125 0.02734375 C4.75339844 0.03894531 5.70601563 0.05054688 6.6875 0.0625 C6.6875 0.7225 6.6875 1.3825 6.6875 2.0625 C5.67042969 2.02769531 5.67042969 2.02769531 4.6328125 1.9921875 C-1.95417236 1.86446203 -7.91360441 2.50788762 -14.3125 4.0625 C-12.3125 1.0625 -12.3125 1.0625 -10.14453125 0.37890625 C-6.74140196 -0.00130544 -3.42400128 -0.03200001 0 0 Z " fill="#E6F3F3" transform="translate(257.3125,41.9375)"/>
<path d="M0 0 C-1.5 2 -1.5 2 -4 4 C-6.75871627 4.35800135 -9.20097524 4.18660165 -12 4 C-12 3.01 -12 2.02 -12 1 C-10.37681021 0.63762737 -8.7513642 0.28534843 -7.125 -0.0625 C-6.22007812 -0.25972656 -5.31515625 -0.45695313 -4.3828125 -0.66015625 C-2 -1 -2 -1 0 0 Z " fill="#EBF5F5" transform="translate(454,639)"/>
<path d="M0 0 C0 2.31 0 4.62 0 7 C-2.64 7.33 -5.28 7.66 -8 8 C-6.78549285 4.35647855 -4.23741046 0 0 0 Z " fill="#B4FFFF" transform="translate(666,610)"/>
<path d="M0 0 C-1.77444972 2.24606427 -2.58352485 2.95081002 -5.48046875 3.29296875 C-6.82044922 3.24076172 -6.82044922 3.24076172 -8.1875 3.1875 C-9.53908203 3.14689453 -9.53908203 3.14689453 -10.91796875 3.10546875 C-11.60503906 3.07066406 -12.29210937 3.03585937 -13 3 C-11 0 -11 0 -8.1875 -0.75 C-5.16591683 -0.98698692 -2.91154204 -0.77070231 0 0 Z " fill="#EAF5F5" transform="translate(416,549)"/>
<path d="M0 0 C-1.38607623 1.46761013 -2.78431195 2.92374189 -4.1875 4.375 C-4.96480469 5.18710937 -5.74210937 5.99921875 -6.54296875 6.8359375 C-8.987055 8.98859852 -10.92616557 10.00632706 -14 11 C-13.57847656 10.52949219 -13.15695312 10.05898438 -12.72265625 9.57421875 C-11.90087891 8.64029297 -11.90087891 8.64029297 -11.0625 7.6875 C-10.24458984 6.76517578 -10.24458984 6.76517578 -9.41015625 5.82421875 C-7.79918441 3.94758042 -7.79918441 3.94758042 -7 1 C-2.55696203 -1.27848101 -2.55696203 -1.27848101 0 0 Z " fill="#E9F4F4" transform="translate(483,512)"/>
<path d="M0 0 C0.66 1.32 1.32 2.64 2 4 C3.65 3.01 5.3 2.02 7 1 C6.7421875 2.859375 6.7421875 2.859375 6 5 C4.2578125 6.265625 4.2578125 6.265625 2.125 7.25 C1.42632813 7.58515625 0.72765625 7.9203125 0.0078125 8.265625 C-2 9 -2 9 -5 9 C-3.97448721 5.92346162 -3.19203004 5.19203004 -1 3 C-0.67 2.01 -0.34 1.02 0 0 Z " fill="#FBFFFF" transform="translate(592,676)"/>
<path d="M0 0 C2 0 2 0 4.5 2.3125 C7 5 7 5 9 8 C3.57142857 8.36190476 3.57142857 8.36190476 1.125 6.8125 C-0.34781139 4.43963721 -0.22223194 2.74086056 0 0 Z " fill="#CCFFFF" transform="translate(68,648)"/>
<path d="M0 0 C1.4540625 0.0309375 1.4540625 0.0309375 2.9375 0.0625 C2.9375 2.0625 2.9375 2.0625 1.44140625 3.5703125 C0.48041016 4.37082031 0.48041016 4.37082031 -0.5 5.1875 C-1.13808594 5.72632812 -1.77617187 6.26515625 -2.43359375 6.8203125 C-4.0625 8.0625 -4.0625 8.0625 -5.0625 8.0625 C-4.046875 0.08258929 -4.046875 0.08258929 0 0 Z " fill="#AEFFFF" transform="translate(17.0625,113.9375)"/>
<path d="M0 0 C2.875 -0.1875 2.875 -0.1875 6 0 C8 3 8 3 8 7 C5 7 5 7 2.3125 4.625 C0 2 0 2 0 0 Z " fill="#AAFFFF" transform="translate(640,67)"/>
<path d="M0 0 C2.0625 0.75 2.0625 0.75 4 2 C4.33 2.99 4.66 3.98 5 5 C4.67 5.66 4.34 6.32 4 7 C1.5625 6.25 1.5625 6.25 -1 5 C-1.8125 2.875 -1.8125 2.875 -2 1 C-1.34 0.67 -0.68 0.34 0 0 Z " fill="#97FFFF" transform="translate(91,666)"/>
<path d="M0 0 C-1 2 -2 4 -3 6 C-3.94875 5.79375 -4.8975 5.5875 -5.875 5.375 C-7.421875 5.189375 -7.421875 5.189375 -9 5 C-9.66 5.66 -10.32 6.32 -11 7 C-10.74609375 5.109375 -10.74609375 5.109375 -10 3 C-8.22265625 1.953125 -8.22265625 1.953125 -6.0625 1.25 C-5.35222656 1.00765625 -4.64195313 0.7653125 -3.91015625 0.515625 C-2 0 -2 0 0 0 Z " fill="#D4FFFF" transform="translate(127,9)"/>
<path d="M0 0 C0.33 0.66 0.66 1.32 1 2 C-0.65 2 -2.3 2 -4 2 C-4.33 2.99 -4.66 3.98 -5 5 C-7.64 5.33 -10.28 5.66 -13 6 C-12 3 -12 3 -8.75 1.3125 C-5.45873369 0.16055679 -3.4127883 -0.31025348 0 0 Z " fill="#DAFFFF" transform="translate(82,46)"/>
<path d="M0 0 C-0.33 0.66 -0.66 1.32 -1 2 C-1.66 2 -2.32 2 -3 2 C-1.84826645 4.46800047 -0.95216435 6.04783565 1 8 C-0.875 7.8125 -0.875 7.8125 -3 7 C-3.28875 6.195625 -3.5775 5.39125 -3.875 4.5625 C-4.79704705 1.66336372 -4.79704705 1.66336372 -8.125 0.6875 C-9.07375 0.460625 -10.0225 0.23375 -11 0 C-7.07632508 -2.82504594 -4.32061114 -1.49559616 0 0 Z " fill="#FFFFFF" transform="translate(92,665)"/>
<path d="M0 0 C0.66 0 1.32 0 2 0 C1.625 2.9375 1.625 2.9375 1 6 C-1.70879335 7.35439668 -4.00933268 7.06501451 -7 7 C-4.9413783 3.91206745 -4.1446688 3.52161393 -1 2 C-0.67 1.34 -0.34 0.68 0 0 Z " fill="#E1FFFF" transform="translate(637,640)"/>
<path d="M0 0 C0.33 0 0.66 0 1 0 C1.1875 2.875 1.1875 2.875 1 6 C-2 8 -2 8 -4.1875 7.625 C-4.785625 7.41875 -5.38375 7.2125 -6 7 C-4.71937515 5.2925002 -3.38232443 3.62626404 -2 2 C-1.34 2 -0.68 2 0 2 C0 1.34 0 0.68 0 0 Z " fill="#A2FFFF" transform="translate(693,572)"/>
<path d="M0 0 C0.98484375 0.10183594 1.9696875 0.20367187 2.984375 0.30859375 C4.10585938 0.43427734 4.10585938 0.43427734 5.25 0.5625 C1.61804504 2.98380331 -0.13349348 2.77272785 -4.4375 2.6875 C-5.61699219 2.66945312 -6.79648438 2.65140625 -8.01171875 2.6328125 C-8.91535156 2.60960937 -9.81898438 2.58640625 -10.75 2.5625 C-9.75 0.5625 -9.75 0.5625 -8.046875 -0.08984375 C-5.25636896 -0.51221626 -2.80414447 -0.30044405 0 0 Z " fill="#F1F8F8" transform="translate(258.75,43.4375)"/>
<path d="M0 0 C-0.33 1.65 -0.66 3.3 -1 5 C-3.31 5.33 -5.62 5.66 -8 6 C-6.72879117 2.18637351 -4.19078006 0 0 0 Z " fill="#E8FFFF" transform="translate(686,585)"/>
<path d="M0 0 C0.66 0 1.32 0 2 0 C2.33 1.98 2.66 3.96 3 6 C0.69 6 -1.62 6 -4 6 C-1.125 1.125 -1.125 1.125 0 0 Z " fill="#8DFFFF" transform="translate(46,78)"/>
<path d="M0 0 C3.48305042 0.64500934 6.06202164 2.04134776 9 4 C9 4.33 9 4.66 9 5 C3.375 5.25 3.375 5.25 0 3 C0 2.01 0 1.02 0 0 Z " fill="#D4FFFF" transform="translate(59,642)"/>
<path d="M0 0 C0 3.96130371 -1.34877125 4.82914401 -4 7.6875 C-4.7425 8.49574219 -5.485 9.30398438 -6.25 10.13671875 C-6.8275 10.75160156 -7.405 11.36648438 -8 12 C-8.66 11.67 -9.32 11.34 -10 11 C-10 10.34 -10 9.68 -10 9 C-8.55139313 7.74893043 -7.09723133 6.50300227 -5.6015625 5.30859375 C-3.59523412 3.66927666 -1.79585899 1.86493049 0 0 Z " fill="#E6F3F3" transform="translate(356,297)"/>
<path d="M0 0 C0.33 0.99 0.66 1.98 1 3 C3.97 3.495 3.97 3.495 7 4 C6.01 5.32 5.02 6.64 4 8 C2.02 6.35 0.04 4.7 -2 3 C-1.34 2.67 -0.68 2.34 0 2 C0 1.34 0 0.68 0 0 Z " fill="#CFFFFF" transform="translate(648,72)"/>
<path d="M0 0 C2.97 0 5.94 0 9 0 C9 1.65 9 3.3 9 5 C5.54074837 3.7508258 2.85306797 2.32472205 0 0 Z " fill="#BCFFFF" transform="translate(554,0)"/>
<path d="M0 0 C0.33 0.99 0.66 1.98 1 3 C1.66 3 2.32 3 3 3 C3.66 4.65 4.32 6.3 5 8 C3.68 8.33 2.36 8.66 1 9 C0.67 7.02 0.34 5.04 0 3 C-0.99 2.67 -1.98 2.34 -3 2 C-2.01 1.34 -1.02 0.68 0 0 Z " fill="#D8FFFF" transform="translate(39,615)"/>
<path d="M0 0 C0 3 0 3 -1.53125 4.60546875 C-2.1809375 5.12753906 -2.830625 5.64960938 -3.5 6.1875 C-4.1496875 6.71730469 -4.799375 7.24710937 -5.46875 7.79296875 C-5.9740625 8.19128906 -6.479375 8.58960938 -7 9 C-7 6 -7 6 -5.46875 4.39453125 C-4.49421875 3.61142578 -4.49421875 3.61142578 -3.5 2.8125 C-2.8503125 2.28269531 -2.200625 1.75289063 -1.53125 1.20703125 C-1.0259375 0.80871094 -0.520625 0.41039062 0 0 Z " fill="#E2F1F1" transform="translate(624,497)"/>
<path d="M0 0 C5.625 -0.25 5.625 -0.25 9 2 C8.67 2.99 8.34 3.98 8 5 C7.01 4.34 6.02 3.68 5 3 C1.87478167 2.83300768 1.87478167 2.83300768 -1 3 C-0.67 2.01 -0.34 1.02 0 0 Z " fill="#EBF5F5" transform="translate(425,142)"/>
<path d="M0 0 C2 1 2 1 3 3 C-1.67201205 4.20568053 -6.21496292 4.09382426 -11 4 C-10.67 3.34 -10.34 2.68 -10 2 C-9.0925 2.04125 -8.185 2.0825 -7.25 2.125 C-4.06287624 2.00241832 -2.72251062 1.45848783 0 0 Z " fill="#E7FFFF" transform="translate(575,691)"/>
<path d="M0 0 C0.99 0.33 1.98 0.66 3 1 C3 3.31 3 5.62 3 8 C2.34 8 1.68 8 1 8 C-0.42944945 5.64561267 -1.08661261 4.51967567 -0.625 1.75 C-0.41875 1.1725 -0.2125 0.595 0 0 Z " fill="#A6FFFF" transform="translate(654,77)"/>
<path d="M0 0 C0.66 0 1.32 0 2 0 C1.67 1.32 1.34 2.64 1 4 C0.34 4 -0.32 4 -1 4 C-0.67 2.68 -0.34 1.36 0 0 Z " fill="#E1F0F0" transform="translate(400,345)"/>
<path d="M0 0 C2.125 0.9375 2.125 0.9375 4 2 C3.01 3.32 2.02 4.64 1 6 C-0.32 5.34 -1.64 4.68 -3 4 C-2.67 3.01 -2.34 2.02 -2 1 C-1.34 0.67 -0.68 0.34 0 0 Z " fill="#A1FFFF" transform="translate(52,69)"/>
<path d="M0 0 C3.3 0 6.6 0 10 0 C10.33 0.66 10.66 1.32 11 2 C7.75 2.6875 7.75 2.6875 4 3 C2.68 2.01 1.36 1.02 0 0 Z " fill="#EDF6F6" transform="translate(246,639)"/>
<path d="M0 0 C0.66 0 1.32 0 2 0 C5 4.38461538 5 4.38461538 5 7 C3.68 7 2.36 7 1 7 C0.67 4.69 0.34 2.38 0 0 Z " fill="#D6FFFF" transform="translate(49,629)"/>
<path d="M0 0 C1.43088528 2.86177057 0.59991697 4.93375773 0 8 C-0.66 8 -1.32 8 -2 8 C-2.66 6.68 -3.32 5.36 -4 4 C-2.68 2.68 -1.36 1.36 0 0 Z " fill="#EBF5F5" transform="translate(338,325)"/>
<path d="M0 0 C2.86724686 0.57344937 3.8614515 0.8614515 6 3 C6.8563027 5.63233792 7.38929927 8.29546818 8 11 C6.68 10.34 5.36 9.68 4 9 C4.0825 8.2575 4.165 7.515 4.25 6.75 C3.92894816 3.21842973 2.64734383 2.23369636 0 0 Z " fill="#FFFFFF" transform="translate(688,124)"/>
<path d="M0 0 C0 2 0 2 -1.25 3.625 C-3 5 -3 5 -7 5 C-6.625 3.0625 -6.625 3.0625 -6 1 C-4 0 -4 0 0 0 Z " fill="#93FFFF" transform="translate(76,50)"/>
<path d="M0 0 C0.99 0.33 1.98 0.66 3 1 C2.8125 2.875 2.8125 2.875 2 5 C-0.5625 6.25 -0.5625 6.25 -3 7 C-3 6.01 -3 5.02 -3 4 C-2.01 4 -1.02 4 0 4 C0 2.68 0 1.36 0 0 Z " fill="#FFFFFF" transform="translate(105,23)"/>
<path d="M0 0 C0.66 0.33 1.32 0.66 2 1 C0.02 3.31 -1.96 5.62 -4 8 C-4 4.09161134 -2.49432124 2.88405893 0 0 Z " fill="#E3F2F2" transform="translate(598,532)"/>
<path d="M0 0 C0.66 0.66 1.32 1.32 2 2 C0.37660195 3.70884005 -1.29319053 5.37446717 -3 7 C-3.66 7 -4.32 7 -5 7 C-3.70700306 4.11562221 -2.34058637 2.12780579 0 0 Z " fill="#E1F1F1" transform="translate(434,301)"/>
<path d="M0 0 C2 1 2 1 3 3 C1.824375 3.185625 1.824375 3.185625 0.625 3.375 C-2.14057822 3.79117993 -2.14057822 3.79117993 -4 6 C-4.66 5.67 -5.32 5.34 -6 5 C-6 4.34 -6 3.68 -6 3 C-4.03533587 1.93224776 -2.03144641 0.93446535 0 0 Z " fill="#FFFFFF" transform="translate(624,653)"/>
<path d="M0 0 C1.9375 0.75 1.9375 0.75 4 2 C4.75 4.125 4.75 4.125 5 6 C2.525 5.01 2.525 5.01 0 4 C0 2.68 0 1.36 0 0 Z " fill="#B2FFFF" transform="translate(6,572)"/>
<path d="M0 0 C0.66 0.66 1.32 1.32 2 2 C1.67 2.99 1.34 3.98 1 5 C0.65772583 6.33106622 0.32248257 7.66400079 0 9 C-0.66 8.34 -1.32 7.68 -2 7 C-1.43181818 1.43181818 -1.43181818 1.43181818 0 0 Z " fill="#E7F3F3" transform="translate(146,269)"/>
<path d="M0 0 C0.66 0.33 1.32 0.66 2 1 C2.125 3.875 2.125 3.875 2 7 C1.34 7.66 0.68 8.32 0 9 C-0.87890625 2.84765625 -0.87890625 2.84765625 -1 1 C-0.67 0.67 -0.34 0.34 0 0 Z " fill="#E8F4F4" transform="translate(54,232)"/>
<path d="M0 0 C0.66 0.66 1.32 1.32 2 2 C1.34 3.32 0.68 4.64 0 6 C-0.66 5.01 -1.32 4.02 -2 3 C-3.65 4.32 -5.3 5.64 -7 7 C-6.875 5.1875 -6.875 5.1875 -6 3 C-2.9375 1.25 -2.9375 1.25 0 0 Z " fill="#FFFFFF" transform="translate(86,38)"/>
<path d="M0 0 C0.33 0 0.66 0 1 0 C3.21538462 7.38461538 3.21538462 7.38461538 2.125 10.5 C1.75375 10.995 1.3825 11.49 1 12 C-0.46116377 9.07767246 -0.65999005 6.23009453 -1 3 C-0.67 2.01 -0.34 1.02 0 0 Z " fill="#FFFFFF" transform="translate(685,116)"/>
<path d="M0 0 C0.99 0.33 1.98 0.66 3 1 C1 4 1 4 -2 5 C-2 2 -2 2 0 0 Z " fill="#DCEEEE" transform="translate(185,69)"/>
<path d="M0 0 C2.31 0.33 4.62 0.66 7 1 C6.67 1.66 6.34 2.32 6 3 C3.36 3 0.72 3 -2 3 C-1.34 2.01 -0.68 1.02 0 0 Z " fill="#E8F3F3" transform="translate(226,51)"/>
<path d="M0 0 C1.61949011 2.57213134 2.04408751 3.67669159 1.625 6.75 C1.41875 7.4925 1.2125 8.235 1 9 C0.01 9 -0.98 9 -2 9 C-1.125 1.125 -1.125 1.125 0 0 Z " fill="#E6F2F2" transform="translate(634,471)"/>
<path d="M0 0 C2.97 0 5.94 0 9 0 C7.515 1.485 7.515 1.485 6 3 C2.3125 2.6875 2.3125 2.6875 -1 2 C-0.67 1.34 -0.34 0.68 0 0 Z " fill="#EFFFFF" transform="translate(136,0)"/>
<path d="M0 0 C-0.99 0.495 -0.99 0.495 -2 1 C-2 1.99 -2 2.98 -2 4 C-3.32 3.34 -4.64 2.68 -6 2 C-6 1.34 -6 0.68 -6 0 C-3 -1 -3 -1 0 0 Z " fill="#96FFFF" transform="translate(31,601)"/>
<path d="M0 0 C0.33 0.66 0.66 1.32 1 2 C1.99 2.33 2.98 2.66 4 3 C2.35 4.32 0.7 5.64 -1 7 C-1 6.34 -1 5.68 -1 5 C-2.32 4.67 -3.64 4.34 -5 4 C-4.0409375 3.8453125 -4.0409375 3.8453125 -3.0625 3.6875 C-2.381875 3.460625 -1.70125 3.23375 -1 3 C-0.67 2.01 -0.34 1.02 0 0 Z " fill="#FFFFFF" transform="translate(68,53)"/>
<path d="M0 0 C0.433125 0.9590625 0.433125 0.9590625 0.875 1.9375 C1.82823451 4.15206079 1.82823451 4.15206079 4 5 C3.67 5.99 3.34 6.98 3 8 C3 7.34 3 6.68 3 6 C1.68 5.67 0.36 5.34 -1 5 C-1.33 3.68 -1.66 2.36 -2 1 C-1.34 0.67 -0.68 0.34 0 0 Z " fill="#D7FFFF" transform="translate(581,13)"/>
<path d="M0 0 C0.99 0.99 1.98 1.98 3 3 C2.01 3.33 1.02 3.66 0 4 C0 2.68 0 1.36 0 0 Z " fill="#CCFFFF" transform="translate(0,141)"/>
<path d="M0 0 C1.65 0 3.3 0 5 0 C5 0.33 5 0.66 5 1 C3.35 1 1.7 1 0 1 C0 0.67 0 0.34 0 0 Z " fill="#EEFFFF" transform="translate(129,694)"/>
<path d="M0 0 C0.66 0 1.32 0 2 0 C2 0.66 2 1.32 2 2 C1.34 2 0.68 2 0 2 C0 1.34 0 0.68 0 0 Z " fill="#CFFFFF" transform="translate(0,560)"/>
<path d="M0 0 C3 1 3 1 3 1 Z " fill="#FFFFFF" transform="translate(675,595)"/>
<path d="M0 0 C3 1 3 1 3 1 Z " fill="#FFFFFF" transform="translate(1,137)"/>
<path d="M0 0 C3 1 3 1 3 1 Z " fill="#FFFFFF" transform="translate(29,98)"/>
</svg>
