<?xml version="1.0" encoding="UTF-8"?>
<svg version="1.1" xmlns="http://www.w3.org/2000/svg" width="494" height="494">
<path d="M0 0 C1.37721062 1.33131132 2.74799623 2.66925974 4.1184082 4.00756836 C4.82352539 4.65081055 5.52864258 5.29405273 6.25512695 5.95678711 C29.08327248 27.30318688 40.88761617 59.12153125 42.39575195 89.81616211 C43.45291172 124.91098987 30.04858155 157.57311976 6.1184082 183.00756836 C-16.76576142 206.78251 -48.8526286 220.48195177 -81.72412109 221.359375 C-113.45987 221.63635214 -142.30134342 211.06387444 -166.5847168 190.74584961 C-168.6673054 188.80641303 -168.6673054 188.80641303 -170.8815918 189.00756836 C-171.25670898 189.74362305 -171.63182617 190.47967773 -172.01831055 191.23803711 C-177.48147 201.65519507 -184.88077408 209.36277865 -195.8815918 214.00756836 C-205.24719703 216.36131449 -216.09670181 216.13845092 -224.8815918 212.00756836 C-226.0159668 211.49194336 -227.1503418 210.97631836 -228.3190918 210.44506836 C-236.06145125 205.72367626 -242.76132756 198.55201288 -245.8815918 190.00756836 C-246.2940918 188.97631836 -246.7065918 187.94506836 -247.1315918 186.88256836 C-249.18069616 176.29552914 -248.83464114 165.55054658 -243.18237305 156.19506836 C-236.87056425 147.06836644 -229.9304212 139.73975172 -218.8815918 137.00756836 C-214.21637161 136.43413504 -209.57872913 136.14293255 -204.8815918 136.00756836 C-205.02781982 135.40807373 -205.17404785 134.8085791 -205.32470703 134.19091797 C-205.99290498 131.44311625 -206.65603284 128.69411446 -207.3190918 125.94506836 C-207.54918945 125.00211914 -207.77928711 124.05916992 -208.01635742 123.08764648 C-215.80812623 90.67840521 -210.06270971 56.61152811 -192.79077148 28.21411133 C-187.89664833 20.49645559 -182.21087329 13.58710151 -175.8815918 7.00756836 C-174.59961914 5.64825195 -174.59961914 5.64825195 -173.29174805 4.26147461 C-127.70487514 -42.8951041 -47.89428473 -45.45727202 0 0 Z " fill="#FEFEFE" transform="translate(336.881591796875,198.992431640625)"/>
<path d="M0 0 C1.13888672 -0.00386719 2.27777344 -0.00773438 3.45117188 -0.01171875 C5.07055664 -0.00978516 5.07055664 -0.00978516 6.72265625 -0.0078125 C7.70113525 -0.00668457 8.67961426 -0.00555664 9.68774414 -0.00439453 C11.9375 0.125 11.9375 0.125 12.9375 1.125 C14.95314712 1.45058177 16.97549394 1.73502447 19 2 C24.40410837 2.80474222 28.95179379 3.97485551 33.9375 6.125 C35.28908203 6.61419922 35.28908203 6.61419922 36.66796875 7.11328125 C51.25437767 12.6044132 63.29201186 22.56192747 69.9296875 36.765625 C70.42855469 37.93351562 70.42855469 37.93351562 70.9375 39.125 C71.28063232 39.88901123 71.62376465 40.65302246 71.97729492 41.44018555 C75.30794538 50.75296537 74.51471051 65.83187325 70.9375 74.9375 C67.91035849 80.76089934 64.03685191 86.01657686 59.9375 91.125 C59.3703125 91.8571875 58.803125 92.589375 58.21875 93.34375 C53.82835821 98.72819276 48.75304718 102.3870182 42.9375 106.125 C41.48537109 107.11693359 41.48537109 107.11693359 40.00390625 108.12890625 C17.11865855 123.18574213 -11.31082305 126.32944044 -38.0625 123.125 C-40.416748 122.536438 -42.75592986 121.87907101 -45.0625 121.125 C-48.05321673 120.41476517 -51.05620872 119.76579678 -54.0625 119.125 C-54.0625 118.465 -54.0625 117.805 -54.0625 117.125 C-55.37347656 116.95097656 -55.37347656 116.95097656 -56.7109375 116.7734375 C-68.96476094 114.40265115 -79.52343323 105.32117253 -87 95.625 C-91.17666941 89.11753005 -94.63801034 81.90731039 -95.0625 74.125 C-95.13791016 73.09246094 -95.13791016 73.09246094 -95.21484375 72.0390625 C-95.96759412 53.91283366 -89.68281876 41.60381885 -78.0625 28.125 C-57.88773035 6.86859935 -28.17633664 -0.0986912 0 0 Z " fill="#37436B" transform="translate(291.0625,205.875)"/>
<path d="M0 0 C0.763125 1.03125 1.52625 2.0625 2.3125 3.125 C13.8932479 15.71276945 27.37212003 24.9819279 42.3125 33.125 C42.99103027 33.49786133 43.66956055 33.87072266 44.36865234 34.25488281 C54.02619181 39.50308839 63.68862102 43.32667353 74.3125 46.125 C75.45460937 46.4446875 76.59671875 46.764375 77.7734375 47.09375 C105.25070447 53.76239007 132.28390865 46.89915418 158.3125 38.125 C158.3125 38.785 158.3125 39.445 158.3125 40.125 C156.19539559 41.63809791 154.10833283 42.98895119 151.875 44.3125 C151.20339844 44.71106201 150.53179687 45.10962402 149.83984375 45.52026367 C121.2509002 62.02022475 86.68035757 66.86763614 54.71777344 58.44091797 C35.73026001 53.04127856 19.73018656 44.51494295 4.609375 31.86328125 C2.5267864 29.92384467 2.5267864 29.92384467 0.3125 30.125 C-0.06261719 30.86105469 -0.43773437 31.59710938 -0.82421875 32.35546875 C-6.28737821 42.77262671 -13.68668228 50.4802103 -24.6875 55.125 C-34.05310524 57.47874613 -44.90261001 57.25588256 -53.6875 53.125 C-54.821875 52.609375 -55.95625 52.09375 -57.125 51.5625 C-64.86735945 46.8411079 -71.56723576 39.66944452 -74.6875 31.125 C-75.1 30.09375 -75.5125 29.0625 -75.9375 28 C-77.66362846 19.08166963 -78.06466478 8.39297791 -73.6875 0.125 C-72.6975 -0.205 -71.7075 -0.535 -70.6875 -0.875 C-70.74550781 0.34574219 -70.80351563 1.56648438 -70.86328125 2.82421875 C-71.25098963 14.65293639 -70.45298922 23.97676617 -63.6875 34.125 C-62.92566406 33.29097656 -62.16382812 32.45695312 -61.37890625 31.59765625 C-58.68055273 28.65120351 -55.96664002 25.7196267 -53.24316406 22.79638672 C-51.91535115 21.36980053 -50.59374377 19.93744266 -49.2734375 18.50390625 C-37.47988032 6.13139262 -22.39563899 -0.89191392 -5.375 -2.01953125 C-2.6875 -1.875 -2.6875 -1.875 0 0 Z " fill="#E6E7E7" transform="translate(165.6875,357.875)"/>
<path d="M0 0 C8.46450864 8.22894717 12.32904359 17.11000412 12.60546875 28.796875 C12.56878894 38.90867058 9.35863793 48.38327934 2.90625 56.26953125 C-6.43412044 65.48833504 -16.23738581 69.29158027 -29.15625 69.29785156 C-34.59652836 69.21036171 -38.99326425 68.35157755 -43.89453125 66.046875 C-45.02890625 65.53125 -46.16328125 65.015625 -47.33203125 64.484375 C-55.0743907 59.7629829 -61.77426701 52.59131952 -64.89453125 44.046875 C-65.30703125 43.015625 -65.71953125 41.984375 -66.14453125 40.921875 C-68.19363562 30.33483578 -67.84758059 19.58985322 -62.1953125 10.234375 C-54.82113525 -0.42848248 -47.27822806 -6.6072008 -34.64453125 -9.765625 C-21.37465254 -10.42911894 -10.38342362 -8.60078275 0 0 Z " fill="#FEFEFE" transform="translate(451.89453125,234.953125)"/>
<path d="M0 0 C0.66 0.33 1.32 0.66 2 1 C1.5153125 1.62003906 1.030625 2.24007812 0.53125 2.87890625 C-8.37100815 14.64015885 -14.59606064 27.21876048 -19.36376953 41.14794922 C-19.94010215 42.82563888 -20.54462955 44.49357731 -21.15234375 46.16015625 C-28.71534927 68.27837994 -32.22249565 101.45548462 -21.93310547 123.26098633 C-21.62518066 123.83486084 -21.31725586 124.40873535 -21 125 C-20.26136719 124.32195312 -19.52273437 123.64390625 -18.76171875 122.9453125 C-16.62571607 120.98476465 -14.48711045 119.02709261 -12.34765625 117.0703125 C-10.3040153 115.19994056 -8.27145478 113.32002446 -6.24609375 111.4296875 C-0.12882612 105.75913539 6.24063879 100.54055624 12.8359375 95.4453125 C14.83692799 93.898868 16.82346976 92.33338162 18.7890625 90.7421875 C22.62765409 87.71743158 25.15507593 87.91027918 30 88 C30.99 91.465 30.99 91.465 32 95 C31.34 94.67 30.68 94.34 30 94 C26.78044085 93.59559196 24.18850638 93.31419234 21.29492188 94.98388672 C19.53128064 96.39615315 17.88890208 97.8822439 16.25 99.4375 C15.01410427 100.55588594 13.77711505 101.67306462 12.5390625 102.7890625 C11.93610352 103.34110352 11.33314453 103.89314453 10.71191406 104.46191406 C8.42788837 106.51401929 6.03561664 108.41168144 3.625 110.3125 C-1.3156887 114.32126239 -5.97844173 118.59554145 -10.625 122.9375 C-11.3370459 123.60112549 -12.0490918 124.26475098 -12.78271484 124.94848633 C-13.44480957 125.57263428 -14.1069043 126.19678223 -14.7890625 126.83984375 C-15.38412598 127.40050537 -15.97918945 127.96116699 -16.59228516 128.53881836 C-18.10733666 129.96592698 -18.10733666 129.96592698 -19 132 C-17.7536643 134.54276055 -16.46086619 136.98053594 -15.0625 139.4375 C-11 146.6062187 -11 146.6062187 -11 150 C-11.4125 149.61328125 -11.825 149.2265625 -12.25 148.828125 C-17.01271951 144.53317258 -21.97083691 140.831098 -28.3671875 139.51171875 C-30.93160937 138.96099864 -32.78152265 138.41175831 -35 137 C-37.25713621 133.22940829 -38.08054059 129.26759189 -39 125 C-39.29648438 123.80503906 -39.59296875 122.61007812 -39.8984375 121.37890625 C-47.0938618 89.71422096 -40.66999141 55.76359823 -23.90917969 28.20654297 C-17.22864213 17.67184913 -8.92081166 8.66265312 0 0 Z " fill="#E6E6E6" transform="translate(168,199)"/>
<path d="M0 0 C2.20883695 2.20883695 1.37015579 7.38501788 1.38720703 10.4296875 C1.18669637 20.63094909 -2.66918927 30.74070937 -10 38 C-17.74455732 43.99239503 -27.63849581 43.72089674 -37 43 C-46.13394433 40.94544954 -54.77128989 36.04115056 -61 29 C-58.46469087 19.98556755 -48.99615996 11.98090216 -41.2109375 7.3359375 C-27.83352795 0.3188467 -14.99289762 -1.29418159 0 0 Z " fill="#FEFEFE" transform="translate(463,255)"/>
<path d="M0 0 C2.00175949 8.32990238 2.57776055 20.02210918 -0.71484375 28.046875 C-5.80422399 35.78149542 -15.22243296 40.77991279 -24 43 C-37.02482439 44.35729633 -49.17261432 42.70410135 -60 35 C-53.32747641 20.13375573 -38.04319699 8.44764969 -23.58203125 1.90625 C-15.97450362 -0.84622231 -7.96622678 -0.26685871 0 0 Z " fill="#FEFEFE" transform="translate(166,362)"/>
<path d="M0 0 C0.66 0 1.32 0 2 0 C2.08636719 1.01578125 2.17273438 2.0315625 2.26171875 3.078125 C3.64064737 17.71109415 3.64064737 17.71109415 11 30 C11.40089844 29.443125 11.80179687 28.88625 12.21484375 28.3125 C22.07317056 15.07864632 35.39012594 5.88695508 51.703125 2.39453125 C58.75476082 1.55067436 65.92272843 1.42636852 73 2 C75 4 75 4 75 7 C74.43192627 7.0093457 73.86385254 7.01869141 73.27856445 7.02832031 C61.92450986 7.26244819 51.61208216 7.62064778 41 12 C40.14664063 12.32613281 39.29328125 12.65226562 38.4140625 12.98828125 C28.72128032 17.19256374 20.53019091 25.10189662 15 34 C18.02557769 41.05461331 25.16458137 44.35792407 31.921875 47.23828125 C36.34927838 48.86110768 40.13471873 49.13519415 44.875 49.125 C46.06867188 49.12757813 47.26234375 49.13015625 48.4921875 49.1328125 C51.75347351 49.00933396 54.79938334 48.61663257 58 48 C57 51 57 51 55.328125 52.1328125 C54.29945313 52.62394531 54.29945313 52.62394531 53.25 53.125 C52.57453125 53.45757812 51.8990625 53.79015625 51.203125 54.1328125 C42.51471148 57.55271995 30.5333119 57.41442329 21.90234375 53.89453125 C21.27457031 53.59933594 20.64679688 53.30414063 20 53 C18.865625 52.484375 17.73125 51.96875 16.5625 51.4375 C8.82014055 46.7161079 2.12026424 39.54444452 -1 31 C-1.4125 29.96875 -1.825 28.9375 -2.25 27.875 C-4.11073198 18.26121812 -3.53330533 9.12770544 0 0 Z " fill="#E6E7E7" transform="translate(388,248)"/>
<path d="M0 0 C5.09299988 2.80716529 7.99672579 6.99017736 9.8125 12.4375 C10.87655093 23.95965149 10.87655093 23.95965149 7.5625 28.5625 C4.8125 30.4375 4.8125 30.4375 2.5 31.6875 C0.4142705 33.85047874 0.54070488 34.62157253 0.5 37.5625 C0.6655006 41.60733466 1.15467665 45.59321292 1.7890625 49.58984375 C1.79679687 50.19957031 1.80453125 50.80929688 1.8125 51.4375 C-0.1875 53.4375 -0.1875 53.4375 -2.625 53.8125 C-5.1875 53.4375 -5.1875 53.4375 -6.7734375 51.71484375 C-10.13891582 46.2947502 -10.79858826 38.67060022 -10.1875 32.4375 C-8.66213404 28.75867621 -6.5632041 26.89351575 -3.5 24.5 C-0.5650586 22.08987608 -0.5650586 22.08987608 0.4375 18.375 C-0.24822485 15.15209322 -1.22693873 13.0767171 -3.1875 10.4375 C-6.02833641 9.01708179 -8.04227278 9.12297728 -11.1875 9.4375 C-15.01948053 12.0651438 -16.16308634 15.48130469 -17.57421875 19.73046875 C-18.1875 21.4375 -18.1875 21.4375 -19.1875 22.4375 C-21.625 22.625 -21.625 22.625 -24.1875 22.4375 C-26.1875 20.4375 -26.1875 20.4375 -26.5625 16.75 C-26.3954108 11.31468669 -24.22114784 7.48963555 -20.46875 3.703125 C-14.30290773 -1.78342956 -7.76868184 -3.44293854 0 0 Z " fill="#308ABB" transform="translate(368.1875,134.5625)"/>
<path d="M0 0 C3.07429632 3.61766032 4.15609301 6.76418903 5.39453125 11.27734375 C5.73097656 12.35918945 5.73097656 12.35918945 6.07421875 13.46289062 C7.57135199 18.67946426 7.58980756 22.63672907 6.51953125 27.96484375 C4.64339198 30.60849454 3.66229282 30.91725656 0.51953125 31.96484375 C-5.73798035 32.53370844 -5.73798035 32.53370844 -8.53515625 30.390625 C-10.9102305 27.42893603 -12.05364052 24.41412102 -13.16796875 20.83984375 C-13.37856934 20.17549316 -13.58916992 19.51114258 -13.80615234 18.82666016 C-17.13760327 7.9076382 -17.13760327 7.9076382 -16.48046875 2.96484375 C-14.35427792 -0.01182342 -12.81103781 -1.45303229 -9.48046875 -2.91015625 C-5.39292409 -3.16562779 -3.21589872 -2.63855627 0 0 Z " fill="#89FCFD" transform="translate(257.48046875,254.03515625)"/>
<path d="M0 0 C2.52346645 0.34806434 3.75869483 0.75929064 5.58203125 2.578125 C7.47562294 5.81235874 8.5919895 9.18876344 9.6875 12.75 C9.91244141 13.42804688 10.13738281 14.10609375 10.36914062 14.8046875 C12.05122875 20.18327933 13.44362077 26.11275846 10.8125 31.375 C7.64016979 34.21915812 5.19785924 35.04889221 0.9375 34.875 C-2.54160997 33.83866937 -3.67276246 32.75459454 -6 30 C-7.265625 27.16015625 -7.265625 27.16015625 -8.25 24.0625 C-8.58515625 23.04285156 -8.9203125 22.02320313 -9.265625 20.97265625 C-10.49579028 15.99310426 -10.49579028 15.99310426 -10 13 C-8.40371172 10.56851089 -6.83796622 8.4154131 -5 6.1875 C-4.52304687 5.59001953 -4.04609375 4.99253906 -3.5546875 4.37695312 C-2.38055765 2.90929082 -1.19169197 1.45343861 0 0 Z " fill="#87FBFC" transform="translate(330,233)"/>
<path d="M0 0 C0.33 0 0.66 0 1 0 C1 3.3 1 6.6 1 10 C1.886875 9.896875 2.77375 9.79375 3.6875 9.6875 C8.01277976 10.09554526 9.20885676 11.81012201 12 15 C12.33 15 12.66 15 13 15 C13.33 19.29 13.66 23.58 14 28 C13.34 28 12.68 28 12 28 C11.63648438 27.20335937 11.63648438 27.20335937 11.265625 26.390625 C9.32905921 22.30894018 7.63550911 18.84024149 4 16 C2.68 15.67 1.36 15.34 0 15 C0 10.05 0 5.1 0 0 Z " fill="#E3E4E5" transform="translate(364,254)"/>
<path d="M0 0 C4.49807277 0.48627814 4.49807277 0.48627814 6.49609375 2.53125 C8.57192618 5.93885025 9.62945175 9.43748376 10.75 13.25 C10.98332031 13.97574219 11.21664063 14.70148438 11.45703125 15.44921875 C13.01426182 20.68039448 13.32829827 24.66350343 12 30 C9.94433594 31.22363281 9.94433594 31.22363281 8 32 C8.22171875 30.71996094 8.4434375 29.43992187 8.671875 28.12109375 C9.28122898 22.60557585 8.02392502 18.25001009 6.25 13.0625 C5.98445313 12.21365234 5.71890625 11.36480469 5.4453125 10.49023438 C3.92657151 5.42244227 3.92657151 5.42244227 0 2 C0 1.34 0 0.68 0 0 Z " fill="#F3F9FA" transform="translate(252,252)"/>
<path d="M0 0 C2.49390104 0.34398635 3.72283488 0.70514349 5.46875 2.5625 C7.4874164 5.77588734 8.5801418 9.15024947 9.6875 12.75 C9.91244141 13.42804688 10.13738281 14.10609375 10.36914062 14.8046875 C11.89848018 19.69485532 12.37621098 23.87480696 12 29 C11.34 29.99 10.68 30.98 10 32 C9.34 32 8.68 32 8 32 C8.12375 30.72125 8.2475 29.4425 8.375 28.125 C8.42944232 18.65203698 4.31846457 8.35058352 0 0 Z " fill="#F5FBFC" transform="translate(330,233)"/>
<path d="M0 0 C2.5 0.25 2.5 0.25 4.5 2.25 C4.625 5.875 4.625 5.875 4.5 9.25 C2.25 10.4375 2.25 10.4375 -0.5 11.25 C-2.8125 10.25 -2.8125 10.25 -4.5 8.25 C-4.875 5.1875 -4.875 5.1875 -4.5 2.25 C-2.5 0.25 -2.5 0.25 0 0 Z " fill="#96CCE1" transform="translate(369.5,188.75)"/>
<path d="M0 0 C2.62576116 2.62576116 3.82732819 4.48198458 5 8 C4.34 8 3.68 8 3 8 C1.98133771 6.34467377 0.98189187 4.67739862 0 3 C-2.84083641 1.57958179 -4.85477278 1.68547728 -8 2 C-10.84780619 4.23206431 -11.84997666 5.54992999 -13 9 C-13.66 9 -14.32 9 -15 9 C-13.68745073 5.0623522 -12.1247232 2.7341328 -9 0 C-5.77839187 -1.61080407 -3.42436421 -0.82657067 0 0 Z " fill="#93C9E0" transform="translate(365,142)"/>
<path d="M0 0 C4.29 0 8.58 0 13 0 C13 0.99 13 1.98 13 3 C8.71 3 4.42 3 0 3 C0 2.01 0 1.02 0 0 Z " fill="#FFFFFF" transform="translate(137,445)"/>
<path d="M0 0 C2.00720923 0.28674418 4.0085944 0.61866701 6 1 C6 2.32 6 3.64 6 5 C3.625 6.0625 3.625 6.0625 1 7 C0.34 6.67 -0.32 6.34 -1 6 C-1.042721 4.33388095 -1.04063832 2.66617115 -1 1 C-0.67 0.67 -0.34 0.34 0 0 Z " fill="#1176AF" transform="translate(368,191)"/>
<path d="M0 0 C2.375 -0.1875 2.375 -0.1875 5 0 C5.66 0.99 6.32 1.98 7 3 C6.071875 2.979375 5.14375 2.95875 4.1875 2.9375 C0.97713989 2.84230396 0.97713989 2.84230396 -2 4 C-1.34 2.68 -0.68 1.36 0 0 Z " fill="#A9D8E8" transform="translate(367,189)"/>
<path d="M0 0 C0 3 0 3 -1.4375 4.5 C-1.953125 4.995 -2.46875 5.49 -3 6 C-3.33 6.99 -3.66 7.98 -4 9 C-4.66 9 -5.32 9 -6 9 C-4.68775452 5.06326356 -3.08089673 2.77280706 0 0 Z " fill="#9DD0E4" transform="translate(356,142)"/>
<path d="M0 0 C2 1 2 1 2 1 Z " fill="#FFFFFF" transform="translate(492,302)"/>
<path d="" fill="#FFFFFF" transform="translate(0,0)"/>
<path d="" fill="#FFFFFF" transform="translate(0,0)"/>
<path d="" fill="#FFFFFF" transform="translate(0,0)"/>
<path d="" fill="#FFFFFF" transform="translate(0,0)"/>
<path d="" fill="#FFFFFF" transform="translate(0,0)"/>
</svg>
