<?xml version="1.0" encoding="UTF-8"?>
<svg version="1.1" xmlns="http://www.w3.org/2000/svg" width="494" height="494">
<path d="M0 0 C26.19943003 22.01150972 42.24128848 52.63742251 45.80371094 86.69677734 C48.46138259 117.88144698 39.78125076 150.4938159 20 175 C19.58347168 175.52190918 19.16694336 176.04381836 18.73779297 176.58154297 C-1.43676906 201.72782522 -29.05684214 218.73018969 -61 224 C-62.04027344 224.18304688 -63.08054687 224.36609375 -64.15234375 224.5546875 C-96.60844553 228.31102821 -130.62725367 220.65501325 -156.78125 200.61328125 C-162.11840447 196.35680364 -167.08481238 191.7309602 -172 187 C-172.64324219 186.41992188 -173.28648437 185.83984375 -173.94921875 185.2421875 C-194.00822893 166.63266291 -206.87060651 136.03248791 -208.14257812 108.96606445 C-209.12371436 74.23334129 -201.75103304 41.35947414 -177.98046875 14.73828125 C-176.35805678 13.10879994 -174.69550907 11.55256217 -173 10 C-170.58401412 7.59965157 -168.18269103 5.18790147 -165.80859375 2.74609375 C-153.52323109 -9.21543727 -138.10007773 -17.40169924 -122 -23 C-121.23300781 -23.30164063 -120.46601563 -23.60328125 -119.67578125 -23.9140625 C-79.69039274 -38.99426617 -32.04898962 -26.26059309 0 0 Z " fill="#FDFDFE" transform="translate(331,144)"/>
<path d="M0 0 C2.96350716 1.07567534 5.94286711 1.86015808 8.9921875 2.66015625 C41.5477011 11.84066985 41.5477011 11.84066985 48.6796875 18.97265625 C48.62832886 27.97325813 47.17207707 36.36258321 44.6796875 44.97265625 C44.43734375 45.95234375 44.195 46.93203125 43.9453125 47.94140625 C38.61240912 67.86432831 26.2783641 83.8137933 13.0625 99.16015625 C10.72224976 101.84368092 10.72224976 101.84368092 8.984375 104.34765625 C8.55382812 104.88390625 8.12328125 105.42015625 7.6796875 105.97265625 C7.0196875 105.97265625 6.3596875 105.97265625 5.6796875 105.97265625 C5.6796875 106.63265625 5.6796875 107.29265625 5.6796875 107.97265625 C5.0196875 107.97265625 4.3596875 107.97265625 3.6796875 107.97265625 C3.6796875 108.63265625 3.6796875 109.29265625 3.6796875 109.97265625 C1.7734375 111.70703125 1.7734375 111.70703125 -0.8203125 113.72265625 C-1.73683594 114.43550781 -2.65335938 115.14835937 -3.59765625 115.8828125 C-4.49613281 116.57246094 -5.39460937 117.26210938 -6.3203125 117.97265625 C-7.02285156 118.52824219 -7.72539062 119.08382812 -8.44921875 119.65625 C-16.67658403 126.05531188 -25.63758469 130.20715099 -35.3203125 133.97265625 C-36.02414062 134.24980469 -36.72796875 134.52695312 -37.453125 134.8125 C-50.20807136 139.43929427 -63.90794809 141.4008271 -77.32299805 142.93359375 C-78.66938354 143.09601563 -78.66938354 143.09601563 -80.04296875 143.26171875 C-80.84484619 143.35146973 -81.64672363 143.4412207 -82.47290039 143.53369141 C-83.08254639 143.6785498 -83.69219238 143.8234082 -84.3203125 143.97265625 C-84.6503125 144.63265625 -84.9803125 145.29265625 -85.3203125 145.97265625 C-97.06269957 143.63289843 -107.57223266 140.2545018 -118.3203125 134.97265625 C-119.81691406 134.245625 -119.81691406 134.245625 -121.34375 133.50390625 C-132.57614631 127.71069326 -142.16489033 119.59868326 -151.3203125 110.97265625 C-151.99578125 110.36164063 -152.67125 109.750625 -153.3671875 109.12109375 C-163.47962579 99.61540176 -170.99228036 87.23671854 -177.3203125 74.97265625 C-178.13242188 73.40257812 -178.13242188 73.40257812 -178.9609375 71.80078125 C-183.37875757 62.04273912 -183.34909182 51.68784094 -180.26171875 41.46875 C-179.95105469 40.64503906 -179.64039063 39.82132812 -179.3203125 38.97265625 C-176.8453125 38.47765625 -176.8453125 38.47765625 -174.3203125 37.97265625 C-173.6603125 39.29265625 -173.0003125 40.61265625 -172.3203125 41.97265625 C-171.6603125 41.97265625 -171.0003125 41.97265625 -170.3203125 41.97265625 C-169.9078125 42.69453125 -169.4953125 43.41640625 -169.0703125 44.16015625 C-166.95779123 47.55527971 -164.4374884 49.4916387 -161.3203125 51.97265625 C-160.68996094 52.62105469 -160.05960938 53.26945312 -159.41015625 53.9375 C-146.56575343 66.44578761 -127.16166916 68.34054646 -110.16040039 68.28833008 C-108.02112495 68.28517588 -105.88324582 68.30869712 -103.74414062 68.33398438 C-88.29635391 68.40393267 -74.03542146 65.1506572 -60.3203125 57.97265625 C-58.69560986 57.18037951 -57.07059397 56.38874489 -55.4453125 55.59765625 C-53.73328106 54.72991429 -52.0249218 53.85488916 -50.3203125 52.97265625 C-49.52753906 52.56660156 -48.73476563 52.16054688 -47.91796875 51.7421875 C-33.5689224 43.81183936 -20.56828031 30.5078079 -15.88671875 14.5 C-15.16984758 11.74960529 -14.57815652 8.99314169 -14.0390625 6.203125 C-13.23577057 2.59267702 -12.37283573 0.6743384 -9.2578125 -1.40234375 C-5.50379019 -2.2010719 -3.52948707 -1.33657625 0 0 Z " fill="#FDFEFE" transform="translate(311.3203125,221.02734375)"/>
<path d="M0 0 C1.5778125 1.0828125 1.5778125 1.0828125 3.1875 2.1875 C11.54291545 10.54291545 17.9866222 22.7835522 18.5 34.6875 C17.64626771 54.14757427 9.19971069 68.83519411 -4.91357422 81.84057617 C-8.69858055 85.16843239 -12.57135681 87.60115161 -17 90 C-18.60648572 90.99627021 -20.21088374 91.9959203 -21.8125 93 C-26.02319717 95.54959645 -30.25364089 97.45077066 -34.87109375 99.140625 C-37.23886485 100.01269157 -37.23886485 100.01269157 -40 102 C-63.88597981 110.26244585 -95.53965232 111.01386559 -118.6875 100.0625 C-123.0435686 97.6693886 -127.15141512 95.14884217 -131 92 C-131 91.34 -131 90.68 -131 90 C-131.556875 89.773125 -132.11375 89.54625 -132.6875 89.3125 C-135.68041199 87.61382022 -137.73527237 85.57927313 -140 83 C-140 82.01 -140 81.02 -140 80 C-140.66 80 -141.32 80 -142 80 C-143.71800625 76.69072567 -145.36776194 73.3523303 -147 70 C-147.40347656 69.22011719 -147.80695313 68.44023437 -148.22265625 67.63671875 C-152.72547306 58.03393737 -152.35530065 46.95921573 -148.84375 37.05859375 C-145.94139735 29.97739077 -141.99473746 21.00104457 -136 16 C-135.34 16 -134.68 16 -134 16 C-133.94457031 15.43410156 -133.88914063 14.86820313 -133.83203125 14.28515625 C-132.61827093 10.95158917 -130.45634426 9.60489994 -127.6875 7.4375 C-126.72199219 6.67308594 -125.75648438 5.90867188 -124.76171875 5.12109375 C-123.85035156 4.42113281 -122.93898437 3.72117188 -122 3 C-121.29617187 2.44441406 -120.59234375 1.88882813 -119.8671875 1.31640625 C-118 0 -118 0 -114.4375 -1.5 C-111.12270587 -2.68793045 -111.12270587 -2.68793045 -109.57421875 -4.46875 C-84.22651361 -29.1245823 -24.51896574 -19.31918507 0 0 Z " fill="#37436C" transform="translate(281,183)"/>
<path d="M0 0 C20.76917182 2.94428873 42.43824759 23.26462713 54.84765625 39.0625 C75.87765693 67.76406172 86.18356057 101.85890932 80.9375 137.375 C77.49630666 158.17121361 69.27106104 178.5590242 56 195 C55.58347168 195.52190918 55.16694336 196.04381836 54.73779297 196.58154297 C34.56323094 221.72782522 6.94315786 238.73018969 -25 244 C-26.03253906 244.18433594 -27.06507813 244.36867188 -28.12890625 244.55859375 C-33.48871921 245.16975305 -38.79720789 245.18428192 -44.1875 245.1875 C-45.24775391 245.19974609 -46.30800781 245.21199219 -47.40039062 245.22460938 C-54.60118791 245.23777354 -62.06362203 245.1187144 -69 243 C-69.66 242.01 -70.32 241.02 -71 240 C-70.18023682 239.89977539 -69.36047363 239.79955078 -68.51586914 239.69628906 C-32.68134362 236.31974902 -32.68134362 236.31974902 -1 221 C0.093125 220.401875 1.18625 219.80375 2.3125 219.1875 C6.48601043 216.8930135 10.02228009 213.84754575 13.66796875 210.8046875 C15.73018959 209.20879801 17.62848458 208.05764136 20 207 C20 206.34 20 205.68 20 205 C20.66 205 21.32 205 22 205 C22 204.34 22 203.68 22 203 C22.66 203 23.32 203 24 203 C24.24878906 202.42894531 24.49757813 201.85789062 24.75390625 201.26953125 C26.18697469 198.65945989 27.88068371 196.84102013 29.9375 194.6875 C41.91320695 181.53732661 50.11557377 167.33138888 57 151 C57.350625 150.17757812 57.70125 149.35515625 58.0625 148.5078125 C60.29125898 142.8430501 61.68341795 137.22363612 62.75 131.25 C62.94142578 130.18676514 62.94142578 130.18676514 63.13671875 129.10205078 C63.87413493 124.67651803 64.11741718 120.48533646 64 116 C48.12852764 108.09526279 31.09977087 101.69405475 14 97 C13.28714844 96.79761719 12.57429688 96.59523438 11.83984375 96.38671875 C9.31844728 95.8567437 7.44925436 96.2718433 5 97 C4.67 97.66 4.34 98.32 4 99 C4 96.69 4 94.38 4 92 C6.69605053 91.10131649 8.4608247 90.80851417 11.25 90.75 C11.97703125 90.72421875 12.7040625 90.6984375 13.453125 90.671875 C16.95998776 91.1236794 19.78046191 92.55759172 23 94 C25.34521889 94.81779286 27.69989349 95.6088882 30.0625 96.375 C31.38444062 96.81020882 32.70604799 97.24643104 34.02734375 97.68359375 C34.68976074 97.90257324 35.35217773 98.12155273 36.03466797 98.34716797 C46.01741502 101.66317612 55.53196083 105.42325681 65 110 C62.07724078 89.27543079 58.0408102 71.46308706 48 53 C47.42121094 51.91589844 46.84242188 50.83179688 46.24609375 49.71484375 C42.7188744 43.37239596 38.66378602 37.86413805 33.91796875 32.375 C32.23599976 30.29223596 31.06719805 28.43930982 30 26 C29.34 26 28.68 26 28 26 C28 25.34 28 24.68 28 24 C27.34 24 26.68 24 26 24 C23.375 21.625 23.375 21.625 21 19 C21 18.34 21 17.68 21 17 C20.43925781 16.74863281 19.87851562 16.49726563 19.30078125 16.23828125 C16.65027931 14.81178021 14.51051917 13.1007898 12.1875 11.1875 C9.15094494 8.70877135 6.11274812 6.33405422 2.875 4.125 C1.92625 3.42375 0.9775 2.7225 0 2 C0 1.34 0 0.68 0 0 Z " fill="#E6E7E7" transform="translate(295,124)"/>
<path d="M0 0 C10.29138011 8.37743442 17.68917982 16.69110658 19.74609375 30.0703125 C20.74503665 41.59657678 17.90890797 50.78812271 11 60 C3.44280759 68.39688046 -5.20896845 74.17546318 -16.6171875 75.3828125 C-29.5836985 75.78055824 -38.91677667 72.9124742 -48.66015625 64.2734375 C-57.16265532 56.01224475 -61.19858589 45.24149561 -61.625 33.375 C-61.17425898 22.22204913 -57.10133343 14.14467008 -49.390625 6.19140625 C-36.40447454 -5.71256501 -15.39888227 -11.11451583 0 0 Z " fill="#FCFEFE" transform="translate(114,289)"/>
<path d="M0 0 C8.13423224 7.22120617 14.36583539 15.81244284 15.13671875 26.90234375 C15.48013286 40.69863243 11.76756056 50.86894313 2.5546875 61.10546875 C-4.98857242 68.43320696 -15.78920392 71.80548641 -26.1484375 72.19921875 C-38.18717658 71.64625829 -47.38118838 66.85708996 -55.68066406 58.34228516 C-59.62204956 53.73395917 -61.92124537 48.31922388 -64.0859375 42.69921875 C-64.38113281 41.95800781 -64.67632812 41.21679688 -64.98046875 40.453125 C-67.9777263 31.15195803 -65.32148439 20.18295595 -61.0859375 11.69921875 C-55.59156954 3.2010961 -55.59156954 3.2010961 -51.0859375 1.69921875 C-50.7559375 0.70921875 -50.4259375 -0.28078125 -50.0859375 -1.30078125 C-33.94494981 -11.9084872 -15.20295539 -12.02305437 0 0 Z " fill="#FDFEFE" transform="translate(434.0859375,281.30078125)"/>
<path d="M0 0 C-5.4093474 11.04408427 -14.89088855 16.66584187 -26.23046875 20.81640625 C-35.62932242 23.49911299 -45.87837307 22.13322004 -55 19 C-62.27102011 14.01008424 -66.56827391 5.80270162 -68.6640625 -2.69140625 C-68.9375 -4.875 -68.9375 -4.875 -69 -8 C-46.64276729 -22.09477714 -20.39634629 -13.73631485 0 0 Z " fill="#FEFEFE" transform="translate(438,324)"/>
<path d="M0 0 C5.91424804 3.71331166 7.48916373 8.83983862 9.06640625 15.4296875 C10.27057251 21.86849387 10.04810392 28.34367752 9.87890625 34.8671875 C8.88890625 35.3621875 8.88890625 35.3621875 7.87890625 35.8671875 C4.60105361 34.33247037 1.43728837 32.6646262 -1.74023438 30.93554688 C-9.76688058 26.72174675 -17.42733353 25.49263923 -26.43359375 25.5546875 C-27.26028564 25.55815186 -28.08697754 25.56161621 -28.9387207 25.56518555 C-38.70671184 25.73765715 -47.07788493 28.41432595 -56.12109375 31.8671875 C-57.11109375 31.8671875 -58.10109375 31.8671875 -59.12109375 31.8671875 C-60.00829224 24.05984081 -56.91905793 16.82337871 -52.44140625 10.4921875 C-50.75038102 8.50805123 -48.99735027 6.67583117 -47.12109375 4.8671875 C-46.23421875 3.9803125 -45.34734375 3.0934375 -44.43359375 2.1796875 C-31.12990207 -8.08615332 -14.32234122 -7.64913251 0 0 Z " fill="#FEFEFE" transform="translate(114.12109375,291.1328125)"/>
<path d="M0 0 C8.08587483 3.9927769 10.96367286 9.05463408 14.3125 17.1875 C16.50224347 29.33062289 15.36044254 40.81315626 8.375 51.125 C0.7871914 61.47201173 -7.32368951 66.24684081 -20 69 C-29.08586896 70.140052 -38.28668922 68.68048485 -46.0859375 63.65625 C-47.75 62.3125 -47.75 62.3125 -50 60 C-50 59.67 -50 59.34 -50 59 C-42.45348837 59.89534884 -42.45348837 59.89534884 -39.5625 60.5625 C-27.46764368 62.62747547 -16.38539407 58.65851569 -6.38671875 51.87109375 C-2.13685494 48.53936745 1.27713284 45.16860148 3 40 C0.3587447 38.55352609 -2.28751536 37.11782644 -4.9375 35.6875 C-5.67291016 35.28337891 -6.40832031 34.87925781 -7.16601562 34.46289062 C-20.66805071 27.21070584 -36.45358114 23.39868141 -51.67578125 26.828125 C-56.55651622 28.30948057 -61.27695933 30.07964281 -66 32 C-66 30.02 -66 28.04 -66 26 C-49.39594304 18.72247716 -33.10824935 17.59806251 -16 24 C-13.84998892 24.94041135 -11.78936807 25.93866583 -9.73046875 27.0625 C-6.91704665 28.58670159 -3.94192283 29.7469588 -1 31 C1.0072458 31.98537521 3.00980253 32.98063057 5 34 C7.86973208 28.26053584 6.635519 17.89374658 4.6875 11.9375 C3.33447224 8.52271566 1.67398769 5.26826168 0 2 C0 1.34 0 0.68 0 0 Z " fill="#E7E8E8" transform="translate(434,284)"/>
<path d="M0 0 C6.03872557 2.23656503 9.53676219 8.15116332 12.1484375 13.74609375 C15.79210235 23.39010576 16.25096932 34.30255844 12.1875 43.875 C6.41345157 55.38155695 -2.5551319 64.16142958 -14.84765625 68.31640625 C-21.49213564 69.75727849 -29.51100278 70.16299907 -36 68 C-36 67.34 -36 66.68 -36 66 C-35.0821875 65.82984375 -34.164375 65.6596875 -33.21875 65.484375 C-20.56241111 62.98501396 -11.28218254 59.37526836 -3.6875 48.5625 C-1.27985679 44.77447468 0.06863571 41.37741215 1 37 C-11.93652535 27.67077499 -27.39203577 25.44041256 -43 27 C-46.24248913 27.63212621 -49.00904779 28.62266363 -52 30 C-53.81009935 30.73510585 -55.62267336 31.46414356 -57.4375 32.1875 C-58.26121094 32.53167969 -59.08492187 32.87585938 -59.93359375 33.23046875 C-62 34 -62 34 -64 34 C-64 32.35 -64 30.7 -64 29 C-48.57884875 20.71827063 -29.96389277 17.89095828 -12.93359375 22.8671875 C-7.06965356 25.13155855 -1.52542157 28.0165993 4 31 C4.38476533 21.49487137 3.52007886 13.16629722 1 4 C0.66356319 2.66744637 0.32882441 1.33445247 0 0 Z " fill="#E7E8E8" transform="translate(119,295)"/>
<path d="M0 0 C2.8289661 2.07636704 3.77194138 3.49819864 4.39453125 6.95703125 C3.83203125 9.83203125 3.83203125 9.83203125 2.70703125 11.76953125 C0.83203125 12.83203125 0.83203125 12.83203125 -1.85546875 12.76953125 C-4.64559001 11.97987429 -6.44839845 11.16645991 -8.91796875 9.76953125 C-13.6338583 7.29414095 -17.9392502 7.1126438 -23.16796875 7.83203125 C-27.0161357 9.18601592 -28.69745371 10.21448026 -31.16796875 13.45703125 C-33.16796875 15.83203125 -33.16796875 15.83203125 -36.16796875 16.89453125 C-39.16796875 16.83203125 -39.16796875 16.83203125 -41.60546875 15.26953125 C-43.16796875 12.83203125 -43.16796875 12.83203125 -43.35546875 10.01953125 C-40.85541083 3.30884947 -35.37223909 -0.48572399 -29.0625 -3.44140625 C-19.31876339 -7.17817946 -9.00148025 -4.84944612 0 0 Z " fill="#86FCFC" transform="translate(267.16796875,208.16796875)"/>
<path d="M0 0 C3.55337702 2.64761425 4.80080913 3.75505707 5.5 8.125 C5 11 5 11 3.8125 12.9375 C2 14 2 14 -0.25 13.9375 C-3 13 -3 13 -6.25 10.9375 C-10.41907144 8.44333935 -14.25132239 8.26668255 -19 9 C-22.38549947 10.42943311 -23.7532595 11.66570642 -25.9375 14.625 C-28 17 -28 17 -31.25 17.8125 C-32.1575 17.874375 -33.065 17.93625 -34 18 C-36.25273063 15.65716014 -36.98926619 14.48302165 -37.0625 11.1875 C-35.08431841 5.25295522 -31.35575791 1.44776602 -25.8125 -1.375 C-16.5292793 -5.586323 -9.0213504 -4.32742902 0 0 Z " fill="#85FAFB" transform="translate(184,219)"/>
<path d="M0 0 C0.66 0 1.32 0 2 0 C4.84455058 8.53365174 3.55840019 18.84414677 0 27 C-5.74923358 38.19265686 -13.33534778 45.24130462 -25.25 49.3125 C-36.14345252 52.39081126 -45.67241356 51.75251765 -56 47 C-58.36045525 45.4794071 -60.02739669 44.02739784 -62 42 C-62 41.67 -62 41.34 -62 41 C-60.35 41 -58.7 41 -57 41 C-56.67 41.99 -56.34 42.98 -56 44 C-45.84017834 49.07991083 -34.71032704 49.45813143 -24 46 C-17.65864514 43.60089426 -10.12120569 39.24241138 -7 33 C-6.34 33 -5.68 33 -5 33 C-4.53963371 31.64652311 -4.08183463 30.292173 -3.625 28.9375 C-3.24214844 27.80634766 -3.24214844 27.80634766 -2.8515625 26.65234375 C-2.57054687 25.77707031 -2.28953125 24.90179688 -2 24 C-1.6390625 22.9275 -1.278125 21.855 -0.90625 20.75 C0.14496971 16.40012534 0.22408185 12.50975092 0.125 8.0625 C0.11597656 7.28326172 0.10695313 6.50402344 0.09765625 5.70117188 C0.07433691 3.80064553 0.03847586 1.90027992 0 0 Z " fill="#E5F4F4" transform="translate(446,302)"/>
<path d="M0 0 C0.66 0 1.32 0 2 0 C5.15906617 13.26285631 4.02219185 23.57567818 -2.9375 35.25 C-9.523178 44.030904 -18.16920857 50.65131536 -29 53 C-41.38114754 53.87295082 -41.38114754 53.87295082 -47 52 C-47 51.34 -47 50.68 -47 50 C-45.53240234 50.03480469 -45.53240234 50.03480469 -44.03515625 50.0703125 C-36.7640555 50.17040632 -30.02010946 50.09049537 -23 48 C-22.30777344 47.80921875 -21.61554688 47.6184375 -20.90234375 47.421875 C-19.26318998 46.9656493 -17.63065514 46.48572706 -16 46 C-16 45.34 -16 44.68 -16 44 C-11.52941176 40 -11.52941176 40 -9 40 C-9 39.34 -9 38.68 -9 38 C-8.01303239 36.98713528 -7.01064368 35.98924181 -6 35 C1.72958013 23.99050901 1.27850821 12.80235928 0 0 Z " fill="#E5F4F4" transform="translate(130,311)"/>
<path d="M0 0 C0.7421875 1.55859375 0.7421875 1.55859375 1 4 C-0.19005497 6.5146639 -1.40084512 8.72419553 -2.875 11.0625 C-3.28556641 11.72789795 -3.69613281 12.3932959 -4.11914062 13.07885742 C-7.93666712 19.13808793 -12.28032271 24.6167477 -17 30 C-17.66128906 30.80566406 -18.32257813 31.61132812 -19.00390625 32.44140625 C-27.76487432 42.79830019 -39.63779388 53.19029369 -52 59 C-52.66 59 -53.32 59 -54 59 C-52.68672926 55.06018779 -51.23922683 54.79825181 -47.625 52.875 C-42.01007001 49.73251532 -37.23484659 46.11971112 -32.375 41.91796875 C-30 40 -30 40 -27.75 38.92578125 C-25.63847113 38.06657725 -25.63847113 38.06657725 -25 35 C-23.36426779 33.30296267 -21.69332815 31.6395717 -20 30 C-12.99395226 22.26441766 -7.96734128 14.10304624 -3 5 C-2.00924515 3.327821 -1.01276257 1.65894236 0 0 Z " fill="#E5F3F3" transform="translate(363,295)"/>
<path d="M0 0 C21.19773617 3.00504306 42.44093873 23.76452189 55.2578125 39.4921875 C56.95726723 41.93848781 58.02504251 44.19574084 59 47 C55.32892239 43.36911667 51.75642756 39.66496618 48.25 35.875 C47.50943359 35.08802734 47.50943359 35.08802734 46.75390625 34.28515625 C44.51691568 31.86430345 43.05514408 30.16543223 42 27 C40.69141432 26.28597918 39.35460109 25.62231674 38 25 C37.05125 24.154375 36.1025 23.30875 35.125 22.4375 C26.54873155 14.91026009 16.07287572 9.24200675 6 4 C5.67 4.66 5.34 5.32 5 6 C3.2925002 4.71937515 1.62626404 3.38232443 0 2 C0 1.34 0 0.68 0 0 Z " fill="#E5F3F3" transform="translate(295,124)"/>
<path d="M0 0 C1.99097846 2.98646769 2.94124926 5.59687262 4 9 C2.35 9.33 0.7 9.66 -1 10 C-1.66 16.6 -2.32 23.2 -3 30 C-3.66 30 -4.32 30 -5 30 C-7.51329395 22.14773134 -8.82172254 16.59768069 -5.6875 8.6875 C-3.96077517 5.93753082 -3.01830646 5.04079533 0 4 C0 2.68 0 1.36 0 0 Z " fill="#E2E2E4" transform="translate(133,250)"/>
<path d="M0 0 C0.66 0 1.32 0 2 0 C2.43263875 14.30912618 1.58767918 28.07671029 -2 42 C-2.66 42 -3.32 42 -4 42 C-3.56705478 37.88702042 -3.11379278 33.78908766 -2.5234375 29.6953125 C-1.09782135 19.80111088 -0.43445397 9.98100833 0 0 Z " fill="#E5F4F4" transform="translate(375,233)"/>
<path d="M0 0 C11.64043719 0.39392342 20.26630433 3.09620302 29 11 C30.03258898 12.30825753 31.04186383 13.63627244 32 15 C30.02 14.34 28.04 13.68 26 13 C26 12.34 26 11.68 26 11 C25.34 11 24.68 11 24 11 C23.5565625 10.54753906 23.113125 10.09507812 22.65625 9.62890625 C17.0368777 4.1023066 7.46197989 3.07815679 0 2 C0 1.34 0 0.68 0 0 Z " fill="#ECFCFC" transform="translate(407,272)"/>
<path d="M0 0 C1.11375 0.309375 2.2275 0.61875 3.375 0.9375 C11.09553205 2.69047104 19.11768389 2.67688456 27 3 C27 3.33 27 3.66 27 4 C25.865625 4.12375 24.73125 4.2475 23.5625 4.375 C21.7990625 4.684375 21.7990625 4.684375 20 5 C19.67 5.66 19.34 6.32 19 7 C16.20760027 6.35720991 13.41609416 5.71091335 10.625 5.0625 C9.8309375 4.88009766 9.036875 4.69769531 8.21875 4.50976562 C7.45820313 4.33251953 6.69765625 4.15527344 5.9140625 3.97265625 C4.8614624 3.72914429 4.8614624 3.72914429 3.78759766 3.48071289 C2 3 2 3 0 2 C0 1.34 0 0.68 0 0 Z " fill="#EEFDFD" transform="translate(207,360)"/>
<path d="M0 0 C0.33 0 0.66 0 1 0 C1.33 2.64 1.66 5.28 2 8 C2.66 8 3.32 8 4 8 C4 11.3 4 14.6 4 18 C3.34 18 2.68 18 2 18 C-0.03358813 11.64647324 -1.60671734 6.57293456 0 0 Z " fill="#E8F2F2" transform="translate(126,262)"/>
<path d="M0 0 C0 0.99 0 1.98 0 3 C-2.28779038 4.03040167 -4.57951136 5.04952018 -6.875 6.0625 C-7.85146484 6.50432617 -7.85146484 6.50432617 -8.84765625 6.95507812 C-10.54010541 7.69661513 -12.26868575 8.35439001 -14 9 C-14.66 8.67 -15.32 8.34 -16 8 C-10.72 5.36 -5.44 2.72 0 0 Z " fill="#E4F3F3" transform="translate(307,353)"/>
<path d="M0 0 C0 0.66 0 1.32 0 2 C-5.07476794 3.26305335 -9.72796354 4.27036084 -15 4 C-14.67 3.34 -14.34 2.68 -14 2 C-11.85546875 1.3671875 -11.85546875 1.3671875 -9.1875 0.875 C-8.31480469 0.70742188 -7.44210937 0.53984375 -6.54296875 0.3671875 C-4 0 -4 0 0 0 Z " fill="#E5F3F3" transform="translate(279,364)"/>
<path d="M0 0 C1.9375 0.8125 1.9375 0.8125 4 2 C4.33 2.99 4.66 3.98 5 5 C6.62882397 6.43948118 6.62882397 6.43948118 8.5625 7.6875 C9.20316406 8.12449219 9.84382813 8.56148438 10.50390625 9.01171875 C10.99761719 9.33785156 11.49132812 9.66398437 12 10 C11.01 10.33 10.02 10.66 9 11 C4.44704107 7.86984074 2.16925009 5.18209744 0 0 Z " fill="#EFFDFD" transform="translate(374,332)"/>
<path d="M0 0 C4.62 0 9.24 0 14 0 C14 0.33 14 0.66 14 1 C12.865625 1.12375 11.73125 1.2475 10.5625 1.375 C8.7990625 1.684375 8.7990625 1.684375 7 2 C6.67 2.66 6.34 3.32 6 4 C3.03 3.505 3.03 3.505 0 3 C0 2.01 0 1.02 0 0 Z " fill="#ECF3F3" transform="translate(220,363)"/>
<path d="M0 0 C2.94751667 2.74423966 5.22773678 5.36219655 7 9 C6.67 9.99 6.34 10.98 6 12 C4.99157547 10.56839732 3.99352109 9.12948547 3 7.6875 C2.1646875 6.48673828 2.1646875 6.48673828 1.3125 5.26171875 C0 3 0 3 0 0 Z " fill="#E4F3F3" transform="translate(357,176)"/>
<path d="M0 0 C0 0.66 0 1.32 0 2 C-6.28571429 4.42857143 -6.28571429 4.42857143 -10 3 C-3.375 0 -3.375 0 0 0 Z " fill="#E5F2F2" transform="translate(290,361)"/>
</svg>
